STARTFONT 2.1
COMMENT
COMMENT Converted from OpenType font "DejaVuSansCondensed.ttf" by "otf2bdf 3.0".
COMMENT
FONT -FreeType-DejaVu Sans Condensed-Medium-R-Normal--66-480-100-100-P-336-ISO10646-1
SIZE 48 100 100
FONTBOUNDINGBOX 163 97 -62 -26
STARTPROPERTIES 19
FOUNDRY "FreeType"
FAMILY_NAME "DejaVu Sans Condensed"
WEIGHT_NAME "Medium"
SLANT "R"
SETWIDTH_NAME "Normal"
ADD_STYLE_NAME ""
PIXEL_SIZE 66
POINT_SIZE 480
RESOLUTION_X 100
RESOLUTION_Y 100
SPACING "P"
AVERAGE_WIDTH 336
CHARSET_REGISTRY "ISO10646"
CHARSET_ENCODING "1"
FONT_ASCENT 62
FONT_DESCENT 15
COPYRIGHT "Copyright (c) 2003 by Bitstream, Inc. All Rights Reserved.  Copyright (c) 2006 by Tavmjong Bah. All Rights Reserved.  DejaVu changes are in public domain  "
_OTF_FONTFILE "DejaVuSansCondensed.ttf"
_OTF_PSNAME "DejaVuSansCondensed"
ENDPROPERTIES
CHARS 5370
STARTCHAR 0020
ENCODING 32
SWIDTH 285 0
DWIDTH 19 0
BBX 0 0 0 0
BITMAP
ENDCHAR
STARTCHAR 0021
ENCODING 33
SWIDTH 360 0
DWIDTH 24 0
BBX 6 49 9 0
BITMAP
FC
FC
FC
FC
FC
FC
FC
FC
FC
FC
FC
FC
FC
FC
FC
FC
FC
FC
FC
FC
FC
FC
FC
FC
FC
FC
FC
FC
FC
7C
7C
7C
7C
00
00
00
00
00
00
00
00
FC
FC
FC
FC
FC
FC
FC
FC
ENDCHAR
STARTCHAR 0022
ENCODING 34
SWIDTH 420 0
DWIDTH 28 0
BBX 16 18 6 31
BITMAP
F81F
F81F
F81F
F81F
F81F
F81F
F81F
F81F
F81F
F81F
F81F
F81F
F81F
F81F
F81F
F81F
F81F
F81F
ENDCHAR
STARTCHAR 0023
ENCODING 35
SWIDTH 765 0
DWIDTH 51 0
BBX 41 48 5 0
BITMAP
00007803E000
0000F803C000
0000F807C000
0000F807C000
0000F007C000
0001F007C000
0001F0078000
0001F00F8000
0001E00F8000
0001E00F8000
0003E00F0000
0003E01F0000
0003E01F0000
1FFFFFFFFF80
1FFFFFFFFF80
1FFFFFFFFF80
1FFFFFFFFF80
1FFFFFFFFF80
1FFFFFFFFF80
000F803C0000
000F807C0000
000F807C0000
000F007C0000
001F00780000
001F00F80000
001F00F80000
001E00F80000
003E00F80000
003E00F00000
FFFFFFFFFC00
FFFFFFFFFC00
FFFFFFFFFC00
FFFFFFFFFC00
FFFFFFFFFC00
007C03E00000
007803E00000
00F803E00000
00F803C00000
00F807C00000
00F807C00000
00F007C00000
01F007800000
01F00F800000
01F00F800000
01E00F800000
03E00F800000
03E00F000000
03E01F000000
ENDCHAR
STARTCHAR 0024
ENCODING 36
SWIDTH 570 0
DWIDTH 38 0
BBX 28 61 5 -10
BITMAP
000E0000
000E0000
000E0000
000E0000
000E0000
000E0000
000E0000
000E0000
00FFF800
03FFFF80
0FFFFFC0
1FFFFFC0
3FFEFFC0
7F8E07C0
7E0E00C0
7C0E0000
FC0E0000
FC0E0000
F80E0000
F80E0000
FC0E0000
FC0E0000
FC0E0000
7E0E0000
7F0E0000
7FEE0000
3FFF0000
1FFFF000
0FFFFC00
03FFFF00
007FFF80
000FFFC0
000E7FE0
000E0FE0
000E07F0
000E03F0
000E03F0
000E01F0
000E01F0
000E01F0
000E01F0
000E01F0
800E03F0
C00E07F0
F00E0FE0
FE0E3FC0
FFFFFFC0
FFFFFF80
7FFFFE00
0FFFFC00
00FFC000
000E0000
000E0000
000E0000
000E0000
000E0000
000E0000
000E0000
000E0000
000E0000
000E0000
ENDCHAR
STARTCHAR 0025
ENCODING 37
SWIDTH 855 0
DWIDTH 57 0
BBX 51 51 3 -1
BITMAP
00F8000007C000
03FE00000F8000
0FFF80000F8000
1FFFC0001F0000
1FDFC0001E0000
3F07E0003E0000
3E03E0003C0000
7C01F0007C0000
7C01F000780000
7801F000F80000
7800F001F00000
F800F801F00000
F800F803E00000
F800F803E00000
F800F807C00000
F800F807800000
7800F00F800000
7800F00F000000
7C01F01F000000
7C01F01E000000
7E03E03E000000
3E03E03C000000
3F8FC07C000000
1FFFC0F8000000
0FFF80F801C000
07FE01F00FF800
00F801F01FFE00
000003E03FFF00
000003C07FFF80
000007C0FC0F80
00000780F807C0
00000F80F807C0
00000F01F003C0
00001F01F003E0
00003E01F003E0
00003E01E003E0
00007C01E003E0
00007C01E003E0
0000F801E003E0
0000F001E003E0
0001F001F003E0
0001E001F003E0
0003E001F003C0
0003C001F007C0
0007C000F807C0
000F8000FC0F80
000F80007E3F80
001F00007FFF00
001F00003FFE00
003E00000FFC00
003C000003F000
ENDCHAR
STARTCHAR 0026
ENCODING 38
SWIDTH 705 0
DWIDTH 47 0
BBX 41 51 4 -1
BITMAP
0003F0000000
001FFF000000
007FFFC00000
00FFFFE00000
01FFFFE00000
03FFBFE00000
03F803E00000
07F000600000
07E000200000
07E000000000
07E000000000
07C000000000
07C000000000
07E000000000
07E000000000
07E000000000
03F000000000
03F800000000
01FC00000000
01FC00000000
01FE00000000
03FF00000000
07FF80000000
0FFFC0000000
1FDFE0003E00
1F8FF0007E00
3F07F0007E00
3F03F8007E00
7E01FC007C00
7E00FE007C00
FC007F007C00
FC007F80FC00
FC003FC0F800
FC001FE0F800
F8000FF1F000
FC0007F1F000
FC0003FBE000
FC0001FFE000
FC0000FFC000
FE00007FC000
7E00007F8000
7F00003FC000
7F80007FE000
3FC000FFE000
1FE003FFF000
1FFE3FFBF800
0FFFFFF1FC00
07FFFFE0FE00
01FFFF80FF00
007FFE007F80
000FF0000000
ENDCHAR
STARTCHAR 0027
ENCODING 39
SWIDTH 255 0
DWIDTH 17 0
BBX 5 18 6 31
BITMAP
F8
F8
F8
F8
F8
F8
F8
F8
F8
F8
F8
F8
F8
F8
F8
F8
F8
F8
ENDCHAR
STARTCHAR 0028
ENCODING 40
SWIDTH 360 0
DWIDTH 24 0
BBX 14 60 5 -9
BITMAP
007C
00F8
00F8
01F0
01F0
03E0
03E0
07C0
07C0
0FC0
0F80
0F80
1F80
1F00
1F00
3F00
3E00
3E00
7E00
7E00
7E00
7E00
7C00
7C00
FC00
FC00
FC00
FC00
FC00
FC00
FC00
FC00
FC00
FC00
FC00
FC00
7C00
7C00
7E00
7E00
7E00
7E00
3E00
3E00
3F00
1F00
1F00
1F80
0F80
0F80
0FC0
07C0
07C0
03E0
03E0
01F0
01F0
00F8
00F8
007C
ENDCHAR
STARTCHAR 0029
ENCODING 41
SWIDTH 360 0
DWIDTH 24 0
BBX 13 60 5 -9
BITMAP
F800
7800
7C00
7C00
3E00
3E00
1F00
1F00
0F80
0F80
0FC0
07C0
07C0
07E0
07E0
03E0
03E0
03F0
03F0
01F0
01F0
01F8
01F8
01F8
01F8
01F8
01F8
00F8
00F8
00F8
00F8
00F8
00F8
01F8
01F8
01F8
01F8
01F8
01F8
01F0
01F0
03F0
03F0
03E0
03E0
07E0
07E0
07C0
07C0
0FC0
0F80
0F80
1F00
1F00
3E00
3E00
7C00
7C00
7800
F800
ENDCHAR
STARTCHAR 002A
ENCODING 42
SWIDTH 450 0
DWIDTH 30 0
BBX 26 31 2 19
BITMAP
001E0000
001E0000
001E0000
001E0000
001E0000
001E0000
401E0080
701E0380
F81E07C0
FE1E1FC0
3F1E3F00
0FDEFE00
07FFF800
01FFE000
007FC000
003F0000
007F8000
01FFE000
07FFF800
0FDEFC00
3F1E3F00
7E1E1FC0
F81E07C0
701E03C0
401E0080
001E0000
001E0000
001E0000
001E0000
001E0000
001E0000
ENDCHAR
STARTCHAR 002B
ENCODING 43
SWIDTH 765 0
DWIDTH 51 0
BBX 38 42 6 0
BITMAP
00007C0000
00007C0000
00007C0000
00007C0000
00007C0000
00007C0000
00007C0000
00007C0000
00007C0000
00007C0000
00007C0000
00007C0000
00007C0000
00007C0000
00007C0000
00007C0000
00007C0000
00007C0000
FFFFFFFFFC
FFFFFFFFFC
FFFFFFFFFC
FFFFFFFFFC
FFFFFFFFFC
FFFFFFFFFC
00007C0000
00007C0000
00007C0000
00007C0000
00007C0000
00007C0000
00007C0000
00007C0000
00007C0000
00007C0000
00007C0000
00007C0000
00007C0000
00007C0000
00007C0000
00007C0000
00007C0000
00007C0000
ENDCHAR
STARTCHAR 002C
ENCODING 44
SWIDTH 285 0
DWIDTH 19 0
BBX 8 16 5 -8
BITMAP
3F
3F
3F
3F
3F
3F
3F
3E
7E
7C
7C
78
F8
F8
F0
F0
ENDCHAR
STARTCHAR 002D
ENCODING 45
SWIDTH 330 0
DWIDTH 22 0
BBX 16 5 3 16
BITMAP
FFFF
FFFF
FFFF
FFFF
FFFF
ENDCHAR
STARTCHAR 002E
ENCODING 46
SWIDTH 285 0
DWIDTH 19 0
BBX 7 8 6 0
BITMAP
FE
FE
FE
FE
FE
FE
FE
FE
ENDCHAR
STARTCHAR 002F
ENCODING 47
SWIDTH 300 0
DWIDTH 20 0
BBX 20 55 0 -6
BITMAP
0001F0
0001F0
0001F0
0003E0
0003E0
0003E0
0003E0
0007C0
0007C0
0007C0
000F80
000F80
000F80
000F80
001F00
001F00
001F00
003F00
003E00
003E00
003E00
007C00
007C00
007C00
007C00
00F800
00F800
00F800
01F000
01F000
01F000
01F000
03E000
03E000
03E000
07E000
07C000
07C000
07C000
0F8000
0F8000
0F8000
0F8000
1F0000
1F0000
1F0000
3E0000
3E0000
3E0000
3E0000
7C0000
7C0000
7C0000
F80000
F80000
ENDCHAR
STARTCHAR 0030
ENCODING 48
SWIDTH 570 0
DWIDTH 38 0
BBX 30 51 4 -1
BITMAP
00078000
007FF800
00FFFE00
03FFFF00
07FFFF80
07FFFFC0
0FF01FC0
1FC00FE0
1F8007E0
3F8003F0
3F0003F0
3F0003F8
7F0001F8
7E0001F8
7E0001F8
7E0000FC
7E0000FC
FC0000FC
FC0000FC
FC0000FC
FC0000FC
FC0000FC
FC0000FC
FC0000FC
FC0000FC
FC0000FC
FC0000FC
FC0000FC
FC0000FC
FC0000FC
FC0000FC
FC0000FC
FC0000FC
FC0000FC
7E0000FC
7E0000FC
7E0001F8
7E0001F8
7E0001F8
3F0001F8
3F0003F0
3F8003F0
1F8007E0
1FC00FE0
0FE01FC0
07FC7FC0
07FFFF80
03FFFF00
01FFFE00
007FF800
000FE000
ENDCHAR
STARTCHAR 0031
ENCODING 49
SWIDTH 570 0
DWIDTH 38 0
BBX 26 49 7 0
BITMAP
007F0000
0FFF0000
FFFF0000
FFFF0000
FFFF0000
FFFF0000
FFBF0000
F03F0000
003F0000
003F0000
003F0000
003F0000
003F0000
003F0000
003F0000
003F0000
003F0000
003F0000
003F0000
003F0000
003F0000
003F0000
003F0000
003F0000
003F0000
003F0000
003F0000
003F0000
003F0000
003F0000
003F0000
003F0000
003F0000
003F0000
003F0000
003F0000
003F0000
003F0000
003F0000
003F0000
003F0000
003F0000
003F0000
FFFFFFC0
FFFFFFC0
FFFFFFC0
FFFFFFC0
FFFFFFC0
FFFFFFC0
ENDCHAR
STARTCHAR 0032
ENCODING 50
SWIDTH 570 0
DWIDTH 38 0
BBX 28 50 4 0
BITMAP
003F0000
03FFF000
1FFFFC00
7FFFFE00
7FFFFF00
7FFFFF80
7F807FC0
7C001FE0
70000FE0
400007E0
000007F0
000003F0
000003F0
000003F0
000003F0
000003F0
000003F0
000003F0
000007F0
000007E0
00000FE0
00000FC0
00001FC0
00001F80
00003F80
00007F00
0000FE00
0001FC00
0003FC00
0003F800
0007F000
000FE000
001FC000
003F8000
007F0000
00FE0000
01FE0000
01FC0000
03F80000
07F00000
0FE00000
1FC00000
3F800000
7F000000
FFFFFFF0
FFFFFFF0
FFFFFFF0
FFFFFFF0
FFFFFFF0
FFFFFFF0
ENDCHAR
STARTCHAR 0033
ENCODING 51
SWIDTH 570 0
DWIDTH 38 0
BBX 29 51 5 -1
BITMAP
007F0000
0FFFF000
7FFFFC00
7FFFFE00
7FFFFF00
7FFFFF80
7E007FC0
60001FC0
00000FE0
000007E0
000007E0
000007E0
000003F0
000003F0
000003E0
000007E0
000007E0
000007E0
00000FC0
00001FC0
00007F80
01FFFF00
01FFFC00
01FFF000
01FFFC00
01FFFF00
01FFFF80
00007FC0
00001FE0
00000FE0
000007F0
000003F0
000003F0
000003F0
000001F0
000001F8
000001F8
000003F0
000003F0
000003F0
000003F0
000007F0
00000FE0
C0001FE0
F8007FC0
FFFFFF80
FFFFFF80
FFFFFE00
FFFFFC00
3FFFF000
01FF0000
ENDCHAR
STARTCHAR 0034
ENCODING 52
SWIDTH 570 0
DWIDTH 38 0
BBX 32 49 3 0
BITMAP
00003FC0
00007FC0
00007FC0
0000FFC0
0000FFC0
0001FFC0
0003EFC0
0003EFC0
0007CFC0
0007CFC0
000F8FC0
000F8FC0
001F0FC0
003E0FC0
003E0FC0
007C0FC0
007C0FC0
00F80FC0
01F80FC0
01F00FC0
03E00FC0
03E00FC0
07C00FC0
0FC00FC0
0F800FC0
1F800FC0
1F000FC0
3E000FC0
7E000FC0
7C000FC0
FC000FC0
F8000FC0
FFFFFFFF
FFFFFFFF
FFFFFFFF
FFFFFFFF
FFFFFFFF
00000FC0
00000FC0
00000FC0
00000FC0
00000FC0
00000FC0
00000FC0
00000FC0
00000FC0
00000FC0
00000FC0
00000FC0
ENDCHAR
STARTCHAR 0035
ENCODING 53
SWIDTH 570 0
DWIDTH 38 0
BBX 28 50 5 -1
BITMAP
3FFFFF80
3FFFFF80
3FFFFF80
3FFFFF80
3FFFFF80
3FFFFF80
3E000000
3E000000
3E000000
3E000000
3E000000
3E000000
3E000000
3E000000
3E000000
3E000000
3E000000
3FFFC000
3FFFF000
3FFFFC00
3FFFFE00
3FFFFF00
3F03FF80
30007FC0
00003FC0
00001FE0
00000FE0
000007E0
000007F0
000003F0
000003F0
000003F0
000003F0
000003F0
000003F0
000003F0
000003F0
000003F0
000007F0
000007E0
00000FE0
00001FE0
C0003FC0
F800FF80
FFFFFF80
FFFFFF00
FFFFFE00
FFFFF800
3FFFE000
03FF0000
ENDCHAR
STARTCHAR 0036
ENCODING 54
SWIDTH 570 0
DWIDTH 38 0
BBX 31 51 4 -1
BITMAP
0000F800
000FFFC0
003FFFF0
007FFFF0
01FFFFF0
03FFFFF0
03FC01F0
07F00030
0FE00000
0FC00000
1F800000
1F800000
3F000000
3F000000
3F000000
7E000000
7E000000
7E000000
7E0FF800
7E3FFF00
FC7FFF80
FCFFFFC0
FDFFFFE0
FFF81FF0
FFE007F0
FFC003F8
FF8001F8
FF8001FC
FF0000FC
FF0000FC
FF0000FC
FE0000FC
7E00007E
7E00007E
7E00007E
7E00007E
7E0000FC
7E0000FC
3F0000FC
3F0000FC
3F0001FC
1F8001F8
1F8003F8
0FC007F8
0FF00FF0
07FC3FE0
03FFFFC0
01FFFF80
00FFFF00
007FFE00
000FF000
ENDCHAR
STARTCHAR 0037
ENCODING 55
SWIDTH 570 0
DWIDTH 38 0
BBX 28 49 5 0
BITMAP
FFFFFFF0
FFFFFFF0
FFFFFFF0
FFFFFFF0
FFFFFFF0
FFFFFFE0
000007E0
00000FE0
00000FC0
00000FC0
00001FC0
00001F80
00001F80
00003F80
00003F00
00003F00
00007F00
00007E00
00007E00
0000FC00
0000FC00
0000FC00
0001F800
0001F800
0001F800
0003F000
0003F000
0007F000
0007E000
0007E000
000FE000
000FC000
000FC000
001FC000
001F8000
001F8000
003F8000
003F0000
003F0000
007F0000
007E0000
007E0000
00FE0000
00FC0000
00FC0000
01F80000
01F80000
01F80000
03F00000
ENDCHAR
STARTCHAR 0038
ENCODING 56
SWIDTH 570 0
DWIDTH 38 0
BBX 30 51 4 -1
BITMAP
000FC000
00FFFC00
03FFFF00
07FFFF80
0FFFFFC0
1FFFFFE0
1FE00FF0
3F8007F0
3F0003F8
7F0003F8
7E0001F8
7E0001F8
7E0001F8
7E0001F8
7E0001F8
7E0001F8
3E0001F8
3F0001F0
3F0003F0
1F8007E0
0FE00FE0
07FC7FC0
03FFFF00
00FFFE00
00FFFE00
03FFFF80
0FFFFFC0
1FE01FE0
3F8007F0
3F0003F8
7F0001F8
7E0001F8
7E0000FC
FC0000FC
FC0000FC
FC0000FC
FC0000FC
FC0000FC
FC0000FC
FC0000FC
FE0000FC
7E0001FC
7F0003F8
7F8003F8
3FC00FF0
1FF87FF0
1FFFFFE0
0FFFFFC0
03FFFF80
01FFFE00
001FF000
ENDCHAR
STARTCHAR 0039
ENCODING 57
SWIDTH 570 0
DWIDTH 38 0
BBX 30 51 4 -1
BITMAP
000F8000
00FFF000
03FFFC00
07FFFE00
0FFFFF00
1FFFFF80
1FC03FC0
3F800FE0
7F0007E0
7E0007E0
7E0003F0
FE0003F0
FC0001F8
FC0001F8
FC0001F8
FC0001F8
FC0001F8
FC0001FC
FC0001FC
FC0001FC
FC0001FC
FC0001FC
FE0003FC
7E0003FC
7F0007FC
7F0007FC
3F800FFC
3FE03FFC
1FFFFFFC
0FFFFEFC
07FFFCFC
01FFF8FC
007FE0FC
000000F8
000001F8
000001F8
000001F8
000003F0
000003F0
000003F0
000007E0
00000FE0
00001FC0
10003FC0
1C00FF80
1FFFFF00
1FFFFE00
1FFFFC00
1FFFF800
0FFFE000
00FF0000
ENDCHAR
STARTCHAR 003A
ENCODING 58
SWIDTH 300 0
DWIDTH 20 0
BBX 6 35 7 0
BITMAP
FC
FC
FC
FC
FC
FC
FC
FC
FC
00
00
00
00
00
00
00
00
00
00
00
00
00
00
00
00
00
00
FC
FC
FC
FC
FC
FC
FC
FC
ENDCHAR
STARTCHAR 003B
ENCODING 59
SWIDTH 300 0
DWIDTH 20 0
BBX 8 43 5 -8
BITMAP
3F
3F
3F
3F
3F
3F
3F
3F
3F
00
00
00
00
00
00
00
00
00
00
00
00
00
00
00
00
00
00
3F
3F
3F
3F
3F
3F
3F
3E
7E
7C
7C
78
F8
F8
F0
F0
ENDCHAR
STARTCHAR 003C
ENCODING 60
SWIDTH 765 0
DWIDTH 51 0
BBX 38 36 6 3
BITMAP
0000000004
000000001C
00000000FC
00000003FC
0000001FFC
0000007FFC
000003FFF8
00000FFFC0
00007FFF00
0001FFF800
000FFFE000
003FFF0000
01FFFC0000
07FFE00000
3FFF800000
FFFC000000
FFF0000000
FF80000000
FF80000000
FFE0000000
FFFC000000
3FFF800000
07FFE00000
01FFFC0000
003FFF0000
000FFFE000
0001FFF800
00007FFF00
00000FFFC0
000003FFF8
0000007FFC
0000001FFC
00000003FC
00000000FC
000000001C
0000000004
ENDCHAR
STARTCHAR 003D
ENCODING 61
SWIDTH 765 0
DWIDTH 51 0
BBX 38 18 6 12
BITMAP
FFFFFFFFFC
FFFFFFFFFC
FFFFFFFFFC
FFFFFFFFFC
FFFFFFFFFC
0000000000
0000000000
0000000000
0000000000
0000000000
0000000000
0000000000
0000000000
FFFFFFFFFC
FFFFFFFFFC
FFFFFFFFFC
FFFFFFFFFC
FFFFFFFFFC
ENDCHAR
STARTCHAR 003E
ENCODING 62
SWIDTH 765 0
DWIDTH 51 0
BBX 38 36 6 3
BITMAP
8000000000
F000000000
FC00000000
FF80000000
FFE0000000
FFFC000000
3FFF000000
0FFFE00000
01FFF80000
007FFF0000
000FFFC000
0003FFF800
00007FFE00
00001FFFC0
000003FFF0
000000FFFC
0000001FFC
00000007FC
00000007FC
0000001FFC
000000FFFC
000003FFF0
00001FFFC0
00007FFE00
0003FFF800
000FFFC000
007FFF0000
01FFF80000
0FFFE00000
3FFF000000
FFFC000000
FFE0000000
FF80000000
FC00000000
F000000000
8000000000
ENDCHAR
STARTCHAR 003F
ENCODING 63
SWIDTH 480 0
DWIDTH 32 0
BBX 24 50 4 0
BITMAP
007E00
07FFC0
1FFFE0
7FFFF8
FFFFF8
FFFFFC
FC01FE
F000FE
E0007E
80007F
00003F
00003F
00003F
00003F
00007E
00007E
0000FE
0000FC
0001FC
0003F8
0007F0
000FE0
001FC0
003F80
003F00
007E00
00FE00
00FC00
00FC00
00F800
00F800
00F800
00F800
00F800
00F800
00F800
00F800
000000
000000
000000
000000
000000
00FC00
00FC00
00FC00
00FC00
00FC00
00FC00
00FC00
00FC00
ENDCHAR
STARTCHAR 0040
ENCODING 64
SWIDTH 900 0
DWIDTH 60 0
BBX 52 59 4 -12
BITMAP
000007FF800000
00003FFFF00000
0001FFFFFC0000
0003FFFFFF0000
000FFFFFFFC000
001FF0007FE000
003FC0000FF000
007F000003F800
00FC000001FC00
01F80000007E00
03F00000003E00
07E00000001F00
07C00000001F80
0F800000000F80
1F0000000007C0
1F0007FC3E07C0
1E001FFE3E03C0
3E003FFFBE03E0
3C007FFFFE01E0
7C00FFDFFE01E0
7800FC03FE01F0
7801F801FE01F0
7801F000FE00F0
F801F0007E00F0
F003E0007E00F0
F003E0003E00F0
F003E0003E00F0
F003E0003E00F0
F003C0003E00F0
F003C0003E00F0
F003C0003E01F0
F003E0003E01E0
F003E0003E01E0
F003E0003E03E0
F803E0007E03C0
7801F0007E07C0
7801F000FE0F80
7801F801FE1F80
7C00FE03FE3F00
7C00FFFFFFFE00
3C007FFFBFFC00
3E003FFF3FF000
1E001FFE3FE000
1F0007F83F0000
0F800000000000
0F800000000000
07C00000000000
07E00000000000
03F00000000000
01F80000018000
00FE000003C000
007F00000FE000
003FE0003FE000
001FFC01FFC000
0007FFFFFF0000
0003FFFFFE0000
0000FFFFF00000
00001FFFC00000
000000F0000000
ENDCHAR
STARTCHAR 0041
ENCODING 65
SWIDTH 615 0
DWIDTH 41 0
BBX 40 49 1 0
BITMAP
0000FE0000
0000FE0000
0001FF0000
0001FF0000
0001FF8000
0003FF8000
0003FF8000
0003EFC000
0007EFC000
0007E7C000
0007C7E000
000FC7E000
000FC3E000
000F83F000
001F83F000
001F81F000
001F01F800
003F01F800
003F00F800
003E00FC00
007E00FC00
007E007C00
007C007E00
00FC007E00
00FC003E00
00F8003F00
01F8003F00
01F8001F00
03F0001F80
03F0001F80
03F0000F80
07FFFFFFC0
07FFFFFFC0
07FFFFFFC0
0FFFFFFFE0
0FFFFFFFE0
0FC00003E0
1F800003F0
1F800003F0
1F800001F8
3F000001F8
3F000001F8
3F000001FC
7E000000FC
7E000000FC
7E000000FE
FE0000007E
FC0000007E
FC0000007F
ENDCHAR
STARTCHAR 0042
ENCODING 66
SWIDTH 615 0
DWIDTH 41 0
BBX 31 49 6 0
BITMAP
FFFFE000
FFFFFE00
FFFFFF80
FFFFFFC0
FFFFFFE0
FFFFFFF0
FC000FF0
FC0007F0
FC0003F8
FC0001F8
FC0001F8
FC0001F8
FC0001F8
FC0001F8
FC0001F8
FC0001F8
FC0001F8
FC0003F0
FC0007F0
FC001FE0
FFFFFFC0
FFFFFF80
FFFFFE00
FFFFFF00
FFFFFFC0
FFFFFFE0
FC000FF0
FC0003F8
FC0001FC
FC0000FC
FC0000FC
FC0000FE
FC00007E
FC00007E
FC00007E
FC00007E
FC00007E
FC0000FE
FC0000FE
FC0000FE
FC0001FC
FC0003FC
FC0007F8
FC00FFF8
FFFFFFF0
FFFFFFE0
FFFFFFC0
FFFFFF00
FFFFF800
ENDCHAR
STARTCHAR 0043
ENCODING 67
SWIDTH 630 0
DWIDTH 42 0
BBX 36 51 3 -1
BITMAP
00001F8000
0003FFF800
000FFFFF00
003FFFFFC0
007FFFFFE0
00FFFFFFF0
01FF801FF0
03FE0003F0
07F80000F0
0FF0000070
0FE0000030
1FC0000010
1FC0000000
3F80000000
3F80000000
3F00000000
7F00000000
7F00000000
7E00000000
7E00000000
7E00000000
7E00000000
FE00000000
FE00000000
FE00000000
FE00000000
FE00000000
FE00000000
FE00000000
7E00000000
7E00000000
7E00000000
7E00000000
7E00000000
7F00000000
3F00000000
3F00000000
3F80000000
1F80000000
1FC0000000
0FE0000010
0FF0000070
07F80000F0
03FC0003F0
03FF000FF0
01FFFFFFF0
00FFFFFFE0
003FFFFFC0
001FFFFF00
0007FFFC00
00007FC000
ENDCHAR
STARTCHAR 0044
ENCODING 68
SWIDTH 690 0
DWIDTH 46 0
BBX 37 49 6 0
BITMAP
FFFFC00000
FFFFFE0000
FFFFFFC000
FFFFFFF000
FFFFFFF800
FFFFFFFC00
FC000FFE00
FC0001FF00
FC0000FF80
FC00003FC0
FC00001FC0
FC00001FE0
FC00000FE0
FC000007E0
FC000007F0
FC000007F0
FC000003F0
FC000003F0
FC000003F0
FC000003F8
FC000003F8
FC000003F8
FC000001F8
FC000001F8
FC000001F8
FC000001F8
FC000001F8
FC000003F8
FC000003F8
FC000003F8
FC000003F0
FC000003F0
FC000003F0
FC000007F0
FC000007F0
FC000007E0
FC00000FE0
FC00000FE0
FC00001FC0
FC00003FC0
FC00007F80
FC0001FF00
FC0007FE00
FC03FFFC00
FFFFFFF800
FFFFFFF000
FFFFFFC000
FFFFFE0000
FFFFE00000
ENDCHAR
STARTCHAR 0045
ENCODING 69
SWIDTH 570 0
DWIDTH 38 0
BBX 28 49 6 0
BITMAP
FFFFFFF0
FFFFFFF0
FFFFFFF0
FFFFFFF0
FFFFFFF0
FFFFFFF0
FC000000
FC000000
FC000000
FC000000
FC000000
FC000000
FC000000
FC000000
FC000000
FC000000
FC000000
FC000000
FC000000
FC000000
FFFFFFE0
FFFFFFE0
FFFFFFE0
FFFFFFE0
FFFFFFE0
FFFFFFE0
FC000000
FC000000
FC000000
FC000000
FC000000
FC000000
FC000000
FC000000
FC000000
FC000000
FC000000
FC000000
FC000000
FC000000
FC000000
FC000000
FC000000
FFFFFFF0
FFFFFFF0
FFFFFFF0
FFFFFFF0
FFFFFFF0
FFFFFFF0
ENDCHAR
STARTCHAR 0046
ENCODING 70
SWIDTH 525 0
DWIDTH 35 0
BBX 25 49 6 0
BITMAP
FFFFFF80
FFFFFF80
FFFFFF80
FFFFFF80
FFFFFF80
FFFFFF80
FC000000
FC000000
FC000000
FC000000
FC000000
FC000000
FC000000
FC000000
FC000000
FC000000
FC000000
FC000000
FC000000
FC000000
FFFFFE00
FFFFFE00
FFFFFE00
FFFFFE00
FFFFFE00
FFFFFE00
FC000000
FC000000
FC000000
FC000000
FC000000
FC000000
FC000000
FC000000
FC000000
FC000000
FC000000
FC000000
FC000000
FC000000
FC000000
FC000000
FC000000
FC000000
FC000000
FC000000
FC000000
FC000000
FC000000
ENDCHAR
STARTCHAR 0047
ENCODING 71
SWIDTH 705 0
DWIDTH 47 0
BBX 39 51 3 -1
BITMAP
00000FC000
0003FFFE00
000FFFFF80
003FFFFFE0
007FFFFFF8
00FFFFFFFC
01FF800FFC
03FE0001FC
07F800007C
0FF000001C
0FE000000C
1FC0000004
1F80000000
3F80000000
3F00000000
3F00000000
7F00000000
7F00000000
7E00000000
7E00000000
7E00000000
7E00000000
FE00000000
FE00000000
FE0001FFFE
FE0001FFFE
FE0001FFFE
FE0001FFFE
FE0001FFFE
7E0001FFFE
7E0000007E
7E0000007E
7E0000007E
7E0000007E
7F0000007E
3F0000007E
3F0000007E
3F8000007E
1F8000007E
1FC000007E
0FE000007E
0FF000007E
07F800007E
03FC0000FE
03FF0003FE
01FFFFFFFE
00FFFFFFF8
003FFFFFF0
001FFFFFC0
0003FFFE00
00007FE000
ENDCHAR
STARTCHAR 0048
ENCODING 72
SWIDTH 675 0
DWIDTH 45 0
BBX 33 49 6 0
BITMAP
FC00001F80
FC00001F80
FC00001F80
FC00001F80
FC00001F80
FC00001F80
FC00001F80
FC00001F80
FC00001F80
FC00001F80
FC00001F80
FC00001F80
FC00001F80
FC00001F80
FC00001F80
FC00001F80
FC00001F80
FC00001F80
FC00001F80
FC00001F80
FFFFFFFF80
FFFFFFFF80
FFFFFFFF80
FFFFFFFF80
FFFFFFFF80
FFFFFFFF80
FC00001F80
FC00001F80
FC00001F80
FC00001F80
FC00001F80
FC00001F80
FC00001F80
FC00001F80
FC00001F80
FC00001F80
FC00001F80
FC00001F80
FC00001F80
FC00001F80
FC00001F80
FC00001F80
FC00001F80
FC00001F80
FC00001F80
FC00001F80
FC00001F80
FC00001F80
FC00001F80
ENDCHAR
STARTCHAR 0049
ENCODING 73
SWIDTH 270 0
DWIDTH 18 0
BBX 6 49 6 0
BITMAP
FC
FC
FC
FC
FC
FC
FC
FC
FC
FC
FC
FC
FC
FC
FC
FC
FC
FC
FC
FC
FC
FC
FC
FC
FC
FC
FC
FC
FC
FC
FC
FC
FC
FC
FC
FC
FC
FC
FC
FC
FC
FC
FC
FC
FC
FC
FC
FC
FC
ENDCHAR
STARTCHAR 004A
ENCODING 74
SWIDTH 270 0
DWIDTH 18 0
BBX 15 62 -3 -13
BITMAP
007E
007E
007E
007E
007E
007E
007E
007E
007E
007E
007E
007E
007E
007E
007E
007E
007E
007E
007E
007E
007E
007E
007E
007E
007E
007E
007E
007E
007E
007E
007E
007E
007E
007E
007E
007E
007E
007E
007E
007E
007E
007E
007E
007E
007E
007E
007E
007E
007E
007E
007E
00FC
00FC
00FC
01FC
03F8
0FF8
FFF0
FFF0
FFE0
FFC0
FF00
ENDCHAR
STARTCHAR 004B
ENCODING 75
SWIDTH 600 0
DWIDTH 40 0
BBX 34 49 6 0
BITMAP
FC00007F80
FC0000FF00
FC0001FE00
FC0003FC00
FC0007F800
FC000FF000
FC000FE000
FC001FC000
FC003F8000
FC007F0000
FC00FE0000
FC01FC0000
FC03F80000
FC07F00000
FC0FF00000
FC1FE00000
FC3FC00000
FC7F800000
FCFF000000
FDFE000000
FFFC000000
FFF8000000
FFF0000000
FFF0000000
FFF8000000
FFFC000000
FDFE000000
FCFF000000
FC7F000000
FC7F800000
FC3FC00000
FC1FE00000
FC0FF00000
FC07F80000
FC03FC0000
FC01FE0000
FC00FF0000
FC007F0000
FC003F8000
FC003FC000
FC001FE000
FC000FF000
FC0007F800
FC0003FC00
FC0001FE00
FC0000FF00
FC00007F80
FC00003F80
FC00001FC0
ENDCHAR
STARTCHAR 004C
ENCODING 76
SWIDTH 510 0
DWIDTH 34 0
BBX 27 49 6 0
BITMAP
FC000000
FC000000
FC000000
FC000000
FC000000
FC000000
FC000000
FC000000
FC000000
FC000000
FC000000
FC000000
FC000000
FC000000
FC000000
FC000000
FC000000
FC000000
FC000000
FC000000
FC000000
FC000000
FC000000
FC000000
FC000000
FC000000
FC000000
FC000000
FC000000
FC000000
FC000000
FC000000
FC000000
FC000000
FC000000
FC000000
FC000000
FC000000
FC000000
FC000000
FC000000
FC000000
FC000000
FFFFFFE0
FFFFFFE0
FFFFFFE0
FFFFFFE0
FFFFFFE0
FFFFFFE0
ENDCHAR
STARTCHAR 004D
ENCODING 77
SWIDTH 780 0
DWIDTH 52 0
BBX 40 49 6 0
BITMAP
FF800001FF
FF800001FF
FFC00003FF
FFC00003FF
FFC00003FF
FFE00007FF
FFE00007FF
FFE00007FF
FFF0000FFF
FDF0000FBF
FDF0000FBF
FCF8001FBF
FCF8001F3F
FCF8001F3F
FC7C003F3F
FC7C003E3F
FC7C003E3F
FC3E007E3F
FC3E007C3F
FC3E007C3F
FC1F00F83F
FC1F00F83F
FC1F00F83F
FC0F81F03F
FC0F81F03F
FC0F81F03F
FC07C3E03F
FC07C3E03F
FC07C3E03F
FC03E7C03F
FC03E7C03F
FC03E7C03F
FC01FF803F
FC01FF803F
FC01FF803F
FC00FF003F
FC00FF003F
FC00FF003F
FC007E003F
FC007E003F
FC0000003F
FC0000003F
FC0000003F
FC0000003F
FC0000003F
FC0000003F
FC0000003F
FC0000003F
FC0000003F
ENDCHAR
STARTCHAR 004E
ENCODING 78
SWIDTH 675 0
DWIDTH 45 0
BBX 33 49 6 0
BITMAP
FF00001F80
FF80001F80
FF80001F80
FFC0001F80
FFC0001F80
FFC0001F80
FFE0001F80
FFE0001F80
FFF0001F80
FFF0001F80
FDF8001F80
FDF8001F80
FCFC001F80
FCFC001F80
FC7E001F80
FC7E001F80
FC3F001F80
FC3F001F80
FC1F801F80
FC1F801F80
FC0FC01F80
FC0FC01F80
FC07E01F80
FC07E01F80
FC07F01F80
FC03F01F80
FC03F81F80
FC01F81F80
FC01F81F80
FC00FC1F80
FC00FC1F80
FC007E1F80
FC007E1F80
FC003F1F80
FC003F1F80
FC001F9F80
FC001F9F80
FC000FDF80
FC000FDF80
FC0007FF80
FC0007FF80
FC0003FF80
FC0003FF80
FC0001FF80
FC0001FF80
FC0000FF80
FC0000FF80
FC0000FF80
FC00007F80
ENDCHAR
STARTCHAR 004F
ENCODING 79
SWIDTH 705 0
DWIDTH 47 0
BBX 41 51 3 -1
BITMAP
00003E000000
0003FFF00000
001FFFFC0000
003FFFFF0000
007FFFFF8000
01FFFFFFC000
03FF007FE000
03FC001FF000
07F80007F800
0FF00003F800
0FE00001FC00
1FC00001FC00
1FC00000FE00
3F800000FE00
3F8000007E00
3F0000007F00
7F0000003F00
7F0000003F00
7E0000003F00
7E0000003F80
7E0000003F80
7E0000001F80
FE0000001F80
FE0000001F80
FE0000001F80
FE0000001F80
FE0000001F80
FE0000001F80
FE0000001F80
7E0000001F80
7E0000003F80
7E0000003F80
7E0000003F00
7F0000003F00
7F0000003F00
3F0000007F00
3F0000007F00
3F8000007E00
1F800000FE00
1FC00001FC00
0FE00001FC00
0FE00003F800
07F00007F800
07FC000FF000
03FF003FE000
01FFF7FFC000
00FFFFFF8000
007FFFFF0000
001FFFFC0000
0007FFF00000
0000FF800000
ENDCHAR
STARTCHAR 0050
ENCODING 80
SWIDTH 540 0
DWIDTH 36 0
BBX 28 49 6 0
BITMAP
FFFF8000
FFFFF800
FFFFFE00
FFFFFF00
FFFFFF80
FFFFFFC0
FC003FC0
FC001FE0
FC000FE0
FC0007F0
FC0007F0
FC0003F0
FC0003F0
FC0003F0
FC0003F0
FC0003F0
FC0003F0
FC0003F0
FC0007F0
FC0007F0
FC0007F0
FC000FE0
FC001FE0
FC00FFC0
FFFFFFC0
FFFFFF80
FFFFFF00
FFFFFC00
FFFFF000
FC000000
FC000000
FC000000
FC000000
FC000000
FC000000
FC000000
FC000000
FC000000
FC000000
FC000000
FC000000
FC000000
FC000000
FC000000
FC000000
FC000000
FC000000
FC000000
FC000000
ENDCHAR
STARTCHAR 0051
ENCODING 81
SWIDTH 705 0
DWIDTH 47 0
BBX 41 59 3 -9
BITMAP
00003E000000
0003FFF00000
001FFFFC0000
003FFFFF0000
007FFFFF8000
01FFFFFFC000
03FF007FE000
03FC001FF000
07F80007F800
0FF00003F800
0FE00001FC00
1FC00001FC00
1FC00000FE00
3F800000FE00
3F8000007E00
3F0000007F00
7F0000003F00
7F0000003F00
7E0000003F00
7E0000003F80
7E0000003F80
7E0000001F80
FE0000001F80
FE0000001F80
FE0000001F80
FE0000001F80
FE0000001F80
FE0000001F80
FE0000001F80
7E0000001F80
7E0000003F80
7E0000003F80
7E0000003F00
7F0000003F00
7F0000003F00
3F0000007F00
3F0000007E00
3F8000007E00
1F800000FE00
1FC00001FC00
0FE00001FC00
0FE00003F800
07F00007F800
07FC000FF000
03FF003FE000
01FFF7FFC000
00FFFFFF8000
007FFFFF0000
001FFFFC0000
0007FFF80000
0000FFFC0000
000000FE0000
0000007F0000
0000007F8000
0000003FC000
0000001FC000
0000000FE000
00000007F000
00000003F800
ENDCHAR
STARTCHAR 0052
ENCODING 82
SWIDTH 630 0
DWIDTH 42 0
BBX 34 49 6 0
BITMAP
FFFFC00000
FFFFF80000
FFFFFE0000
FFFFFF0000
FFFFFF8000
FFFFFFC000
FC003FE000
FC000FE000
FC000FE000
FC0007F000
FC0007F000
FC0003F000
FC0003F000
FC0003F000
FC0003F000
FC0003F000
FC0003F000
FC0003F000
FC0007F000
FC0007E000
FC000FE000
FC001FE000
FC007FC000
FFFFFF8000
FFFFFF0000
FFFFFC0000
FFFFFC0000
FFFFFE0000
FC07FF0000
FC007F8000
FC003F8000
FC001FC000
FC000FE000
FC0007E000
FC0007F000
FC0003F000
FC0003F800
FC0001F800
FC0001F800
FC0000FC00
FC0000FC00
FC0000FE00
FC00007E00
FC00007F00
FC00003F00
FC00003F80
FC00001F80
FC00001F80
FC00000FC0
ENDCHAR
STARTCHAR 0053
ENCODING 83
SWIDTH 570 0
DWIDTH 38 0
BBX 31 51 4 -1
BITMAP
000FE000
00FFFF00
03FFFFF0
07FFFFF0
0FFFFFF0
1FFFFFF0
3FE003F0
7F800070
7F000010
7E000000
FE000000
FC000000
FC000000
FC000000
FC000000
FC000000
FC000000
FE000000
FF000000
7F800000
7FF00000
3FFE0000
1FFFF000
1FFFFE00
07FFFF80
03FFFFC0
007FFFE0
000FFFF0
00007FF8
00000FF8
000003FC
000001FC
000000FC
000000FE
000000FE
0000007E
0000007E
0000007E
0000007E
000000FE
000000FE
800000FC
E00001FC
F80003FC
FE000FF8
FFF8FFF0
FFFFFFE0
FFFFFFC0
3FFFFF80
07FFFE00
007FE000
ENDCHAR
STARTCHAR 0054
ENCODING 84
SWIDTH 555 0
DWIDTH 37 0
BBX 37 49 0 0
BITMAP
FFFFFFFFF8
FFFFFFFFF8
FFFFFFFFF8
FFFFFFFFF8
FFFFFFFFF8
FFFFFFFFF8
0001F80000
0001F80000
0001F80000
0001F80000
0001F80000
0001F80000
0001F80000
0001F80000
0001F80000
0001F80000
0001F80000
0001F80000
0001F80000
0001F80000
0001F80000
0001F80000
0001F80000
0001F80000
0001F80000
0001F80000
0001F80000
0001F80000
0001F80000
0001F80000
0001F80000
0001F80000
0001F80000
0001F80000
0001F80000
0001F80000
0001F80000
0001F80000
0001F80000
0001F80000
0001F80000
0001F80000
0001F80000
0001F80000
0001F80000
0001F80000
0001F80000
0001F80000
0001F80000
ENDCHAR
STARTCHAR 0055
ENCODING 85
SWIDTH 660 0
DWIDTH 44 0
BBX 34 50 5 -1
BITMAP
FC00000FC0
FC00000FC0
FC00000FC0
FC00000FC0
FC00000FC0
FC00000FC0
FC00000FC0
FC00000FC0
FC00000FC0
FC00000FC0
FC00000FC0
FC00000FC0
FC00000FC0
FC00000FC0
FC00000FC0
FC00000FC0
FC00000FC0
FC00000FC0
FC00000FC0
FC00000FC0
FC00000FC0
FC00000FC0
FC00000FC0
FC00000FC0
FC00000FC0
FC00000FC0
FC00000FC0
FC00000FC0
FC00000FC0
FC00000FC0
FC00000FC0
FC00000FC0
FC00000FC0
FC00000FC0
FC00000FC0
7E00001FC0
7E00001F80
7E00001F80
7E00001F80
7F00003F80
3F00003F00
3F80007F00
1FC000FE00
1FF003FE00
0FFF3FFC00
07FFFFF800
03FFFFF000
01FFFFE000
007FFF8000
000FFC0000
ENDCHAR
STARTCHAR 0056
ENCODING 86
SWIDTH 615 0
DWIDTH 41 0
BBX 40 49 1 0
BITMAP
FC0000007F
FC0000007E
FC0000007E
7E000000FE
7E000000FC
7E000000FC
3F000001FC
3F000001F8
3F000001F8
1F800003F8
1F800003F0
1FC00003F0
0FC00007F0
0FC00007E0
0FE00007E0
07E0000FE0
07E0000FC0
07F0000FC0
03F0001F80
03F0001F80
03F8001F80
01F8003F00
01F8003F00
01FC003F00
00FC007E00
00FC007E00
007E007E00
007E00FC00
007E00FC00
003F00FC00
003F01F800
003F01F800
001F81F800
001F83F000
001F83F000
000FC3F000
000FC7E000
000FC7E000
0007E7E000
0007EFC000
0007EFC000
0003FFC000
0003FF8000
0003FF8000
0001FF8000
0001FF0000
0001FF0000
0000FF0000
0000FE0000
ENDCHAR
STARTCHAR 0057
ENCODING 87
SWIDTH 900 0
DWIDTH 60 0
BBX 56 49 2 0
BITMAP
FC0000FE00003F
FC0000FE00007E
7E0000FF00007E
7E0000FF00007E
7E0001FF00007E
7E0001FF0000FC
7E0001FF8000FC
3F0001FF8000FC
3F0001EF8000FC
3F0003E78000FC
3F0003E78001F8
1F8003E7C001F8
1F8003E7C001F8
1F8007C7C001F8
1F8007C3C003F0
1F8007C3E003F0
0FC007C3E003F0
0FC00783E003F0
0FC00F83E003F0
0FC00F81E007E0
07E00F81F007E0
07E00F81F007E0
07E01F01F007E0
07E01F00F00FC0
07E01F00F80FC0
03F01F00F80FC0
03F01E00F80FC0
03F03E00F81F80
03F03E007C1F80
01F83E007C1F80
01F83E007C1F80
01F87C007C1F80
01F87C003C3F00
00F87C003E3F00
00FC7C003E3F00
00FC78003E3F00
00FCF8003E7E00
00FCF8001F7E00
007EF8001F7E00
007EF8001F7E00
007FF0001F7E00
007FF0001FFC00
003FF0000FFC00
003FF0000FFC00
003FE0000FFC00
003FE0000FF800
003FE00007F800
001FE00007F800
001FE00007F800
ENDCHAR
STARTCHAR 0058
ENCODING 88
SWIDTH 615 0
DWIDTH 41 0
BBX 37 49 2 0
BITMAP
3F000003F0
1F800007F0
1FC00007E0
0FC0000FC0
0FE0001FC0
07E0001F80
03F0003F80
03F8003F00
01F8007E00
01FC00FE00
00FC00FC00
007E01FC00
007F01F800
003F03F000
003F87F000
001F87E000
000FCFE000
000FEFC000
0007FF8000
0007FF8000
0003FF0000
0001FF0000
0001FE0000
0001FC0000
0001FE0000
0003FE0000
0007FF0000
0007FF8000
000FFF8000
000FDFC000
001F8FC000
003F87E000
003F07F000
007F03F000
007E03F800
00FC01F800
01FC00FC00
01F800FE00
03F8007E00
07F0007F00
07E0003F00
0FE0001F80
0FC0001FC0
1FC0000FC0
3F80000FE0
3F000007E0
7F000003F0
7E000003F8
FE000001F8
ENDCHAR
STARTCHAR 0059
ENCODING 89
SWIDTH 555 0
DWIDTH 37 0
BBX 37 49 0 0
BITMAP
FE000003F8
7E000003F0
7F000007F0
3F000007E0
1F80000FC0
1FC0001FC0
0FC0001F80
0FE0003F80
07E0003F00
03F0007E00
03F800FE00
01F800FC00
01FC01FC00
00FC01F800
007E03F000
007F07F000
003F07E000
003F8FC000
001F8FC000
000FDF8000
000FFF8000
0007FF0000
0003FE0000
0003FE0000
0001FC0000
0001FC0000
0001F80000
0001F80000
0001F80000
0001F80000
0001F80000
0001F80000
0001F80000
0001F80000
0001F80000
0001F80000
0001F80000
0001F80000
0001F80000
0001F80000
0001F80000
0001F80000
0001F80000
0001F80000
0001F80000
0001F80000
0001F80000
0001F80000
0001F80000
ENDCHAR
STARTCHAR 005A
ENCODING 90
SWIDTH 615 0
DWIDTH 41 0
BBX 36 49 3 0
BITMAP
FFFFFFFFE0
FFFFFFFFE0
FFFFFFFFE0
FFFFFFFFE0
FFFFFFFFE0
FFFFFFFFE0
0000001FC0
0000003F80
0000007F80
0000007F00
000000FE00
000001FC00
000001FC00
000003F800
000007F000
00000FE000
00000FE000
00001FC000
00003F8000
00007F8000
00007F0000
0000FE0000
0001FC0000
0001FC0000
0003F80000
0007F00000
000FE00000
000FE00000
001FC00000
003F800000
007F800000
007F000000
00FE000000
01FC000000
01FC000000
03F8000000
07F0000000
0FE0000000
0FE0000000
1FC0000000
3F80000000
7F80000000
7F00000000
FFFFFFFFF0
FFFFFFFFF0
FFFFFFFFF0
FFFFFFFFF0
FFFFFFFFF0
FFFFFFFFF0
ENDCHAR
STARTCHAR 005B
ENCODING 91
SWIDTH 360 0
DWIDTH 24 0
BBX 13 60 5 -9
BITMAP
FFF8
FFF8
FFF8
FFF8
FFF8
FC00
FC00
FC00
FC00
FC00
FC00
FC00
FC00
FC00
FC00
FC00
FC00
FC00
FC00
FC00
FC00
FC00
FC00
FC00
FC00
FC00
FC00
FC00
FC00
FC00
FC00
FC00
FC00
FC00
FC00
FC00
FC00
FC00
FC00
FC00
FC00
FC00
FC00
FC00
FC00
FC00
FC00
FC00
FC00
FC00
FC00
FC00
FC00
FC00
FC00
FFF8
FFF8
FFF8
FFF8
FFF8
ENDCHAR
STARTCHAR 005C
ENCODING 92
SWIDTH 300 0
DWIDTH 20 0
BBX 20 55 0 -6
BITMAP
F80000
F80000
7C0000
7C0000
7C0000
7C0000
3E0000
3E0000
3E0000
1F0000
1F0000
1F0000
1F0000
0F8000
0F8000
0F8000
07C000
07C000
07C000
07C000
03E000
03E000
03E000
03E000
01F000
01F000
01F000
00F800
00F800
00F800
00F800
007C00
007C00
007C00
003E00
003E00
003E00
003E00
001F00
001F00
001F00
001F00
000F80
000F80
000F80
0007C0
0007C0
0007C0
0007C0
0003E0
0003E0
0003E0
0001F0
0001F0
0001F0
ENDCHAR
STARTCHAR 005D
ENCODING 93
SWIDTH 360 0
DWIDTH 24 0
BBX 12 60 6 -9
BITMAP
FFF0
FFF0
FFF0
FFF0
FFF0
01F0
01F0
01F0
01F0
01F0
01F0
01F0
01F0
01F0
01F0
01F0
01F0
01F0
01F0
01F0
01F0
01F0
01F0
01F0
01F0
01F0
01F0
01F0
01F0
01F0
01F0
01F0
01F0
01F0
01F0
01F0
01F0
01F0
01F0
01F0
01F0
01F0
01F0
01F0
01F0
01F0
01F0
01F0
01F0
01F0
01F0
01F0
01F0
01F0
01F0
FFF0
FFF0
FFF0
FFF0
FFF0
ENDCHAR
STARTCHAR 005E
ENCODING 94
SWIDTH 765 0
DWIDTH 51 0
BBX 37 18 7 31
BITMAP
0001F80000
0003FC0000
0007FE0000
000FFF0000
000FFF8000
001FFFC000
003F9FE000
007F0FF000
00FE07F000
01FC03F800
03F801FC00
07F000FE00
07E0007F00
0FC0003F80
1F80001FC0
3F00000FE0
7E000007E0
FC000003F8
ENDCHAR
STARTCHAR 005F
ENCODING 95
SWIDTH 450 0
DWIDTH 30 0
BBX 32 5 -1 -16
BITMAP
FFFFFFFF
FFFFFFFF
FFFFFFFF
FFFFFFFF
FFFFFFFF
ENDCHAR
STARTCHAR 0060
ENCODING 96
SWIDTH 450 0
DWIDTH 30 0
BBX 14 13 5 41
BITMAP
FC00
7E00
3E00
3F00
1F80
0F80
07C0
03E0
03E0
01F0
00F8
0078
007C
ENDCHAR
STARTCHAR 0061
ENCODING 97
SWIDTH 555 0
DWIDTH 37 0
BBX 27 39 4 -1
BITMAP
00040000
03FFE000
1FFFFC00
3FFFFE00
3FFFFF00
3FFFFF80
3E007F80
30001FC0
00000FC0
000007C0
000007E0
000003E0
000003E0
000003E0
000003E0
007FFFE0
03FFFFE0
0FFFFFE0
1FFFFFE0
3FFFFFE0
7F8003E0
7E0003E0
FC0003E0
FC0003E0
F80003E0
F80003E0
F80007E0
F80007E0
F8000FE0
F8000FE0
FC001FE0
FC003FE0
FE007FE0
7FC1FBE0
3FFFFBE0
3FFFF3E0
1FFFE3E0
07FF83E0
01FE0000
ENDCHAR
STARTCHAR 0062
ENCODING 98
SWIDTH 570 0
DWIDTH 38 0
BBX 30 52 5 -1
BITMAP
FC000000
FC000000
FC000000
FC000000
FC000000
FC000000
FC000000
FC000000
FC000000
FC000000
FC000000
FC000000
FC000000
FC008000
FC1FF800
FC3FFE00
FCFFFF00
FDFFFF80
FDFFFFC0
FFE01FE0
FFC00FE0
FF8007F0
FF0003F0
FF0001F8
FE0001F8
FE0001F8
FE0000F8
FC0000FC
FC0000FC
FC0000FC
FC0000FC
FC0000FC
FC0000FC
FC0000FC
FC0000FC
FC0000FC
FC0000FC
FC0000FC
FC0000F8
FE0001F8
FE0001F8
FE0001F8
FF0003F0
FF8003F0
FF8007F0
FFE00FE0
FFF83FC0
FDFFFFC0
FCFFFF80
FC7FFF00
FC3FFC00
0007F000
ENDCHAR
STARTCHAR 0063
ENCODING 99
SWIDTH 495 0
DWIDTH 33 0
BBX 26 38 3 0
BITMAP
001FFE00
007FFFC0
01FFFFC0
03FFFFC0
07FFFFC0
0FF003C0
1FE00040
1FC00000
3F800000
3F000000
7F000000
7E000000
7E000000
7E000000
7C000000
FC000000
FC000000
FC000000
FC000000
FC000000
FC000000
FC000000
7C000000
7C000000
7E000000
7E000000
7E000000
3F000000
3F000000
1F800000
1FC00000
0FF000C0
0FFC0FC0
07FFFFC0
03FFFFC0
00FFFFC0
003FFF00
000FF800
ENDCHAR
STARTCHAR 0064
ENCODING 100
SWIDTH 570 0
DWIDTH 38 0
BBX 30 52 3 -1
BITMAP
000000FC
000000FC
000000FC
000000FC
000000FC
000000FC
000000FC
000000FC
000000FC
000000FC
000000FC
000000FC
000000FC
000000FC
007FE0FC
01FFF8FC
03FFFCFC
07FFFEFC
0FFFFFFC
0FE01FFC
1FC00FFC
3F8007FC
3F0003FC
3F0001FC
7E0001FC
7E0001FC
7E0000FC
7C0000FC
7C0000FC
FC0000FC
FC0000FC
FC0000FC
FC0000FC
FC0000FC
FC0000FC
FC0000FC
7C0000FC
7C0000FC
7E0000FC
7E0000FC
7E0001FC
3E0001FC
3F0003FC
3F8003FC
1F8007FC
1FE00FFC
0FF83FFC
07FFFEFC
03FFFCFC
01FFF8FC
00FFF0FC
001F8000
ENDCHAR
STARTCHAR 0065
ENCODING 101
SWIDTH 555 0
DWIDTH 37 0
BBX 31 39 3 -1
BITMAP
00008000
001FFC00
00FFFF00
01FFFF80
03FFFFC0
07FFFFE0
0FF00FF0
1FC003F8
1F8001F8
3F0000F8
3F0000FC
3E00007C
7E00007C
7E00007E
7C00007E
7C00007E
FFFFFFFE
FFFFFFFE
FFFFFFFE
FFFFFFFE
FFFFFFFE
FC000000
FC000000
7C000000
7C000000
7E000000
7E000000
7E000000
3F000000
3F000000
1F800004
1FC0000C
0FF0007C
07FE03FC
03FFFFFC
01FFFFFC
00FFFFF8
003FFFC0
0007FC00
ENDCHAR
STARTCHAR 0066
ENCODING 102
SWIDTH 315 0
DWIDTH 21 0
BBX 21 51 1 0
BITMAP
000FF8
003FF8
00FFF8
00FFF8
01FFF8
01FC00
03F000
03F000
03E000
03E000
03E000
03E000
03E000
03E000
FFFFF0
FFFFF0
FFFFF0
FFFFF0
FFFFF0
03E000
03E000
03E000
03E000
03E000
03E000
03E000
03E000
03E000
03E000
03E000
03E000
03E000
03E000
03E000
03E000
03E000
03E000
03E000
03E000
03E000
03E000
03E000
03E000
03E000
03E000
03E000
03E000
03E000
03E000
03E000
03E000
ENDCHAR
STARTCHAR 0067
ENCODING 103
SWIDTH 570 0
DWIDTH 38 0
BBX 30 51 3 -13
BITMAP
007FE0FC
01FFF8FC
03FFFCFC
07FFFEFC
0FFFFFFC
1FE01FFC
1FC007FC
3F8007FC
3F0003FC
3F0001FC
7E0001FC
7E0001FC
7E0000FC
7C0000FC
7C0000FC
FC0000FC
FC0000FC
FC0000FC
FC0000FC
FC0000FC
FC0000FC
FC0000FC
7C0000FC
7C0000FC
7E0000FC
7E0001FC
7E0001FC
3F0003FC
3F0003FC
1F8007FC
1FC00FFC
0FF03FFC
0FFFFEFC
07FFFCFC
03FFF8FC
00FFF0FC
003FC0FC
000000F8
000000F8
000000F8
000001F8
000001F8
000003F0
080007F0
0E000FE0
0FC07FE0
0FFFFFC0
0FFFFF80
0FFFFF00
03FFFC00
003FE000
ENDCHAR
STARTCHAR 0068
ENCODING 104
SWIDTH 570 0
DWIDTH 38 0
BBX 28 51 5 0
BITMAP
FC000000
FC000000
FC000000
FC000000
FC000000
FC000000
FC000000
FC000000
FC000000
FC000000
FC000000
FC000000
FC000000
FC008000
FC0FFC00
FC3FFE00
FC7FFF00
FCFFFF80
FDFFFFC0
FFE01FC0
FFC00FE0
FF8007E0
FF0007E0
FE0003F0
FE0003F0
FE0003F0
FC0001F0
FC0001F0
FC0001F0
FC0001F0
FC0001F0
FC0001F0
FC0001F0
FC0001F0
FC0001F0
FC0001F0
FC0001F0
FC0001F0
FC0001F0
FC0001F0
FC0001F0
FC0001F0
FC0001F0
FC0001F0
FC0001F0
FC0001F0
FC0001F0
FC0001F0
FC0001F0
FC0001F0
FC0001F0
ENDCHAR
STARTCHAR 0069
ENCODING 105
SWIDTH 255 0
DWIDTH 17 0
BBX 5 51 6 0
BITMAP
F8
F8
F8
F8
F8
F8
F8
F8
00
00
00
00
00
00
F8
F8
F8
F8
F8
F8
F8
F8
F8
F8
F8
F8
F8
F8
F8
F8
F8
F8
F8
F8
F8
F8
F8
F8
F8
F8
F8
F8
F8
F8
F8
F8
F8
F8
F8
F8
F8
ENDCHAR
STARTCHAR 006A
ENCODING 106
SWIDTH 255 0
DWIDTH 17 0
BBX 12 65 -1 -14
BITMAP
01F0
01F0
01F0
01F0
01F0
01F0
01F0
01F0
0000
0000
0000
0000
0000
0000
01F0
01F0
01F0
01F0
01F0
01F0
01F0
01F0
01F0
01F0
01F0
01F0
01F0
01F0
01F0
01F0
01F0
01F0
01F0
01F0
01F0
01F0
01F0
01F0
01F0
01F0
01F0
01F0
01F0
01F0
01F0
01F0
01F0
01F0
01F0
01F0
01F0
01F0
01F0
01F0
01F0
03F0
03F0
03F0
07E0
0FE0
FFE0
FFC0
FF80
FF00
FC00
ENDCHAR
STARTCHAR 006B
ENCODING 107
SWIDTH 525 0
DWIDTH 35 0
BBX 29 51 5 0
BITMAP
FC000000
FC000000
FC000000
FC000000
FC000000
FC000000
FC000000
FC000000
FC000000
FC000000
FC000000
FC000000
FC000000
FC000000
FC0003F8
FC0007F0
FC000FE0
FC001FC0
FC003F80
FC007F00
FC00FE00
FC01FC00
FC03F800
FC07F000
FC0FE000
FC1FC000
FC3F8000
FC7F0000
FCFE0000
FDFC0000
FFF80000
FFF00000
FFF00000
FFF80000
FDFC0000
FCFE0000
FC7F0000
FC3F8000
FC1FC000
FC0FE000
FC07F000
FC03F800
FC01FC00
FC00FE00
FC007F00
FC003F80
FC003FC0
FC001FC0
FC000FE0
FC0007F0
FC0003F8
ENDCHAR
STARTCHAR 006C
ENCODING 108
SWIDTH 255 0
DWIDTH 17 0
BBX 5 51 6 0
BITMAP
F8
F8
F8
F8
F8
F8
F8
F8
F8
F8
F8
F8
F8
F8
F8
F8
F8
F8
F8
F8
F8
F8
F8
F8
F8
F8
F8
F8
F8
F8
F8
F8
F8
F8
F8
F8
F8
F8
F8
F8
F8
F8
F8
F8
F8
F8
F8
F8
F8
F8
F8
ENDCHAR
STARTCHAR 006D
ENCODING 109
SWIDTH 885 0
DWIDTH 59 0
BBX 49 38 5 0
BITMAP
00008000000000
FC1FF8007FC000
FC3FFE01FFF000
FC7FFF03FFF800
FCFFFF07FFFC00
FDFFFF8FFFFC00
FFE03FDF80FE00
FFC00FDE007E00
FF800FFC003F00
FF0007F8003F00
FE0007F8003F00
FE0007F0001F00
FE0003F0001F00
FC0003F0001F80
FC0003E0001F80
FC0003E0001F80
FC0003E0001F80
FC0003E0001F80
FC0003E0001F80
FC0003E0001F80
FC0003E0001F80
FC0003E0001F80
FC0003E0001F80
FC0003E0001F80
FC0003E0001F80
FC0003E0001F80
FC0003E0001F80
FC0003E0001F80
FC0003E0001F80
FC0003E0001F80
FC0003E0001F80
FC0003E0001F80
FC0003E0001F80
FC0003E0001F80
FC0003E0001F80
FC0003E0001F80
FC0003E0001F80
FC0003E0001F80
ENDCHAR
STARTCHAR 006E
ENCODING 110
SWIDTH 570 0
DWIDTH 38 0
BBX 28 38 5 0
BITMAP
00008000
FC0FFC00
FC3FFE00
FC7FFF00
FCFFFF80
FDFFFFC0
FFE01FC0
FFC00FE0
FF8007E0
FF0007E0
FE0003F0
FE0003F0
FE0003F0
FC0001F0
FC0001F0
FC0001F0
FC0001F0
FC0001F0
FC0001F0
FC0001F0
FC0001F0
FC0001F0
FC0001F0
FC0001F0
FC0001F0
FC0001F0
FC0001F0
FC0001F0
FC0001F0
FC0001F0
FC0001F0
FC0001F0
FC0001F0
FC0001F0
FC0001F0
FC0001F0
FC0001F0
FC0001F0
ENDCHAR
STARTCHAR 006F
ENCODING 111
SWIDTH 555 0
DWIDTH 37 0
BBX 31 39 3 -1
BITMAP
00010000
003FF800
00FFFE00
03FFFF80
07FFFFC0
0FFFFFC0
0FF01FE0
1FC007F0
1F8003F0
3F0003F8
3F0001F8
7E0001FC
7E0000FC
7E0000FC
7E0000FC
7C00007C
FC00007C
FC00007E
FC00007E
FC00007E
FC00007E
FC00007E
FC00007C
7C00007C
7C0000FC
7E0000FC
7E0000FC
7E0000FC
3F0001F8
3F0001F8
3F8003F8
1FC007F0
1FE00FE0
0FF83FE0
07FFFFC0
03FFFF80
01FFFF00
007FFC00
000FE000
ENDCHAR
STARTCHAR 0070
ENCODING 112
SWIDTH 570 0
DWIDTH 38 0
BBX 30 52 5 -14
BITMAP
00008000
FC1FF800
FC3FFE00
FCFFFF00
FDFFFF80
FDFFFFC0
FFE01FE0
FFC00FE0
FF8007F0
FF0003F0
FF0001F8
FE0001F8
FE0001F8
FE0000F8
FC0000FC
FC0000FC
FC0000FC
FC0000FC
FC0000FC
FC0000FC
FC0000FC
FC0000FC
FC0000FC
FC0000FC
FC0000FC
FC0000F8
FE0001F8
FE0001F8
FE0001F8
FF0003F0
FF8003F0
FF8007F0
FFE00FE0
FFF83FC0
FDFFFFC0
FCFFFF80
FC7FFF00
FC3FFC00
FC07F000
FC000000
FC000000
FC000000
FC000000
FC000000
FC000000
FC000000
FC000000
FC000000
FC000000
FC000000
FC000000
FC000000
ENDCHAR
STARTCHAR 0071
ENCODING 113
SWIDTH 570 0
DWIDTH 38 0
BBX 30 51 3 -13
BITMAP
007FE0FC
01FFF8FC
03FFFCFC
07FFFEFC
0FFFFFFC
0FE01FFC
1FC00FFC
3F8007FC
3F0003FC
3F0001FC
7E0001FC
7E0001FC
7E0000FC
7C0000FC
7C0000FC
FC0000FC
FC0000FC
FC0000FC
FC0000FC
FC0000FC
FC0000FC
FC0000FC
7C0000FC
7C0000FC
7E0000FC
7E0000FC
7E0001FC
3E0001FC
3F0003FC
3F8003FC
1F8007FC
1FE00FFC
0FF83FFC
07FFFEFC
03FFFCFC
01FFF8FC
00FFF0FC
001F80FC
000000FC
000000FC
000000FC
000000FC
000000FC
000000FC
000000FC
000000FC
000000FC
000000FC
000000FC
000000FC
000000FC
ENDCHAR
STARTCHAR 0072
ENCODING 114
SWIDTH 375 0
DWIDTH 25 0
BBX 20 37 5 1
BITMAP
FC0FF0
FC3FF0
FC7FF0
FCFFF0
FDFFF0
FFF010
FFC000
FF8000
FF0000
FF0000
FE0000
FE0000
FC0000
FC0000
FC0000
FC0000
FC0000
FC0000
FC0000
FC0000
FC0000
FC0000
FC0000
FC0000
FC0000
FC0000
FC0000
FC0000
FC0000
FC0000
FC0000
FC0000
FC0000
FC0000
FC0000
FC0000
FC0000
ENDCHAR
STARTCHAR 0073
ENCODING 115
SWIDTH 465 0
DWIDTH 31 0
BBX 25 39 3 -1
BITMAP
00040000
01FFF800
07FFFF00
0FFFFF00
1FFFFF00
3FFFFF00
7F000F00
7E000300
7C000000
7C000000
FC000000
FC000000
7C000000
7C000000
7E000000
7F800000
3FF80000
3FFF8000
1FFFE000
07FFF800
01FFFE00
003FFF00
0003FF00
0000FF80
00003F80
00001F80
00000F80
00000F80
00000F80
00000F80
00001F80
C0001F80
F8003F80
FF01FF00
FFFFFE00
FFFFFC00
FFFFF800
1FFFE000
01FF0000
ENDCHAR
STARTCHAR 0074
ENCODING 116
SWIDTH 360 0
DWIDTH 24 0
BBX 20 47 2 0
BITMAP
0F8000
0F8000
0F8000
0F8000
0F8000
0F8000
0F8000
0F8000
0F8000
0F8000
FFFFF0
FFFFF0
FFFFF0
FFFFF0
FFFFF0
0F8000
0F8000
0F8000
0F8000
0F8000
0F8000
0F8000
0F8000
0F8000
0F8000
0F8000
0F8000
0F8000
0F8000
0F8000
0F8000
0F8000
0F8000
0F8000
0F8000
0F8000
0F8000
0F8000
0F8000
0FC000
0FC000
0FE000
07FFF0
07FFF0
03FFF0
01FFF0
003FF0
ENDCHAR
STARTCHAR 0075
ENCODING 117
SWIDTH 570 0
DWIDTH 38 0
BBX 28 38 5 0
BITMAP
FC0003F0
FC0003F0
FC0003F0
FC0003F0
FC0003F0
FC0003F0
FC0003F0
FC0003F0
FC0003F0
FC0003F0
FC0003F0
FC0003F0
FC0003F0
FC0003F0
FC0003F0
FC0003F0
FC0003F0
FC0003F0
FC0003F0
FC0003F0
FC0003F0
FC0003F0
FC0003F0
FC0003F0
FC0003F0
FC0003F0
FC0007F0
7C0007F0
7C0007F0
7E000FF0
7F001FF0
3F803FF0
3FE1FFF0
1FFFFBF0
1FFFF3F0
0FFFE3F0
03FF83F0
00FE0000
ENDCHAR
STARTCHAR 0076
ENCODING 118
SWIDTH 540 0
DWIDTH 36 0
BBX 32 37 2 0
BITMAP
FC00003F
FC00003F
7C00007E
7E00007E
7E00007E
3E0000FC
3F0000FC
3F0000F8
1F0001F8
1F8001F8
1F8001F0
0F8003F0
0FC003F0
0FC003E0
07C007E0
07E007E0
07E007C0
03E00FC0
03F00FC0
03F00F80
01F01F80
01F81F80
01F81F00
00F83F00
00FC3F00
00FC3E00
007C7E00
007E7E00
007E7C00
003EFC00
003FFC00
003FF800
001FF800
001FF800
001FF000
000FF000
000FF000
ENDCHAR
STARTCHAR 0077
ENCODING 119
SWIDTH 735 0
DWIDTH 49 0
BBX 44 37 3 0
BITMAP
F8003F8003F0
F8003F8003F0
F8003F8003E0
FC003FC003E0
FC007FC007E0
7C007FC007E0
7C007FC007C0
7E007FE007C0
7E007BE00FC0
3E00FBE00FC0
3E00FBE00F80
3F00F9E00F80
3F00F1F01F80
1F01F1F01F80
1F01F1F01F00
1F81F0F01F00
1F81E0F81F00
0F83E0F83F00
0F83E0F83F00
0F83E0783E00
0FC3C07C3E00
0FC7C07C7E00
07C7C07C7E00
07C7C03C7C00
07E7C03E7C00
07E7803EFC00
03EF803EFC00
03EF801EF800
03FF801FF800
03FF001FF800
01FF001FF800
01FF001FF000
01FF000FF000
01FE000FF000
00FE000FF000
00FE000FF000
00FE0007E000
ENDCHAR
STARTCHAR 0078
ENCODING 120
SWIDTH 540 0
DWIDTH 36 0
BBX 31 37 2 0
BITMAP
7E00007E
3F0000FC
3F8001FC
1F8001F8
0FC003F0
0FE007F0
07E007E0
03F00FC0
03F81FC0
01F81F80
00FC3F00
00FE7F00
007E7E00
003FFC00
003FFC00
001FF800
000FF000
000FF000
000FE000
001FF000
001FF800
003FF800
007FFC00
007EFE00
00FC7E00
01FC3F00
01F83F80
03F01F80
07F00FC0
07E00FE0
0FC007E0
1FC003F0
1F8003F8
3F0001F8
7F0000FC
7E0000FE
FC00007E
ENDCHAR
STARTCHAR 0079
ENCODING 121
SWIDTH 540 0
DWIDTH 36 0
BBX 32 51 2 -14
BITMAP
FC00003F
FC00003E
7C00007E
7E00007E
7E00007C
3E0000FC
3F0000FC
3F0000F8
1F0001F8
1F8001F8
0F8003F0
0FC003F0
0FC003F0
07C007E0
07E007E0
07E007C0
03E00FC0
03F00FC0
01F00F80
01F01F80
01F81F80
00F81F00
00F83F00
00FC3F00
007C7E00
007E7E00
007E7C00
003EFC00
003FFC00
001FF800
001FF800
001FF800
000FF000
000FF000
000FF000
0007E000
0007E000
0007C000
000FC000
000FC000
000F8000
001F8000
001F8000
003F0000
003F0000
00FE0000
1FFE0000
1FFC0000
1FF80000
1FF00000
1FC00000
ENDCHAR
STARTCHAR 007A
ENCODING 122
SWIDTH 480 0
DWIDTH 32 0
BBX 26 37 3 0
BITMAP
FFFFFFC0
FFFFFFC0
FFFFFFC0
FFFFFFC0
FFFFFFC0
00000FC0
00001FC0
00003F80
00007F00
00007E00
0000FC00
0001FC00
0003F800
0003F000
0007E000
000FE000
001FC000
003F8000
003F0000
007F0000
00FE0000
01FC0000
01F80000
03F00000
07F00000
0FE00000
1FC00000
1F800000
3F800000
7F000000
FE000000
FC000000
FFFFFFC0
FFFFFFC0
FFFFFFC0
FFFFFFC0
FFFFFFC0
ENDCHAR
STARTCHAR 007B
ENCODING 123
SWIDTH 570 0
DWIDTH 38 0
BBX 23 62 8 -11
BITMAP
0000FE
0007FE
001FFE
003FFE
003FFE
007F00
007E00
007E00
007C00
007C00
007C00
007C00
007C00
007C00
007C00
007C00
007C00
007C00
007C00
007C00
007C00
007C00
007C00
00FC00
00FC00
00FC00
01F800
03F800
3FF000
FFE000
FFC000
FFC000
FFE000
1FF000
03F800
01F800
00FC00
00FC00
00FC00
007C00
007C00
007C00
007C00
007C00
007C00
007C00
007C00
007C00
007C00
007C00
007C00
007C00
007C00
007C00
007E00
007E00
007F00
003FFE
003FFE
001FFE
0007FE
0000FE
ENDCHAR
STARTCHAR 007C
ENCODING 124
SWIDTH 300 0
DWIDTH 20 0
BBX 5 67 8 -16
BITMAP
F8
F8
F8
F8
F8
F8
F8
F8
F8
F8
F8
F8
F8
F8
F8
F8
F8
F8
F8
F8
F8
F8
F8
F8
F8
F8
F8
F8
F8
F8
F8
F8
F8
F8
F8
F8
F8
F8
F8
F8
F8
F8
F8
F8
F8
F8
F8
F8
F8
F8
F8
F8
F8
F8
F8
F8
F8
F8
F8
F8
F8
F8
F8
F8
F8
F8
F8
ENDCHAR
STARTCHAR 007D
ENCODING 125
SWIDTH 570 0
DWIDTH 38 0
BBX 23 62 8 -11
BITMAP
FC0000
FFC000
FFE000
FFF000
FFF000
03F800
01F800
00F800
00F800
00FC00
00FC00
00FC00
00FC00
00FC00
00FC00
00FC00
00FC00
00FC00
00FC00
00FC00
00FC00
00FC00
00FC00
00FC00
00FC00
007C00
007E00
007F00
003FF0
001FFE
0007FE
0007FE
001FFE
003FE0
007F00
007E00
007C00
00FC00
00FC00
00FC00
00FC00
00FC00
00FC00
00FC00
00FC00
00FC00
00FC00
00FC00
00FC00
00FC00
00FC00
00FC00
00FC00
00F800
00F800
01F800
03F800
FFF000
FFF000
FFE000
FFC000
FC0000
ENDCHAR
STARTCHAR 007E
ENCODING 126
SWIDTH 765 0
DWIDTH 51 0
BBX 38 11 6 16
BITMAP
00FE000004
07FFC0001C
0FFFF0003C
3FFFFE00FC
7FFFFFFFFC
FFFFFFFFFC
FC00FFFFF0
F0003FFFE0
E00007FF80
C00000FC00
8000000000
ENDCHAR
STARTCHAR 00A0
ENCODING 160
SWIDTH 285 0
DWIDTH 19 0
BBX 0 0 0 0
BITMAP
ENDCHAR
STARTCHAR 00A1
ENCODING 161
SWIDTH 360 0
DWIDTH 24 0
BBX 6 49 9 -12
BITMAP
FC
FC
FC
FC
FC
FC
FC
FC
FC
00
00
00
00
00
00
00
7C
7C
7C
7C
FC
FC
FC
FC
FC
FC
FC
FC
FC
FC
FC
FC
FC
FC
FC
FC
FC
FC
FC
FC
FC
FC
FC
FC
FC
FC
FC
FC
FC
ENDCHAR
STARTCHAR 00A2
ENCODING 162
SWIDTH 570 0
DWIDTH 38 0
BBX 26 57 5 -10
BITMAP
0001C000
0001C000
0001C000
0001C000
0001C000
0001C000
0001C000
0001C000
0001C000
0001C000
001FFE00
00FFFFC0
01FFFFC0
03FFFFC0
07FFFFC0
0FF1C3C0
1FC1C040
3F81C000
3F81C000
3F01C000
7E01C000
7E01C000
7E01C000
FC01C000
FC01C000
FC01C000
FC01C000
FC01C000
FC01C000
FC01C000
FC01C000
FC01C000
FC01C000
FC01C000
7C01C000
7E01C000
7E01C000
7F01C000
3F01C000
3F81C000
1FC1C040
1FE1C1C0
0FFDCFC0
07FFFFC0
03FFFFC0
00FFFFC0
003FFF00
0007F800
0001C000
0001C000
0001C000
0001C000
0001C000
0001C000
0001C000
0001C000
0001C000
ENDCHAR
STARTCHAR 00A3
ENCODING 163
SWIDTH 570 0
DWIDTH 38 0
BBX 29 50 4 0
BITMAP
00007C00
0007FFC0
000FFFF0
001FFFF0
003FFFF0
007FFFF0
00FF0070
00FE0010
00FC0000
01FC0000
01F80000
01F80000
01F80000
01F80000
01F80000
01F80000
01F80000
01F80000
01F80000
01F80000
01F80000
01F80000
01F80000
01F80000
01F80000
7FFFFF00
7FFFFF00
7FFFFF00
7FFFFF00
01F80000
01F80000
01F80000
01F80000
01F80000
01F80000
01F80000
01F80000
01F80000
01F80000
01F80000
01F80000
01F80000
01F80000
01F80000
FFFFFFF8
FFFFFFF8
FFFFFFF8
FFFFFFF8
FFFFFFF8
FFFFFFF8
ENDCHAR
STARTCHAR 00A4
ENCODING 164
SWIDTH 570 0
DWIDTH 38 0
BBX 33 36 3 3
BITMAP
1000000400
3800000E00
7C00001F00
FE00003F80
7E07E07F00
3F1FFCFE00
3FFFFFFC00
1FFFFFF800
0FFFFFF000
07FC3FE000
03F00FE000
07E003E000
07C003F000
0F8001F000
0F8000F000
0F8000F800
0F0000F800
0F0000F800
0F0000F800
0F0000F800
0F8000F800
0F8000F000
0F8001F000
07C003F000
07E003E000
03F00FE000
07FC3FE000
0FFFFFF000
1FFFFFF800
1FFFFFFC00
3F1FFCFE00
7E07E07F00
FE00003F80
7C00001F00
7800000E00
3000000400
ENDCHAR
STARTCHAR 00A5
ENCODING 165
SWIDTH 570 0
DWIDTH 38 0
BBX 33 49 3 0
BITMAP
F800001F80
FC00001F00
7C00003F00
7E00003E00
3E00007E00
3F00007C00
1F0000FC00
1F8000F800
1F8001F800
0FC001F000
0FC003F000
07E003E000
07E007E000
03F007C000
03F00FC000
01F00F8000
01F81F8000
00F81F0000
00FC3F0000
7FFC3FFE00
7FFE7FFE00
7FFE7FFE00
7FFFFFFE00
001FF80000
001FF80000
000FF80000
000FF00000
0007F00000
0007E00000
0007E00000
7FFFFFFE00
7FFFFFFE00
7FFFFFFE00
7FFFFFFE00
0007E00000
0007E00000
0007E00000
0007E00000
0007E00000
0007E00000
0007E00000
0007E00000
0007E00000
0007E00000
0007E00000
0007E00000
0007E00000
0007E00000
0007E00000
ENDCHAR
STARTCHAR 00A6
ENCODING 166
SWIDTH 300 0
DWIDTH 20 0
BBX 5 58 8 -11
BITMAP
F8
F8
F8
F8
F8
F8
F8
F8
F8
F8
F8
F8
F8
F8
F8
F8
F8
F8
F8
F8
F8
F8
F8
F8
F8
00
00
00
00
00
00
00
00
00
F8
F8
F8
F8
F8
F8
F8
F8
F8
F8
F8
F8
F8
F8
F8
F8
F8
F8
F8
F8
F8
F8
F8
F8
ENDCHAR
STARTCHAR 00A7
ENCODING 167
SWIDTH 450 0
DWIDTH 30 0
BBX 24 56 3 -6
BITMAP
003E00
01FFF0
07FFF8
0FFFF8
1FFFF8
1FC0F8
3F0018
3F0000
3E0000
3E0000
3E0000
3E0000
3F0000
3F8000
1FC000
0FE000
0FF800
0FFC00
1FFF00
3FFFC0
7E3FE0
7C0FF0
F807F8
F803FC
F800FE
F0007E
F8003F
F8001F
F8001F
FC001F
7E000F
7F000F
3FC01F
1FE01F
0FF83E
07FC7E
01FFFC
00FFF8
003FE0
001FF0
0007F0
0003F8
0001FC
0000FC
0000FC
00007C
00007C
00007C
00007C
2000FC
3801FC
3F8FF8
3FFFF0
3FFFF0
3FFFC0
07FF00
ENDCHAR
STARTCHAR 00A8
ENCODING 168
SWIDTH 450 0
DWIDTH 30 0
BBX 18 7 6 44
BITMAP
FC0FC0
FC0FC0
FC0FC0
FC0FC0
FC0FC0
FC0FC0
FC0FC0
ENDCHAR
STARTCHAR 00A9
ENCODING 169
SWIDTH 900 0
DWIDTH 60 0
BBX 44 49 8 0
BITMAP
000006000000
0000FFF80000
0007FFFE0000
001FFFFF8000
003F801FC000
007E0003E000
00F80001F800
01E000007C00
03C000003C00
078000001E00
0F001FE00F00
0F00FFFC0700
1E03FFFE0780
1C07FFFE03C0
3C0FF01E01C0
380FC00201C0
381F800001E0
703F000000E0
703E000000E0
703E000000E0
703C00000070
E07C00000070
E07C00000070
E07C00000070
E07C00000070
E07C00000070
E07C00000070
E07C00000070
707C00000070
703E000000F0
703E000000E0
703E000000E0
781F000000E0
381F800001E0
380FE00601C0
1C07FC3E03C0
1E03FFFE0380
0E01FFFE0780
0F007FF80F00
078002001E00
03C000001E00
03E000007C00
01F00000F800
00FC0001F000
007F000FE000
001FF8FF8000
000FFFFF0000
0003FFFC0000
00003FE00000
ENDCHAR
STARTCHAR 00AA
ENCODING 170
SWIDTH 420 0
DWIDTH 28 0
BBX 21 35 3 15
BITMAP
007800
0FFF00
3FFFC0
3FFFE0
3E07F0
3001F0
0000F8
0000F8
000078
000078
00FFF8
07FFF8
1FFFF8
3FFFF8
7F0078
7C0078
780078
F80078
F800F8
F800F8
F801F8
7C03F8
7E07F8
7FFF78
3FFF78
1FFC78
07F078
000000
000000
000000
000000
7FFFF8
7FFFF8
7FFFF8
7FFFF8
ENDCHAR
STARTCHAR 00AB
ENCODING 171
SWIDTH 555 0
DWIDTH 37 0
BBX 26 29 5 6
BITMAP
00080040
001800C0
003801C0
007803C0
00F807C0
01F80FC0
03F81F80
07F03F00
0FE07E00
1FC0FC00
3F81F800
7F03F000
FC07E000
F80FC000
F80FC000
FC0FE000
FE07F000
7F03F800
3F81FC00
1FC0FE00
0FE07F00
07F03F80
03F81FC0
01F80FC0
007807C0
003803C0
001801C0
000800C0
00080040
ENDCHAR
STARTCHAR 00AC
ENCODING 172
SWIDTH 765 0
DWIDTH 51 0
BBX 38 19 6 9
BITMAP
FFFFFFFFFC
FFFFFFFFFC
FFFFFFFFFC
FFFFFFFFFC
FFFFFFFFFC
000000007C
000000007C
000000007C
000000007C
000000007C
000000007C
000000007C
000000007C
000000007C
000000007C
000000007C
000000007C
000000007C
000000007C
ENDCHAR
STARTCHAR 00AD
ENCODING 173
SWIDTH 330 0
DWIDTH 22 0
BBX 16 5 3 16
BITMAP
FFFF
FFFF
FFFF
FFFF
FFFF
ENDCHAR
STARTCHAR 00AE
ENCODING 174
SWIDTH 900 0
DWIDTH 60 0
BBX 44 49 8 0
BITMAP
000006000000
0000FFF80000
0007FFFE0000
001FFFFF8000
003F801FC000
007E0003E000
00F80001F800
01E000007C00
03C000003C00
078000001E00
0F0000000F00
0F07FFE00700
1E07FFF80780
1C07FFFC03C0
3C07C07E01C0
3807C03E01C0
3807C01F01E0
7007C01F00E0
7007C01F00E0
7007C01F00E0
7007C01F0070
E007C03E0070
E007C07E0070
E007FFFC0070
E007FFF80070
E007FFC00070
E007C7E00070
E007C1F00070
7007C0F80070
7007C0F800F0
7007C07C00E0
7007C07C00E0
7807C03E00E0
3807C03F01E0
3807C01F01C0
1C07C00F83C0
1E07C00F8380
0E07C007C780
0F0000000F00
078000001E00
03C000001E00
03E000007C00
01F00000F800
00FC0001F000
007F000FE000
001FF8FF8000
000FFFFF0000
0003FFFC0000
00003FE00000
ENDCHAR
STARTCHAR 00AF
ENCODING 175
SWIDTH 450 0
DWIDTH 30 0
BBX 18 5 6 45
BITMAP
FFFFC0
FFFFC0
FFFFC0
FFFFC0
FFFFC0
ENDCHAR
STARTCHAR 00B0
ENCODING 176
SWIDTH 450 0
DWIDTH 30 0
BBX 18 21 6 29
BITMAP
01E000
07FC00
1FFE00
3FFF00
3FFF80
7C0F80
F807C0
F003C0
F003C0
F001C0
E001C0
F001C0
F003C0
F003C0
F803C0
780780
7E1F80
3FFF00
1FFE00
0FFC00
03F000
ENDCHAR
STARTCHAR 00B1
ENCODING 177
SWIDTH 765 0
DWIDTH 51 0
BBX 38 42 6 0
BITMAP
00007C0000
00007C0000
00007C0000
00007C0000
00007C0000
00007C0000
00007C0000
00007C0000
00007C0000
00007C0000
00007C0000
00007C0000
00007C0000
FFFFFFFFFC
FFFFFFFFFC
FFFFFFFFFC
FFFFFFFFFC
FFFFFFFFFC
00007C0000
00007C0000
00007C0000
00007C0000
00007C0000
00007C0000
00007C0000
00007C0000
00007C0000
00007C0000
00007C0000
00007C0000
00007C0000
0000000000
0000000000
0000000000
0000000000
0000000000
FFFFFFFFFC
FFFFFFFFFC
FFFFFFFFFC
FFFFFFFFFC
FFFFFFFFFC
FFFFFFFFFC
ENDCHAR
STARTCHAR 00B2
ENCODING 178
SWIDTH 360 0
DWIDTH 24 0
BBX 17 28 3 22
BITMAP
03C000
3FF800
FFFE00
FFFF00
F03F00
800F80
000F80
000780
000780
000780
000F80
000F00
001F00
003E00
007C00
007C00
00F800
01F000
03E000
07C000
0F8000
1F0000
3E0000
7C0000
FFFF80
FFFF80
FFFF80
FFFF80
ENDCHAR
STARTCHAR 00B3
ENCODING 179
SWIDTH 360 0
DWIDTH 24 0
BBX 18 29 3 21
BITMAP
07C000
7FFC00
7FFE00
7FFF00
601F80
000F80
000780
000780
000780
000780
000F80
003F00
07FE00
07F800
07FE00
007F00
000F80
0007C0
0007C0
0003C0
0003C0
0007C0
0007C0
000FC0
E03F80
FFFF00
FFFE00
7FFC00
03C000
ENDCHAR
STARTCHAR 00B4
ENCODING 180
SWIDTH 450 0
DWIDTH 30 0
BBX 14 13 11 41
BITMAP
00FC
01F8
01F0
03F0
07E0
07C0
0F80
1F80
1F00
3E00
7C00
7800
F800
ENDCHAR
STARTCHAR 00B5
ENCODING 181
SWIDTH 570 0
DWIDTH 38 0
BBX 32 51 5 -14
BITMAP
FC0003F0
FC0003F0
FC0003F0
FC0003F0
FC0003F0
FC0003F0
FC0003F0
FC0003F0
FC0003F0
FC0003F0
FC0003F0
FC0003F0
FC0003F0
FC0003F0
FC0003F0
FC0003F0
FC0003F0
FC0003F0
FC0003F0
FC0003F0
FC0003F0
FC0003F0
FC0003F0
FC0003F0
FC0003F0
FC0003F0
FC0003F0
FC0007F0
FC0007F0
FE000FF0
FF000FF0
FF803FF0
FFE0FFFF
FFFFFDFF
FDFFF9FF
FDFFF1FF
FC7FE0FF
FC1F807C
FC000000
FC000000
FC000000
FC000000
FC000000
FC000000
FC000000
FC000000
FC000000
FC000000
FC000000
FC000000
FC000000
ENDCHAR
STARTCHAR 00B6
ENCODING 182
SWIDTH 570 0
DWIDTH 38 0
BBX 27 55 5 -6
BITMAP
003FFFE0
01FFFFE0
07FFFFE0
0FFFFFE0
1FFF81E0
3FFF81E0
7FFF81E0
7FFF81E0
7FFF81E0
FFFF81E0
FFFF81E0
FFFF81E0
FFFF81E0
FFFF81E0
FFFF81E0
FFFF81E0
FFFF81E0
FFFF81E0
FFFF81E0
7FFF81E0
7FFF81E0
7FFF81E0
3FFF81E0
1FFF81E0
0FFF81E0
07FF81E0
01FF81E0
001F81E0
000781E0
000781E0
000781E0
000781E0
000781E0
000781E0
000781E0
000781E0
000781E0
000781E0
000781E0
000781E0
000781E0
000781E0
000781E0
000781E0
000781E0
000781E0
000781E0
000781E0
000781E0
000781E0
000781E0
000781E0
000781E0
000781E0
000781E0
ENDCHAR
STARTCHAR 00B7
ENCODING 183
SWIDTH 285 0
DWIDTH 19 0
BBX 7 8 6 19
BITMAP
FE
FE
FE
FE
FE
FE
FE
FE
ENDCHAR
STARTCHAR 00B8
ENCODING 184
SWIDTH 450 0
DWIDTH 30 0
BBX 12 13 9 -13
BITMAP
0780
03C0
01C0
01E0
01E0
00F0
00F0
01F0
83F0
FFE0
FFE0
FFC0
7F00
ENDCHAR
STARTCHAR 00B9
ENCODING 185
SWIDTH 360 0
DWIDTH 24 0
BBX 17 27 4 22
BITMAP
1FE000
FFE000
FFE000
FFE000
C1E000
01E000
01E000
01E000
01E000
01E000
01E000
01E000
01E000
01E000
01E000
01E000
01E000
01E000
01E000
01E000
01E000
01E000
01E000
01E000
7FFF80
7FFF80
7FFF80
ENDCHAR
STARTCHAR 00BA
ENCODING 186
SWIDTH 420 0
DWIDTH 28 0
BBX 23 35 3 15
BITMAP
007C00
03FF80
0FFFC0
1FFFE0
3F83F0
3E01F8
7C00F8
7C007C
F8007C
F8007C
F8003C
F8003C
F0003C
F0003E
F0003E
F0003C
F8003C
F8003C
F8007C
7C007C
7C00F8
7E00F8
3F03F0
1FFFF0
0FFFE0
07FF80
01FE00
000000
000000
000000
000000
7FFFF8
7FFFF8
7FFFF8
7FFFF8
ENDCHAR
STARTCHAR 00BB
ENCODING 187
SWIDTH 555 0
DWIDTH 37 0
BBX 26 30 6 5
BITMAP
00080000
800C0000
C00E0000
E00F0000
F00F8000
F80FC000
FC0FE000
7E07F000
3F03F800
1F81FC00
0FC0FE00
07E07F00
03F03F80
01F81FC0
00FC0FC0
00FC07C0
01FC0FC0
03F81F80
07F03F00
0FE07E00
1FC0FC00
3F81F800
7F03F000
FE07E000
FC0FC000
F80F8000
F00F0000
E00E0000
C00C0000
80080000
ENDCHAR
STARTCHAR 00BC
ENCODING 188
SWIDTH 870 0
DWIDTH 58 0
BBX 53 51 4 -1
BITMAP
000000000F8000
1FE000000F8000
FFE000001F0000
FFE000001F0000
FFE000003E0000
C1E000003C0000
01E000007C0000
01E00000780000
01E00000F80000
01E00000F00000
01E00001F00000
01E00003E00000
01E00003E00000
01E00007C00000
01E00007C00000
01E0000F800000
01E0000F000000
01E0001F000000
01E0001E000000
01E0003E000000
01E0003C000000
01E0007C000000
01E00078000000
01E000F8001F80
01E001F0001F80
7FFF81F0003F80
7FFF83E0007F80
7FFF83E0007F80
000007C000EF80
0000078001EF80
00000F8001CF80
00000F00038F80
00001F00078F80
00001E00070F80
00003E000E0F80
00007C001E0F80
00007C001C0F80
0000F800380F80
0000F800780F80
0001F000700F80
0001F000E00FF8
0003E000FFFFF8
0003C000FFFFF8
0007C000FFFFF8
00078000000F80
000F8000000F80
000F0000000F80
001F0000000F80
003E0000000F80
003E0000000F80
007C0000000000
ENDCHAR
STARTCHAR 00BD
ENCODING 189
SWIDTH 870 0
DWIDTH 58 0
BBX 51 51 4 -1
BITMAP
000000000F8000
1FE000000F8000
FFE000001F0000
FFE000001F0000
FFE000003E0000
C1E000003C0000
01E000007C0000
01E00000780000
01E00000F80000
01E00000F00000
01E00001F00000
01E00003E00000
01E00003E00000
01E00007C00000
01E00007C00000
01E0000F800000
01E0000F000000
01E0001F000000
01E0001E000000
01E0003E000000
01E0003C000000
01E0007C000000
01E0007801F000
01E000F81FFE00
01E001F07FFF00
7FFF81F07FFF80
7FFF83E0781FC0
7FFF83E04007C0
000007C00003C0
000007800003C0
00000F800003C0
00000F000003C0
00001F000007C0
00001E00000780
00003E00000F80
00007C00001F00
00007C00001F00
0000F800003E00
0000F800007C00
0001F00000F800
0001F00001F000
0003E00003E000
0003C00007C000
0007C0000F8000
000780001F0000
000F80003E0000
000F00007FFFE0
001F00007FFFE0
003E00007FFFE0
003E00007FFFE0
007C0000000000
ENDCHAR
STARTCHAR 00BE
ENCODING 190
SWIDTH 870 0
DWIDTH 58 0
BBX 54 51 3 -1
BITMAP
07C0000007C000
7FFC000007C000
7FFE00000F8000
7FFF00000F8000
601F80001F0000
000F80001E0000
000780003E0000
000780003C0000
000780007C0000
00078000780000
000F8000F80000
003F0001F00000
07FE0001F00000
07F80003E00000
07FE0003E00000
007F0007C00000
000F8007800000
0007C00F800000
0007C00F000000
0003C01F000000
0003C01E000000
0007C03E000000
0007C03C000000
000FC07C000FC0
E03F80F8000FC0
FFFF00F8001FC0
FFFE01F0003FC0
7FFC01F0003FC0
03C003E00077C0
000003C000F7C0
000007C000E7C0
0000078001C7C0
00000F8003C7C0
00000F000387C0
00001F000707C0
00003E000F07C0
00003E000E07C0
00007C001C07C0
00007C003C07C0
0000F8003807C0
0000F8007007FC
0001F0007FFFFC
0001E0007FFFFC
0003E0007FFFFC
0003C0000007C0
0007C0000007C0
000780000007C0
000F80000007C0
001F00000007C0
001F00000007C0
003E0000000000
ENDCHAR
STARTCHAR 00BF
ENCODING 191
SWIDTH 480 0
DWIDTH 32 0
BBX 24 50 4 -13
BITMAP
001F00
001F00
001F00
001F00
001F00
001F00
001F00
001F00
001F00
000000
000000
000000
000000
001F00
001F00
001F00
001F00
001F00
001F00
001F00
001F00
003F00
003F00
003F00
007E00
00FE00
01FC00
03F800
07F000
0FF000
1FE000
1FC000
3F8000
7F0000
7E0000
7E0000
FC0000
FC0000
FC0000
FC0000
FC0001
FE0003
7F000F
7F803F
3FE0FF
3FFFFF
1FFFFF
0FFFFC
07FFF0
00FF80
ENDCHAR
STARTCHAR 00C0
ENCODING 192
SWIDTH 615 0
DWIDTH 41 0
BBX 40 62 1 0
BITMAP
0007C00000
0003E00000
0003F00000
0001F00000
0000F80000
00007C0000
00007C0000
00003E0000
00001F0000
0000000000
0000000000
0000000000
0000000000
0000FE0000
0000FE0000
0001FF0000
0001FF0000
0001FF8000
0003FF8000
0003FF8000
0003EFC000
0007EFC000
0007E7C000
0007C7E000
000FC7E000
000FC3E000
000F83F000
001F83F000
001F81F000
001F01F800
003F01F800
003F00F800
003E00FC00
007E00FC00
007E007C00
007C007E00
00FC007E00
00FC003E00
00F8003F00
01F8003F00
01F8001F00
03F0001F80
03F0001F80
03F0000F80
07FFFFFFC0
07FFFFFFC0
07FFFFFFC0
0FFFFFFFE0
0FFFFFFFE0
0FC00003E0
1F800003F0
1F800003F0
1F800001F8
3F000001F8
3F000001F8
3F000001FC
7E000000FC
7E000000FC
7E000000FE
FE0000007E
FC0000007E
FC0000007F
ENDCHAR
STARTCHAR 00C1
ENCODING 193
SWIDTH 615 0
DWIDTH 41 0
BBX 40 62 1 0
BITMAP
000007C000
00000FC000
00000F8000
00001F0000
00003E0000
00003C0000
00007C0000
0000F80000
0000F00000
0000000000
0000000000
0000000000
0000000000
0000FE0000
0000FE0000
0001FF0000
0001FF0000
0001FF8000
0003FF8000
0003FF8000
0003EFC000
0007EFC000
0007E7C000
0007C7E000
000FC7E000
000FC3E000
000F83F000
001F83F000
001F81F000
001F01F800
003F01F800
003F00F800
003E00FC00
007E00FC00
007E007C00
007C007E00
00FC007E00
00FC003E00
00F8003F00
01F8003F00
01F8001F00
03F0001F80
03F0001F80
03F0000F80
07FFFFFFC0
07FFFFFFC0
07FFFFFFC0
0FFFFFFFE0
0FFFFFFFE0
0FC00003E0
1F800003F0
1F800003F0
1F800001F8
3F000001F8
3F000001F8
3F000001FC
7E000000FC
7E000000FC
7E000000FE
FE0000007E
FC0000007E
FC0000007F
ENDCHAR
STARTCHAR 00C2
ENCODING 194
SWIDTH 615 0
DWIDTH 41 0
BBX 40 62 1 0
BITMAP
0000FE0000
0000FE0000
0001FF0000
0003EF8000
0003C7C000
000783C000
000F81E000
001F01F000
001E00F000
0000000000
0000000000
0000000000
0000000000
0000FE0000
0000FE0000
0001FF0000
0001FF0000
0001FF8000
0003FF8000
0003FF8000
0003EFC000
0007EFC000
0007E7C000
0007C7E000
000FC7E000
000FC3E000
000F83F000
001F83F000
001F81F000
001F01F800
003F01F800
003F00F800
003E00FC00
007E00FC00
007E007C00
007C007E00
00FC007E00
00FC003E00
00F8003F00
01F8003F00
01F8001F00
03F0001F80
03F0001F80
03F0000F80
07FFFFFFC0
07FFFFFFC0
07FFFFFFC0
0FFFFFFFE0
0FFFFFFFE0
0FC00003E0
1F800003F0
1F800003F0
1F800001F8
3F000001F8
3F000001F8
3F000001FC
7E000000FC
7E000000FC
7E000000FE
FE0000007E
FC0000007E
FC0000007F
ENDCHAR
STARTCHAR 00C3
ENCODING 195
SWIDTH 615 0
DWIDTH 41 0
BBX 40 62 1 0
BITMAP
0000003800
000FE03800
001FF87800
001FFEF800
003EFFF000
003C3FF000
003C0FE000
003C018000
0000000000
0000000000
0000000000
0000000000
0000000000
0000FE0000
0000FE0000
0001FF0000
0001FF0000
0001FF8000
0003FF8000
0003FF8000
0003EFC000
0007EFC000
0007E7C000
0007C7E000
000FC7E000
000FC3E000
000F83F000
001F83F000
001F81F000
001F01F800
003F01F800
003F00F800
003E00FC00
007E00FC00
007E007C00
007C007E00
00FC007E00
00FC003E00
00F8003F00
01F8003F00
01F8001F00
03F0001F80
03F0001F80
03F0000F80
07FFFFFFC0
07FFFFFFC0
07FFFFFFC0
0FFFFFFFE0
0FFFFFFFE0
0FC00003E0
1F800003F0
1F800003F0
1F800001F8
3F000001F8
3F000001F8
3F000001FC
7E000000FC
7E000000FC
7E000000FE
FE0000007E
FC0000007E
FC0000007F
ENDCHAR
STARTCHAR 00C4
ENCODING 196
SWIDTH 615 0
DWIDTH 41 0
BBX 40 61 1 0
BITMAP
001F83F000
001F83F000
001F83F000
001F83F000
001F83F000
001F83F000
001F83F000
0000000000
0000000000
0000000000
0000000000
0000000000
0000FE0000
0000FE0000
0001FF0000
0001FF0000
0001FF8000
0003FF8000
0003FF8000
0003EFC000
0007EFC000
0007E7C000
0007C7E000
000FC7E000
000FC3E000
000F83F000
001F83F000
001F81F000
001F01F800
003F01F800
003F00F800
003E00FC00
007E00FC00
007E007C00
007C007E00
00FC007E00
00FC003E00
00F8003F00
01F8003F00
01F8001F00
03F0001F80
03F0001F80
03F0000F80
07FFFFFFC0
07FFFFFFC0
07FFFFFFC0
0FFFFFFFE0
0FFFFFFFE0
0FC00003E0
1F800003F0
1F800003F0
1F800001F8
3F000001F8
3F000001F8
3F000001FC
7E000000FC
7E000000FC
7E000000FE
FE0000007E
FC0000007E
FC0000007F
ENDCHAR
STARTCHAR 00C5
ENCODING 197
SWIDTH 615 0
DWIDTH 41 0
BBX 40 62 1 0
BITMAP
0000FE0000
0001FF0000
0003FF8000
0007FFC000
000F83E000
000F01E000
000F00E000
000E00F000
000E00F000
000E00F000
000E00F000
000F01E000
000F81E000
0007C7E000
0007FFC000
0003FF8000
0001FF0000
0001FF0000
0003FF8000
0003FF8000
0003EFC000
0007EFC000
0007E7C000
0007C7E000
000FC7E000
000FC3E000
000F83F000
001F83F000
001F81F000
001F01F800
003F01F800
003F00F800
003E00FC00
007E00FC00
007E007C00
007C007E00
00FC007E00
00FC003E00
00F8003F00
01F8003F00
01F8001F00
03F0001F80
03F0001F80
03F0001F80
07FFFFFFC0
07FFFFFFC0
07FFFFFFC0
0FFFFFFFE0
0FFFFFFFE0
0FC00003E0
1F800003F0
1F800003F0
1F800001F8
3F000001F8
3F000001F8
3F000001FC
7E000000FC
7E000000FC
7E000000FE
FE0000007E
FC0000007E
FC0000007F
ENDCHAR
STARTCHAR 00C6
ENCODING 198
SWIDTH 885 0
DWIDTH 59 0
BBX 55 49 0 0
BITMAP
00003FFFFFFFFC
00003FFFFFFFFC
00003FFFFFFFFC
00007FFFFFFFFC
00007FFFFFFFFC
00007E1FFFFFFC
0000FC1F800000
0000FC1F800000
0001FC1F800000
0001F81F800000
0001F81F800000
0003F01F800000
0003F01F800000
0003F01F800000
0007E01F800000
0007E01F800000
000FE01F800000
000FC01F800000
000FC01F800000
001F801F800000
001F801FFFFFF8
001F801FFFFFF8
003F001FFFFFF8
003F001FFFFFF8
007E001FFFFFF8
007E001FFFFFF8
007E001F800000
00FC001F800000
00FC001F800000
00FC001F800000
01F8001F800000
01FFFFFF800000
03FFFFFF800000
03FFFFFF800000
03FFFFFF800000
07FFFFFF800000
07E0001F800000
07E0001F800000
0FC0001F800000
0FC0001F800000
1F80001F800000
1F80001F800000
1F80001F800000
3F00001FFFFFFE
3F00001FFFFFFE
3F00001FFFFFFE
7E00001FFFFFFE
7E00001FFFFFFE
FC00001FFFFFFE
ENDCHAR
STARTCHAR 00C7
ENCODING 199
SWIDTH 630 0
DWIDTH 42 0
BBX 36 63 3 -13
BITMAP
00001F8000
0003FFF800
000FFFFF00
003FFFFFC0
007FFFFFE0
00FFFFFFF0
01FF801FF0
03FE0003F0
07F80000F0
0FF0000070
0FE0000030
1FC0000010
1FC0000000
3F80000000
3F80000000
3F00000000
7F00000000
7F00000000
7E00000000
7E00000000
7E00000000
7E00000000
FE00000000
FE00000000
FE00000000
FE00000000
FE00000000
FE00000000
FE00000000
7E00000000
7E00000000
7E00000000
7E00000000
7E00000000
7F00000000
3F00000000
3F00000000
3F80000000
1F80000000
1FC0000000
0FE0000010
0FF0000070
07F80000F0
03FC0003F0
03FF000FF0
01FFFFFFF0
00FFFFFFE0
003FFFFFC0
001FFFFF00
0007FFFC00
00007FC000
0000078000
0000078000
000003C000
000003C000
000003C000
000003E000
000003E000
000307C000
0003FFC000
0003FFC000
0003FF8000
0000FE0000
ENDCHAR
STARTCHAR 00C8
ENCODING 200
SWIDTH 570 0
DWIDTH 38 0
BBX 28 62 6 0
BITMAP
01F00000
00F80000
00FC0000
007C0000
003E0000
001F0000
000F0000
000F8000
0007C000
00000000
00000000
00000000
00000000
FFFFFFF0
FFFFFFF0
FFFFFFF0
FFFFFFF0
FFFFFFF0
FFFFFFF0
FC000000
FC000000
FC000000
FC000000
FC000000
FC000000
FC000000
FC000000
FC000000
FC000000
FC000000
FC000000
FC000000
FC000000
FFFFFFE0
FFFFFFE0
FFFFFFE0
FFFFFFE0
FFFFFFE0
FFFFFFE0
FC000000
FC000000
FC000000
FC000000
FC000000
FC000000
FC000000
FC000000
FC000000
FC000000
FC000000
FC000000
FC000000
FC000000
FC000000
FC000000
FC000000
FFFFFFF0
FFFFFFF0
FFFFFFF0
FFFFFFF0
FFFFFFF0
FFFFFFF0
ENDCHAR
STARTCHAR 00C9
ENCODING 201
SWIDTH 570 0
DWIDTH 38 0
BBX 28 62 6 0
BITMAP
0001F000
0003F000
0003E000
0007C000
000F8000
000F8000
001F0000
003E0000
003C0000
00000000
00000000
00000000
00000000
FFFFFFF0
FFFFFFF0
FFFFFFF0
FFFFFFF0
FFFFFFF0
FFFFFFF0
FC000000
FC000000
FC000000
FC000000
FC000000
FC000000
FC000000
FC000000
FC000000
FC000000
FC000000
FC000000
FC000000
FC000000
FFFFFFE0
FFFFFFE0
FFFFFFE0
FFFFFFE0
FFFFFFE0
FFFFFFE0
FC000000
FC000000
FC000000
FC000000
FC000000
FC000000
FC000000
FC000000
FC000000
FC000000
FC000000
FC000000
FC000000
FC000000
FC000000
FC000000
FC000000
FFFFFFF0
FFFFFFF0
FFFFFFF0
FFFFFFF0
FFFFFFF0
FFFFFFF0
ENDCHAR
STARTCHAR 00CA
ENCODING 202
SWIDTH 570 0
DWIDTH 38 0
BBX 28 62 6 0
BITMAP
001F8000
003FC000
007FC000
00FBE000
00F1F000
01F0F000
03E07800
03C03C00
07803E00
00000000
00000000
00000000
00000000
FFFFFFF0
FFFFFFF0
FFFFFFF0
FFFFFFF0
FFFFFFF0
FFFFFFF0
FC000000
FC000000
FC000000
FC000000
FC000000
FC000000
FC000000
FC000000
FC000000
FC000000
FC000000
FC000000
FC000000
FC000000
FFFFFFE0
FFFFFFE0
FFFFFFE0
FFFFFFE0
FFFFFFE0
FFFFFFE0
FC000000
FC000000
FC000000
FC000000
FC000000
FC000000
FC000000
FC000000
FC000000
FC000000
FC000000
FC000000
FC000000
FC000000
FC000000
FC000000
FC000000
FFFFFFF0
FFFFFFF0
FFFFFFF0
FFFFFFF0
FFFFFFF0
FFFFFFF0
ENDCHAR
STARTCHAR 00CB
ENCODING 203
SWIDTH 570 0
DWIDTH 38 0
BBX 28 61 6 0
BITMAP
07E07C00
07E07C00
07E07C00
07E07C00
07E07C00
07E07C00
07E07C00
00000000
00000000
00000000
00000000
00000000
FFFFFFF0
FFFFFFF0
FFFFFFF0
FFFFFFF0
FFFFFFF0
FFFFFFF0
FC000000
FC000000
FC000000
FC000000
FC000000
FC000000
FC000000
FC000000
FC000000
FC000000
FC000000
FC000000
FC000000
FC000000
FFFFFFE0
FFFFFFE0
FFFFFFE0
FFFFFFE0
FFFFFFE0
FFFFFFE0
FC000000
FC000000
FC000000
FC000000
FC000000
FC000000
FC000000
FC000000
FC000000
FC000000
FC000000
FC000000
FC000000
FC000000
FC000000
FC000000
FC000000
FFFFFFF0
FFFFFFF0
FFFFFFF0
FFFFFFF0
FFFFFFF0
FFFFFFF0
ENDCHAR
STARTCHAR 00CC
ENCODING 204
SWIDTH 270 0
DWIDTH 18 0
BBX 11 62 2 0
BITMAP
FC00
7C00
3E00
3F00
1F00
0F80
07C0
03C0
03E0
0000
0000
0000
0000
0FC0
0FC0
0FC0
0FC0
0FC0
0FC0
0FC0
0FC0
0FC0
0FC0
0FC0
0FC0
0FC0
0FC0
0FC0
0FC0
0FC0
0FC0
0FC0
0FC0
0FC0
0FC0
0FC0
0FC0
0FC0
0FC0
0FC0
0FC0
0FC0
0FC0
0FC0
0FC0
0FC0
0FC0
0FC0
0FC0
0FC0
0FC0
0FC0
0FC0
0FC0
0FC0
0FC0
0FC0
0FC0
0FC0
0FC0
0FC0
0FC0
ENDCHAR
STARTCHAR 00CD
ENCODING 205
SWIDTH 270 0
DWIDTH 18 0
BBX 11 62 5 0
BITMAP
07E0
07C0
0F80
1F00
1F00
3E00
7C00
7800
F000
0000
0000
0000
0000
7E00
7E00
7E00
7E00
7E00
7E00
7E00
7E00
7E00
7E00
7E00
7E00
7E00
7E00
7E00
7E00
7E00
7E00
7E00
7E00
7E00
7E00
7E00
7E00
7E00
7E00
7E00
7E00
7E00
7E00
7E00
7E00
7E00
7E00
7E00
7E00
7E00
7E00
7E00
7E00
7E00
7E00
7E00
7E00
7E00
7E00
7E00
7E00
7E00
ENDCHAR
STARTCHAR 00CE
ENCODING 206
SWIDTH 270 0
DWIDTH 18 0
BBX 18 62 0 0
BITMAP
03F000
07F800
0FF800
0F7C00
1F3E00
3E1F00
3C0F00
780780
F003C0
000000
000000
000000
000000
03F000
03F000
03F000
03F000
03F000
03F000
03F000
03F000
03F000
03F000
03F000
03F000
03F000
03F000
03F000
03F000
03F000
03F000
03F000
03F000
03F000
03F000
03F000
03F000
03F000
03F000
03F000
03F000
03F000
03F000
03F000
03F000
03F000
03F000
03F000
03F000
03F000
03F000
03F000
03F000
03F000
03F000
03F000
03F000
03F000
03F000
03F000
03F000
03F000
ENDCHAR
STARTCHAR 00CF
ENCODING 207
SWIDTH 270 0
DWIDTH 18 0
BBX 18 61 0 0
BITMAP
FC0FC0
FC0FC0
FC0FC0
FC0FC0
FC0FC0
FC0FC0
FC0FC0
000000
000000
000000
000000
000000
03F000
03F000
03F000
03F000
03F000
03F000
03F000
03F000
03F000
03F000
03F000
03F000
03F000
03F000
03F000
03F000
03F000
03F000
03F000
03F000
03F000
03F000
03F000
03F000
03F000
03F000
03F000
03F000
03F000
03F000
03F000
03F000
03F000
03F000
03F000
03F000
03F000
03F000
03F000
03F000
03F000
03F000
03F000
03F000
03F000
03F000
03F000
03F000
03F000
ENDCHAR
STARTCHAR 00D0
ENCODING 208
SWIDTH 705 0
DWIDTH 47 0
BBX 43 49 0 0
BITMAP
03FFFF000000
03FFFFF80000
03FFFFFF0000
03FFFFFFC000
03FFFFFFE000
03FFFFFFF800
03F0003FFC00
03F00007FC00
03F00001FE00
03F00000FF00
03F000007F00
03F000003F80
03F000003F80
03F000001FC0
03F000001FC0
03F000000FC0
03F000000FC0
03F000000FE0
03F000000FE0
03F0000007E0
03F0000007E0
FFFFFC0007E0
FFFFFC0007E0
FFFFFC0007E0
FFFFFC0007E0
FFFFFC0007E0
03F0000007E0
03F0000007E0
03F0000007E0
03F0000007E0
03F000000FE0
03F000000FE0
03F000000FC0
03F000000FC0
03F000001FC0
03F000001FC0
03F000003F80
03F000003F80
03F000007F00
03F00000FF00
03F00001FE00
03F00007FE00
03F0001FFC00
03F00FFFF800
03FFFFFFE000
03FFFFFFC000
03FFFFFF0000
03FFFFFC0000
03FFFF800000
ENDCHAR
STARTCHAR 00D1
ENCODING 209
SWIDTH 675 0
DWIDTH 45 0
BBX 33 62 6 0
BITMAP
000001C000
007F01C000
00FFC3C000
00FFE7C000
01F7FF8000
01E1FF8000
01E07F0000
01E01C0000
0000000000
0000000000
0000000000
0000000000
0000000000
FF00001F80
FF80001F80
FF80001F80
FFC0001F80
FFC0001F80
FFC0001F80
FFE0001F80
FFE0001F80
FFF0001F80
FFF0001F80
FDF8001F80
FDF8001F80
FCFC001F80
FCFC001F80
FC7E001F80
FC7E001F80
FC3F001F80
FC3F001F80
FC1F801F80
FC1F801F80
FC0FC01F80
FC0FC01F80
FC07E01F80
FC07E01F80
FC07F01F80
FC03F01F80
FC03F81F80
FC01F81F80
FC01F81F80
FC00FC1F80
FC00FC1F80
FC007E1F80
FC007E1F80
FC003F1F80
FC003F1F80
FC001F9F80
FC001F9F80
FC000FDF80
FC000FDF80
FC0007FF80
FC0007FF80
FC0003FF80
FC0003FF80
FC0001FF80
FC0001FF80
FC0000FF80
FC0000FF80
FC0000FF80
FC00007F80
ENDCHAR
STARTCHAR 00D2
ENCODING 210
SWIDTH 705 0
DWIDTH 47 0
BBX 41 63 3 -1
BITMAP
0003E0000000
0001F0000000
0001F8000000
0000F8000000
00007C000000
00003E000000
00001E000000
00001F000000
00000F800000
000000000000
000000000000
000000000000
00003E000000
0003FFF00000
001FFFFC0000
003FFFFF0000
007FFFFF8000
01FFFFFFC000
03FF007FE000
03FC001FF000
07F80007F800
0FF00003F800
0FE00001FC00
1FC00001FC00
1FC00000FE00
3F800000FE00
3F8000007E00
3F0000007F00
7F0000003F00
7F0000003F00
7E0000003F00
7E0000003F80
7E0000003F80
7E0000001F80
FE0000001F80
FE0000001F80
FE0000001F80
FE0000001F80
FE0000001F80
FE0000001F80
FE0000001F80
7E0000001F80
7E0000003F80
7E0000003F80
7E0000003F00
7F0000003F00
7F0000003F00
3F0000007F00
3F0000007F00
3F8000007E00
1F800000FE00
1FC00001FC00
0FE00001FC00
0FE00003F800
07F00007F800
07FC000FF000
03FF003FE000
01FFF7FFC000
00FFFFFF8000
007FFFFF0000
001FFFFC0000
0007FFF00000
0000FF800000
ENDCHAR
STARTCHAR 00D3
ENCODING 211
SWIDTH 705 0
DWIDTH 47 0
BBX 41 63 3 -1
BITMAP
000003E00000
000007E00000
000007C00000
00000F800000
00001F000000
00001F000000
00003E000000
00007C000000
000078000000
000000000000
000000000000
000000000000
00003E000000
0003FFF00000
001FFFFC0000
003FFFFF0000
007FFFFF8000
01FFFFFFC000
03FF007FE000
03FC001FF000
07F80007F800
0FF00003F800
0FE00001FC00
1FC00001FC00
1FC00000FE00
3F800000FE00
3F8000007E00
3F0000007F00
7F0000003F00
7F0000003F00
7E0000003F00
7E0000003F80
7E0000003F80
7E0000001F80
FE0000001F80
FE0000001F80
FE0000001F80
FE0000001F80
FE0000001F80
FE0000001F80
FE0000001F80
7E0000001F80
7E0000003F80
7E0000003F80
7E0000003F00
7F0000003F00
7F0000003F00
3F0000007F00
3F0000007F00
3F8000007E00
1F800000FE00
1FC00001FC00
0FE00001FC00
0FE00003F800
07F00007F800
07FC000FF000
03FF003FE000
01FFF7FFC000
00FFFFFF8000
007FFFFF0000
001FFFFC0000
0007FFF00000
0000FF800000
ENDCHAR
STARTCHAR 00D4
ENCODING 212
SWIDTH 705 0
DWIDTH 47 0
BBX 41 63 3 -1
BITMAP
00003F000000
00007F800000
0000FF800000
0001F7C00000
0001E3E00000
0003E1E00000
0007C0F00000
000780780000
000F007C0000
000000000000
000000000000
000000000000
00003E000000
0003FFF00000
001FFFFC0000
003FFFFF0000
007FFFFF8000
01FFFFFFC000
03FF007FE000
03FC001FF000
07F80007F800
0FF00003F800
0FE00001FC00
1FC00001FC00
1FC00000FE00
3F800000FE00
3F8000007E00
3F0000007F00
7F0000003F00
7F0000003F00
7E0000003F00
7E0000003F80
7E0000003F80
7E0000001F80
FE0000001F80
FE0000001F80
FE0000001F80
FE0000001F80
FE0000001F80
FE0000001F80
FE0000001F80
7E0000001F80
7E0000003F80
7E0000003F80
7E0000003F00
7F0000003F00
7F0000003F00
3F0000007F00
3F0000007F00
3F8000007E00
1F800000FE00
1FC00001FC00
0FE00001FC00
0FE00003F800
07F00007F800
07FC000FF000
03FF003FE000
01FFF7FFC000
00FFFFFF8000
007FFFFF0000
001FFFFC0000
0007FFF00000
0000FF800000
ENDCHAR
STARTCHAR 00D5
ENCODING 213
SWIDTH 705 0
DWIDTH 47 0
BBX 41 63 3 -1
BITMAP
0000001C0000
0007F01C0000
000FFC3C0000
000FFF3C0000
001F3FFC0000
001E1FF80000
001E07F00000
001E00C00000
000000000000
000000000000
000000000000
000000000000
00003E000000
0003FFF00000
001FFFFC0000
003FFFFF0000
007FFFFF8000
01FFFFFFC000
03FF007FE000
03FC001FF000
07F80007F800
0FF00003F800
0FE00001FC00
1FC00001FC00
1FC00000FE00
3F800000FE00
3F8000007E00
3F0000007F00
7F0000003F00
7F0000003F00
7E0000003F00
7E0000003F80
7E0000003F80
7E0000001F80
FE0000001F80
FE0000001F80
FE0000001F80
FE0000001F80
FE0000001F80
FE0000001F80
FE0000001F80
7E0000001F80
7E0000003F80
7E0000003F80
7E0000003F00
7F0000003F00
7F0000003F00
3F0000007F00
3F0000007F00
3F8000007E00
1F800000FE00
1FC00001FC00
0FE00001FC00
0FE00003F800
07F00007F800
07FC000FF000
03FF003FE000
01FFF7FFC000
00FFFFFF8000
007FFFFF0000
001FFFFC0000
0007FFF00000
0000FF800000
ENDCHAR
STARTCHAR 00D6
ENCODING 214
SWIDTH 705 0
DWIDTH 47 0
BBX 41 62 3 -1
BITMAP
000FC0F80000
000FC0F80000
000FC0F80000
000FC0F80000
000FC0F80000
000FC0F80000
000FC0F80000
000000000000
000000000000
000000000000
000000000000
00003E000000
0003FFF00000
001FFFFC0000
003FFFFF0000
007FFFFF8000
01FFFFFFC000
03FF007FE000
03FC001FF000
07F80007F800
0FF00003F800
0FE00001FC00
1FC00001FC00
1FC00000FE00
3F800000FE00
3F8000007E00
3F0000007F00
7F0000003F00
7F0000003F00
7E0000003F00
7E0000003F80
7E0000003F80
7E0000001F80
FE0000001F80
FE0000001F80
FE0000001F80
FE0000001F80
FE0000001F80
FE0000001F80
FE0000001F80
7E0000001F80
7E0000003F80
7E0000003F80
7E0000003F00
7F0000003F00
7F0000003F00
3F0000007F00
3F0000007F00
3F8000007E00
1F800000FE00
1FC00001FC00
0FE00001FC00
0FE00003F800
07F00007F800
07FC000FF000
03FF003FE000
01FFF7FFC000
00FFFFFF8000
007FFFFF0000
001FFFFC0000
0007FFF00000
0000FF800000
ENDCHAR
STARTCHAR 00D7
ENCODING 215
SWIDTH 765 0
DWIDTH 51 0
BBX 33 38 9 2
BITMAP
2000000400
7000000E00
7800000F00
FC00001F80
FE00003F80
7F00007F00
3F8000FE00
3F8001FC00
1FC003F800
0FE007F000
07F00FE000
03F81FE000
01FC1FC000
00FE3F8000
007F7F0000
003FFE0000
003FFC0000
001FF80000
000FF00000
000FF00000
001FF80000
003FFC0000
003FFE0000
007F7F0000
00FE3F8000
01FC1FC000
03F81FE000
07F00FE000
0FE007F000
1FC003F800
3F8001FC00
7F8000FE00
7F00007F00
FE00003F80
FC00001F80
7800000F00
7000000E00
2000000400
ENDCHAR
STARTCHAR 00D8
ENCODING 216
SWIDTH 705 0
DWIDTH 47 0
BBX 41 53 3 -2
BITMAP
000000000200
00003F000700
0003FFF00F80
001FFFFC0F80
003FFFFF1F00
007FFFFFBE00
01FFFFFFFE00
03FF007FFC00
03FC001FF800
07F80007F000
0FF00003F800
0FE00003FC00
1FC00007FC00
1FC0000FFE00
3F80001FFE00
3F80001F7E00
3F00003E7F00
7F00007C3F00
7F0000FC3F00
7E0000F83F00
7E0001F03F80
7E0003E03F80
7E0007E01F80
FE000FC01F80
FE000F801F80
FE001F001F80
FE003E001F80
FE007E001F80
FE007C001F80
FE00F8001F80
7E01F0001F80
7E03F0003F80
7E03E0003F80
7E07C0003F00
7E0F80003F00
7F1F80003F00
3F1F00007F00
3F3E00007F00
3FFC00007E00
1FFC0000FE00
1FF80001FC00
0FF00001FC00
0FF00003F800
07F80007F800
0FFC000FF000
0FFF003FE000
1FFFF7FFC000
3EFFFFFF8000
7E3FFFFF0000
7C1FFFFC0000
F807FFF00000
7000FF800000
300000000000
ENDCHAR
STARTCHAR 00D9
ENCODING 217
SWIDTH 660 0
DWIDTH 44 0
BBX 34 63 5 -1
BITMAP
003F000000
001F000000
000F800000
0007C00000
0007C00000
0003E00000
0001F00000
0000F00000
0000780000
0000000000
0000000000
0000000000
0000000000
FC00000FC0
FC00000FC0
FC00000FC0
FC00000FC0
FC00000FC0
FC00000FC0
FC00000FC0
FC00000FC0
FC00000FC0
FC00000FC0
FC00000FC0
FC00000FC0
FC00000FC0
FC00000FC0
FC00000FC0
FC00000FC0
FC00000FC0
FC00000FC0
FC00000FC0
FC00000FC0
FC00000FC0
FC00000FC0
FC00000FC0
FC00000FC0
FC00000FC0
FC00000FC0
FC00000FC0
FC00000FC0
FC00000FC0
FC00000FC0
FC00000FC0
FC00000FC0
FC00000FC0
FC00000FC0
FC00000FC0
7E00001FC0
7E00001F80
7E00001F80
7E00001F80
7F00003F80
3F00003F00
3F80007F00
1FC000FE00
1FF003FE00
0FFF3FFC00
07FFFFF800
03FFFFF000
01FFFFE000
007FFF8000
000FFC0000
ENDCHAR
STARTCHAR 00DA
ENCODING 218
SWIDTH 660 0
DWIDTH 44 0
BBX 34 63 5 -1
BITMAP
00003F0000
00003E0000
00007C0000
0000FC0000
0000F80000
0001F00000
0003E00000
0003C00000
0007C00000
0000000000
0000000000
0000000000
0000000000
FC00000FC0
FC00000FC0
FC00000FC0
FC00000FC0
FC00000FC0
FC00000FC0
FC00000FC0
FC00000FC0
FC00000FC0
FC00000FC0
FC00000FC0
FC00000FC0
FC00000FC0
FC00000FC0
FC00000FC0
FC00000FC0
FC00000FC0
FC00000FC0
FC00000FC0
FC00000FC0
FC00000FC0
FC00000FC0
FC00000FC0
FC00000FC0
FC00000FC0
FC00000FC0
FC00000FC0
FC00000FC0
FC00000FC0
FC00000FC0
FC00000FC0
FC00000FC0
FC00000FC0
FC00000FC0
FC00000FC0
7E00001FC0
7E00001F80
7E00001F80
7E00001F80
7F00003F80
3F00003F00
3F80007F00
1FC000FE00
1FF003FE00
0FFF3FFC00
07FFFFF800
03FFFFF000
01FFFFE000
007FFF8000
000FFC0000
ENDCHAR
STARTCHAR 00DB
ENCODING 219
SWIDTH 660 0
DWIDTH 44 0
BBX 34 63 5 -1
BITMAP
0003F00000
0007F80000
0007FC0000
000FBC0000
001F3E0000
003E1F0000
003C0F8000
0078078000
00F003C000
0000000000
0000000000
0000000000
0000000000
FC00000FC0
FC00000FC0
FC00000FC0
FC00000FC0
FC00000FC0
FC00000FC0
FC00000FC0
FC00000FC0
FC00000FC0
FC00000FC0
FC00000FC0
FC00000FC0
FC00000FC0
FC00000FC0
FC00000FC0
FC00000FC0
FC00000FC0
FC00000FC0
FC00000FC0
FC00000FC0
FC00000FC0
FC00000FC0
FC00000FC0
FC00000FC0
FC00000FC0
FC00000FC0
FC00000FC0
FC00000FC0
FC00000FC0
FC00000FC0
FC00000FC0
FC00000FC0
FC00000FC0
FC00000FC0
FC00000FC0
7E00001FC0
7E00001F80
7E00001F80
7E00001F80
7F00003F80
3F00003F00
3F80007F00
1FC000FE00
1FF003FE00
0FFF3FFC00
07FFFFF800
03FFFFF000
01FFFFE000
007FFF8000
000FFC0000
ENDCHAR
STARTCHAR 00DC
ENCODING 220
SWIDTH 660 0
DWIDTH 44 0
BBX 34 62 5 -1
BITMAP
00FC0FC000
00FC0FC000
00FC0FC000
00FC0FC000
00FC0FC000
00FC0FC000
00FC0FC000
0000000000
0000000000
0000000000
0000000000
0000000000
FC00000FC0
FC00000FC0
FC00000FC0
FC00000FC0
FC00000FC0
FC00000FC0
FC00000FC0
FC00000FC0
FC00000FC0
FC00000FC0
FC00000FC0
FC00000FC0
FC00000FC0
FC00000FC0
FC00000FC0
FC00000FC0
FC00000FC0
FC00000FC0
FC00000FC0
FC00000FC0
FC00000FC0
FC00000FC0
FC00000FC0
FC00000FC0
FC00000FC0
FC00000FC0
FC00000FC0
FC00000FC0
FC00000FC0
FC00000FC0
FC00000FC0
FC00000FC0
FC00000FC0
FC00000FC0
FC00000FC0
7E00001FC0
7E00001F80
7E00001F80
7E00001F80
7F00003F80
3F00003F00
3F80007F00
1FC000FE00
1FF003FE00
0FFF3FFC00
07FFFFF800
03FFFFF000
01FFFFE000
007FFF8000
000FFC0000
ENDCHAR
STARTCHAR 00DD
ENCODING 221
SWIDTH 555 0
DWIDTH 37 0
BBX 37 62 0 0
BITMAP
00000F8000
00001F0000
00003F0000
00003E0000
00007C0000
0000F80000
0000F80000
0001F00000
0003E00000
0000000000
0000000000
0000000000
0000000000
FE000003F8
7E000003F0
7F000007F0
3F000007E0
1F80000FC0
1FC0001FC0
0FC0001F80
0FE0003F80
07E0003F00
03F0007E00
03F800FE00
01F800FC00
01FC01FC00
00FC01F800
007E03F000
007F07F000
003F07E000
003F8FC000
001F8FC000
000FDF8000
000FFF8000
0007FF0000
0003FE0000
0003FE0000
0001FC0000
0001FC0000
0001F80000
0001F80000
0001F80000
0001F80000
0001F80000
0001F80000
0001F80000
0001F80000
0001F80000
0001F80000
0001F80000
0001F80000
0001F80000
0001F80000
0001F80000
0001F80000
0001F80000
0001F80000
0001F80000
0001F80000
0001F80000
0001F80000
0001F80000
ENDCHAR
STARTCHAR 00DE
ENCODING 222
SWIDTH 540 0
DWIDTH 36 0
BBX 28 49 6 0
BITMAP
FC000000
FC000000
FC000000
FC000000
FC000000
FC000000
FC000000
FC000000
FC000000
FFFFE000
FFFFFC00
FFFFFE00
FFFFFF80
FFFFFF80
FC00FFC0
FC003FE0
FC000FE0
FC000FE0
FC0007F0
FC0007F0
FC0003F0
FC0003F0
FC0003F0
FC0003F0
FC0003F0
FC0003F0
FC0003F0
FC0007F0
FC0007F0
FC000FE0
FC001FE0
FC003FE0
FC03FFC0
FFFFFF80
FFFFFF00
FFFFFE00
FFFFF800
FFFFC000
FC000000
FC000000
FC000000
FC000000
FC000000
FC000000
FC000000
FC000000
FC000000
FC000000
FC000000
ENDCHAR
STARTCHAR 00DF
ENCODING 223
SWIDTH 570 0
DWIDTH 38 0
BBX 30 52 5 -1
BITMAP
003FC000
01FFF000
07FFFC00
0FFFFE00
1FFFFF00
1FE0FF00
3F801F80
3F000F80
7E000FC0
7E0007C0
7C0007C0
7C0007C0
FC000FC0
FC007FE0
FC00FFE0
FC01FE00
FC03F800
FC07E000
FC07C000
FC0FC000
FC0F8000
FC0F8000
FC0F8000
FC0F8000
FC0FC000
FC0FC000
FC0FE000
FC07F000
FC07FC00
FC03FE00
FC01FF80
FC00FFC0
FC003FE0
FC001FF0
FC0007F8
FC0003F8
FC0001FC
FC0000FC
FC0000FC
FC00007C
FC00007C
FC00007C
FC0000FC
FC0000FC
FC0000FC
FC6001F8
FC7C07F8
FC7FFFF0
FC7FFFE0
FC7FFFC0
FC3FFF80
0007FC00
ENDCHAR
STARTCHAR 00E0
ENCODING 224
SWIDTH 555 0
DWIDTH 37 0
BBX 27 55 4 -1
BITMAP
1F800000
0FC00000
07E00000
03E00000
01F00000
01F80000
00F80000
007C0000
003E0000
001E0000
001F0000
000F8000
00078000
00000000
00000000
00000000
00040000
03FFE000
1FFFFC00
3FFFFE00
3FFFFF00
3FFFFF80
3E007F80
30001FC0
00000FC0
000007C0
000007E0
000003E0
000003E0
000003E0
000003E0
007FFFE0
03FFFFE0
0FFFFFE0
1FFFFFE0
3FFFFFE0
7F8003E0
7E0003E0
FC0003E0
FC0003E0
F80003E0
F80003E0
F80007E0
F80007E0
F8000FE0
F8000FE0
FC001FE0
FC003FE0
FE007FE0
7FC1FBE0
3FFFFBE0
3FFFF3E0
1FFFE3E0
07FF83E0
01FE0000
ENDCHAR
STARTCHAR 00E1
ENCODING 225
SWIDTH 555 0
DWIDTH 37 0
BBX 27 55 4 -1
BITMAP
00003E00
00007E00
0000FC00
0001F800
0001F000
0003E000
0007E000
0007C000
000F8000
001F0000
001F0000
003E0000
007C0000
00000000
00000000
00000000
00040000
03FFE000
1FFFFC00
3FFFFE00
3FFFFF00
3FFFFF80
3E007F80
30001FC0
00000FC0
000007C0
000007E0
000003E0
000003E0
000003E0
000003E0
007FFFE0
03FFFFE0
0FFFFFE0
1FFFFFE0
3FFFFFE0
7F8003E0
7E0003E0
FC0003E0
FC0003E0
F80003E0
F80003E0
F80007E0
F80007E0
F8000FE0
F8000FE0
FC001FE0
FC003FE0
FE007FE0
7FC1FBE0
3FFFFBE0
3FFFF3E0
1FFFE3E0
07FF83E0
01FE0000
ENDCHAR
STARTCHAR 00E2
ENCODING 226
SWIDTH 555 0
DWIDTH 37 0
BBX 27 55 4 -1
BITMAP
001F0000
001F0000
003F8000
007F8000
007FC000
00FBE000
00F1E000
01F1F000
01E0F000
03C07800
07C07C00
07803C00
0F001E00
00000000
00000000
00000000
00040000
03FFE000
1FFFFC00
3FFFFE00
3FFFFF00
3FFFFF80
3E007F80
30001FC0
00000FC0
000007C0
000007E0
000003E0
000003E0
000003E0
000003E0
007FFFE0
03FFFFE0
0FFFFFE0
1FFFFFE0
3FFFFFE0
7F8003E0
7E0003E0
FC0003E0
FC0003E0
F80003E0
F80003E0
F80007E0
F80007E0
F8000FE0
F8000FE0
FC001FE0
FC003FE0
FE007FE0
7FC1FBE0
3FFFFBE0
3FFFF3E0
1FFFE3E0
07FF83E0
01FE0000
ENDCHAR
STARTCHAR 00E3
ENCODING 227
SWIDTH 555 0
DWIDTH 37 0
BBX 27 53 4 -1
BITMAP
01F01E00
03F81E00
07FC1E00
07FE1E00
0F9F3E00
0F0FFC00
0F07FC00
0F03F800
0E01F000
00000000
00000000
00000000
00000000
00000000
00040000
03FFE000
1FFFFC00
3FFFFE00
3FFFFF00
3FFFFF80
3E007F80
30001FC0
00000FC0
000007C0
000007E0
000003E0
000003E0
000003E0
000003E0
007FFFE0
03FFFFE0
0FFFFFE0
1FFFFFE0
3FFFFFE0
7F8003E0
7E0003E0
FC0003E0
FC0003E0
F80003E0
F80003E0
F80007E0
F80007E0
F8000FE0
F8000FE0
FC001FE0
FC003FE0
FE007FE0
7FC1FBE0
3FFFFBE0
3FFFF3E0
1FFFE3E0
07FF83E0
01FE0000
ENDCHAR
STARTCHAR 00E4
ENCODING 228
SWIDTH 555 0
DWIDTH 37 0
BBX 27 52 4 -1
BITMAP
07E0FC00
07E0FC00
07E0FC00
07E0FC00
07E0FC00
07E0FC00
07E0FC00
00000000
00000000
00000000
00000000
00000000
00000000
00040000
03FFE000
1FFFFC00
3FFFFE00
3FFFFF00
3FFFFF80
3E007F80
30001FC0
00000FC0
000007C0
000007E0
000003E0
000003E0
000003E0
000003E0
007FFFE0
03FFFFE0
0FFFFFE0
1FFFFFE0
3FFFFFE0
7F8003E0
7E0003E0
FC0003E0
FC0003E0
F80003E0
F80003E0
F80007E0
F80007E0
F8000FE0
F8000FE0
FC001FE0
FC003FE0
FE007FE0
7FC1FBE0
3FFFFBE0
3FFFF3E0
1FFFE3E0
07FF83E0
01FE0000
ENDCHAR
STARTCHAR 00E5
ENCODING 229
SWIDTH 555 0
DWIDTH 37 0
BBX 27 60 4 -1
BITMAP
001F0000
007FC000
00FFE000
01FFF000
01F1F000
03C07800
03C07800
03803800
07803C00
07803C00
07803800
03C07800
03C07800
03E0F800
01FFF000
00FFE000
007FC000
003F8000
00000000
00000000
00000000
00040000
03FFE000
1FFFFC00
3FFFFE00
3FFFFF00
3FFFFF80
3E007F80
30001FC0
00000FC0
000007C0
000007E0
000003E0
000003E0
000003E0
000003E0
007FFFE0
03FFFFE0
0FFFFFE0
1FFFFFE0
3FFFFFE0
7F8003E0
7E0003E0
FC0003E0
FC0003E0
F80003E0
F80003E0
F80007E0
F80007E0
F8000FE0
F8000FE0
FC001FE0
FC003FE0
FE007FE0
7FC1FBE0
3FFFFBE0
3FFFF3E0
1FFFE3E0
07FF83E0
01FE0000
ENDCHAR
STARTCHAR 00E6
ENCODING 230
SWIDTH 885 0
DWIDTH 59 0
BBX 52 39 4 -1
BITMAP
00040000040000
03FFE000FFE000
1FFFF803FFF800
3FFFFE0FFFFC00
3FFFFF1FFFFE00
3FFFFFBFFFFF00
3E007FFF803F80
30001FFE001FC0
00000FFC000FC0
000007FC0007E0
000007F80007E0
000003F00003E0
000003F00003E0
000003F00003F0
000003F00003F0
007FFFE00001F0
03FFFFFFFFFFF0
0FFFFFFFFFFFF0
1FFFFFFFFFFFF0
3FFFFFFFFFFFF0
7F8003FFFFFFF0
7E0003E0000000
FC0003E0000000
FC0003E0000000
F80003F0000000
F80003F0000000
F80007F0000000
F80007F0000000
F8000FF8000000
F8000FFC000000
FC001FFC000000
FC003FFE000060
FE007E7F8003E0
7FC1FE3FE01FE0
3FFFFC1FFFFFE0
3FFFF80FFFFFE0
1FFFE007FFFFC0
07FFC001FFFE00
01FE00003FE000
ENDCHAR
STARTCHAR 00E7
ENCODING 231
SWIDTH 495 0
DWIDTH 33 0
BBX 26 50 3 -12
BITMAP
001FFE00
007FFFC0
01FFFFC0
03FFFFC0
07FFFFC0
0FF003C0
1FE00040
1FC00000
3F800000
3F000000
7F000000
7E000000
7E000000
7E000000
7C000000
FC000000
FC000000
FC000000
FC000000
FC000000
FC000000
FC000000
7C000000
7C000000
7E000000
7E000000
7E000000
3F000000
3F000000
1F800000
1FC00000
0FF000C0
0FFC0FC0
07FFFFC0
03FFFFC0
00FFFFC0
003FFF00
000FF800
0000F000
00007800
00007800
00003800
00003C00
00003C00
00007C00
0020FC00
003FFC00
003FF800
003FF000
001FC000
ENDCHAR
STARTCHAR 00E8
ENCODING 232
SWIDTH 555 0
DWIDTH 37 0
BBX 31 55 3 -1
BITMAP
03F00000
01F80000
00F80000
007C0000
007E0000
003E0000
001F0000
000F8000
000F8000
0007C000
0003E000
0001E000
0000F000
00000000
00000000
00000000
00008000
001FFC00
00FFFF00
01FFFF80
03FFFFC0
07FFFFE0
0FF00FF0
1FC003F8
1F8001F8
3F0000F8
3F0000FC
3E00007C
7E00007C
7E00007E
7C00007E
7C00007E
FFFFFFFE
FFFFFFFE
FFFFFFFE
FFFFFFFE
FFFFFFFE
FC000000
FC000000
7C000000
7C000000
7E000000
7E000000
7E000000
3F000000
3F000000
1F800004
1FC0000C
0FF0007C
07FE03FC
03FFFFFC
01FFFFFC
00FFFFF8
003FFFC0
0007FC00
ENDCHAR
STARTCHAR 00E9
ENCODING 233
SWIDTH 555 0
DWIDTH 37 0
BBX 31 55 3 -1
BITMAP
00000FC0
00000F80
00001F80
00003F00
00003E00
00007C00
0000F800
0001F800
0001F000
0003E000
0007C000
00078000
000F8000
00000000
00000000
00000000
00008000
001FFC00
00FFFF00
01FFFF80
03FFFFC0
07FFFFE0
0FF00FF0
1FC003F8
1F8001F8
3F0000F8
3F0000FC
3E00007C
7E00007C
7E00007E
7C00007E
7C00007E
FFFFFFFE
FFFFFFFE
FFFFFFFE
FFFFFFFE
FFFFFFFE
FC000000
FC000000
7C000000
7C000000
7E000000
7E000000
7E000000
3F000000
3F000000
1F800004
1FC0000C
0FF0007C
07FE03FC
03FFFFFC
01FFFFFC
00FFFFF8
003FFFC0
0007FC00
ENDCHAR
STARTCHAR 00EA
ENCODING 234
SWIDTH 555 0
DWIDTH 37 0
BBX 31 55 3 -1
BITMAP
0003C000
0007E000
0007F000
000FF000
000FF800
001F7800
003E7C00
003C3E00
007C1E00
00781F00
00F00F00
01F00780
01E00780
00000000
00000000
00000000
00008000
001FFC00
00FFFF00
01FFFF80
03FFFFC0
07FFFFE0
0FF00FF0
1FC003F8
1F8001F8
3F0000F8
3F0000FC
3E00007C
7E00007C
7E00007E
7C00007E
7C00007E
FFFFFFFE
FFFFFFFE
FFFFFFFE
FFFFFFFE
FFFFFFFE
FC000000
FC000000
7C000000
7C000000
7E000000
7E000000
7E000000
3F000000
3F000000
1F800004
1FC0000C
0FF0007C
07FE03FC
03FFFFFC
01FFFFFC
00FFFFF8
003FFFC0
0007FC00
ENDCHAR
STARTCHAR 00EB
ENCODING 235
SWIDTH 555 0
DWIDTH 37 0
BBX 31 52 3 -1
BITMAP
01F81F80
01F81F80
01F81F80
01F81F80
01F81F80
01F81F80
01F81F80
00000000
00000000
00000000
00000000
00000000
00000000
00008000
001FFC00
00FFFF00
01FFFF80
03FFFFC0
07FFFFE0
0FF00FF0
1FC003F8
1F8001F8
3F0000F8
3F0000FC
3E00007C
7E00007C
7E00007E
7C00007E
7C00007E
FFFFFFFE
FFFFFFFE
FFFFFFFE
FFFFFFFE
FFFFFFFE
FC000000
FC000000
7C000000
7C000000
7E000000
7E000000
7E000000
3F000000
3F000000
1F800004
1FC0000C
0FF0007C
07FE03FC
03FFFFFC
01FFFFFC
00FFFFF8
003FFFC0
0007FC00
ENDCHAR
STARTCHAR 00EC
ENCODING 236
SWIDTH 255 0
DWIDTH 17 0
BBX 14 54 -2 0
BITMAP
FC00
7E00
3F00
1F00
0F80
0FC0
07C0
03E0
01F0
01F0
00F8
007C
003C
0000
0000
0000
0000
00F8
00F8
00F8
00F8
00F8
00F8
00F8
00F8
00F8
00F8
00F8
00F8
00F8
00F8
00F8
00F8
00F8
00F8
00F8
00F8
00F8
00F8
00F8
00F8
00F8
00F8
00F8
00F8
00F8
00F8
00F8
00F8
00F8
00F8
00F8
00F8
00F8
ENDCHAR
STARTCHAR 00ED
ENCODING 237
SWIDTH 255 0
DWIDTH 17 0
BBX 14 54 4 0
BITMAP
00FC
00FC
01F8
03F0
03E0
07C0
0FC0
0F80
1F00
3E00
3E00
7C00
F800
0000
0000
0000
0000
3E00
3E00
3E00
3E00
3E00
3E00
3E00
3E00
3E00
3E00
3E00
3E00
3E00
3E00
3E00
3E00
3E00
3E00
3E00
3E00
3E00
3E00
3E00
3E00
3E00
3E00
3E00
3E00
3E00
3E00
3E00
3E00
3E00
3E00
3E00
3E00
3E00
ENDCHAR
STARTCHAR 00EE
ENCODING 238
SWIDTH 255 0
DWIDTH 17 0
BBX 19 54 -1 0
BITMAP
01F000
01F000
03F800
07F800
07FC00
0FBE00
0F1E00
1F1F00
3E0F00
3C0780
7C07C0
7803C0
F001E0
000000
000000
000000
000000
01F000
01F000
01F000
01F000
01F000
01F000
01F000
01F000
01F000
01F000
01F000
01F000
01F000
01F000
01F000
01F000
01F000
01F000
01F000
01F000
01F000
01F000
01F000
01F000
01F000
01F000
01F000
01F000
01F000
01F000
01F000
01F000
01F000
01F000
01F000
01F000
01F000
ENDCHAR
STARTCHAR 00EF
ENCODING 239
SWIDTH 255 0
DWIDTH 17 0
BBX 17 51 0 0
BITMAP
FC1F80
FC1F80
FC1F80
FC1F80
FC1F80
FC1F80
FC1F80
000000
000000
000000
000000
000000
000000
000000
03E000
03E000
03E000
03E000
03E000
03E000
03E000
03E000
03E000
03E000
03E000
03E000
03E000
03E000
03E000
03E000
03E000
03E000
03E000
03E000
03E000
03E000
03E000
03E000
03E000
03E000
03E000
03E000
03E000
03E000
03E000
03E000
03E000
03E000
03E000
03E000
03E000
ENDCHAR
STARTCHAR 00F0
ENCODING 240
SWIDTH 555 0
DWIDTH 37 0
BBX 31 52 3 -1
BITMAP
03F80000
01FC0020
00FE01E0
007F0FE0
003F3FE0
003FFF00
001FFC00
007FE000
01FFE000
0FFFF000
1FE3F800
0F01FC00
0C00FE00
00007E00
00003F00
001FFF80
007FFFC0
01FFFFC0
03FFFFE0
07FFFFE0
0FF80FF0
1FE003F0
1FC001F8
3F8001F8
3F0001F8
7F0000FC
7E0000FC
7E0000FC
7E0000FC
7C00007C
FC00007C
FC00007E
FC00007E
FC00007E
FC00007E
FC00007E
FC00007C
7C0000FC
7E0000FC
7E0000FC
7E0000FC
3F0001F8
3F0001F8
3F8003F8
1FC007F0
1FE00FE0
0FF83FE0
07FFFFC0
03FFFF80
01FFFF00
007FFC00
000FE000
ENDCHAR
STARTCHAR 00F1
ENCODING 241
SWIDTH 570 0
DWIDTH 38 0
BBX 28 52 5 0
BITMAP
00F80700
01FC0F00
03FE0F00
03FF0F00
07CF8F00
0787FE00
0783FE00
0781FC00
0780F800
00000000
00000000
00000000
00000000
00000000
00008000
FC0FFC00
FC3FFE00
FC7FFF00
FCFFFF80
FDFFFFC0
FFE01FC0
FFC00FE0
FF8007E0
FF0007E0
FE0003F0
FE0003F0
FE0003F0
FC0001F0
FC0001F0
FC0001F0
FC0001F0
FC0001F0
FC0001F0
FC0001F0
FC0001F0
FC0001F0
FC0001F0
FC0001F0
FC0001F0
FC0001F0
FC0001F0
FC0001F0
FC0001F0
FC0001F0
FC0001F0
FC0001F0
FC0001F0
FC0001F0
FC0001F0
FC0001F0
FC0001F0
FC0001F0
ENDCHAR
STARTCHAR 00F2
ENCODING 242
SWIDTH 555 0
DWIDTH 37 0
BBX 31 55 3 -1
BITMAP
07E00000
03F00000
01F80000
00F80000
007C0000
007E0000
003E0000
001F0000
000F8000
00078000
0007C000
0003E000
0001E000
00000000
00000000
00000000
00010000
003FF800
00FFFE00
03FFFF80
07FFFFC0
0FFFFFC0
0FF01FE0
1FC007F0
1F8003F0
3F0003F8
3F0001F8
7E0001FC
7E0000FC
7E0000FC
7E0000FC
7C00007C
FC00007C
FC00007E
FC00007E
FC00007E
FC00007E
FC00007E
FC00007C
7C00007C
7C0000FC
7E0000FC
7E0000FC
7E0000FC
3F0001F8
3F0001F8
3F8003F8
1FC007F0
1FE00FE0
0FF83FE0
07FFFFC0
03FFFF80
01FFFF00
007FFC00
000FE000
ENDCHAR
STARTCHAR 00F3
ENCODING 243
SWIDTH 555 0
DWIDTH 37 0
BBX 31 55 3 -1
BITMAP
00001F80
00001F80
00003F00
00007E00
00007C00
0000F800
0001F800
0001F000
0003E000
0007C000
0007C000
000F8000
001F0000
00000000
00000000
00000000
00010000
003FF800
00FFFE00
03FFFF80
07FFFFC0
0FFFFFC0
0FF01FE0
1FC007F0
1F8003F0
3F0003F8
3F0001F8
7E0001FC
7E0000FC
7E0000FC
7E0000FC
7C00007C
FC00007C
FC00007E
FC00007E
FC00007E
FC00007E
FC00007E
FC00007C
7C00007C
7C0000FC
7E0000FC
7E0000FC
7E0000FC
3F0001F8
3F0001F8
3F8003F8
1FC007F0
1FE00FE0
0FF83FE0
07FFFFC0
03FFFF80
01FFFF00
007FFC00
000FE000
ENDCHAR
STARTCHAR 00F4
ENCODING 244
SWIDTH 555 0
DWIDTH 37 0
BBX 31 55 3 -1
BITMAP
0007C000
0007C000
000FE000
001FE000
001FF000
003EF800
003C7800
007C7C00
00783C00
00F01E00
01F01F00
01E00F00
03C00780
00000000
00000000
00000000
00010000
003FF800
00FFFE00
03FFFF80
07FFFFC0
0FFFFFC0
0FF01FE0
1FC007F0
1F8003F0
3F0003F8
3F0001F8
7E0001FC
7E0000FC
7E0000FC
7E0000FC
7C00007C
FC00007C
FC00007E
FC00007E
FC00007E
FC00007E
FC00007E
FC00007C
7C00007C
7C0000FC
7E0000FC
7E0000FC
7E0000FC
3F0001F8
3F0001F8
3F8003F8
1FC007F0
1FE00FE0
0FF83FE0
07FFFFC0
03FFFF80
01FFFF00
007FFC00
000FE000
ENDCHAR
STARTCHAR 00F5
ENCODING 245
SWIDTH 555 0
DWIDTH 37 0
BBX 31 53 3 -1
BITMAP
007C0780
00FE0780
01FF0780
01FF8780
03E7CF80
03C3FF00
03C1FF00
03C0FE00
03807C00
00000000
00000000
00000000
00000000
00000000
00010000
003FF800
00FFFE00
03FFFF80
07FFFFC0
0FFFFFC0
0FF01FE0
1FC007F0
1F8003F0
3F0003F8
3F0001F8
7E0001FC
7E0000FC
7E0000FC
7E0000FC
7C00007C
FC00007C
FC00007E
FC00007E
FC00007E
FC00007E
FC00007E
FC00007C
7C00007C
7C0000FC
7E0000FC
7E0000FC
7E0000FC
3F0001F8
3F0001F8
3F8003F8
1FC007F0
1FE00FE0
0FF83FE0
07FFFFC0
03FFFF80
01FFFF00
007FFC00
000FE000
ENDCHAR
STARTCHAR 00F6
ENCODING 246
SWIDTH 555 0
DWIDTH 37 0
BBX 31 52 3 -1
BITMAP
01F83F00
01F83F00
01F83F00
01F83F00
01F83F00
01F83F00
01F83F00
00000000
00000000
00000000
00000000
00000000
00000000
00010000
003FF800
00FFFE00
03FFFF80
07FFFFC0
0FFFFFC0
0FF01FE0
1FC007F0
1F8003F0
3F0003F8
3F0001F8
7E0001FC
7E0000FC
7E0000FC
7E0000FC
7C00007C
FC00007C
FC00007E
FC00007E
FC00007E
FC00007E
FC00007E
FC00007C
7C00007C
7C0000FC
7E0000FC
7E0000FC
7E0000FC
3F0001F8
3F0001F8
3F8003F8
1FC007F0
1FE00FE0
0FF83FE0
07FFFFC0
03FFFF80
01FFFF00
007FFC00
000FE000
ENDCHAR
STARTCHAR 00F7
ENCODING 247
SWIDTH 765 0
DWIDTH 51 0
BBX 38 32 6 5
BITMAP
0000FE0000
0000FE0000
0000FE0000
0000FE0000
0000FE0000
0000FE0000
0000FE0000
0000FE0000
0000000000
0000000000
0000000000
0000000000
0000000000
FFFFFFFFFC
FFFFFFFFFC
FFFFFFFFFC
FFFFFFFFFC
FFFFFFFFFC
FFFFFFFFFC
0000000000
0000000000
0000000000
0000000000
0000000000
0000FE0000
0000FE0000
0000FE0000
0000FE0000
0000FE0000
0000FE0000
0000FE0000
0000FE0000
ENDCHAR
STARTCHAR 00F8
ENCODING 248
SWIDTH 555 0
DWIDTH 37 0
BBX 32 42 2 -2
BITMAP
00000006
0000800F
001FFC0F
007FFF1F
01FFFFBE
03FFFFFC
07FFFFF8
07F80FF8
0FE003F8
0FC003F8
1F8003FC
1F8007FC
3F000FFE
3F001F7E
3F001E7E
3F003E7E
3E007C3E
7E00F83E
7E00F03F
7E01F03F
7E03E03F
7E07C03F
7E07803F
7E0F803E
3E1F003E
3E3E007E
3F3E007E
3F7C007E
3FF8007E
1FF000FC
1FF000FC
1FE001FC
0FE003F8
0FF007F0
0FFC1FF0
1FFFFFE0
3FFFFFC0
3CFFFF80
7C3FFE00
F807F000
70000000
20000000
ENDCHAR
STARTCHAR 00F9
ENCODING 249
SWIDTH 570 0
DWIDTH 38 0
BBX 28 55 5 -1
BITMAP
0F800000
0FC00000
07E00000
03F00000
01F00000
00F80000
00FC0000
007C0000
003E0000
001F0000
000F0000
000F8000
0007C000
00000000
00000000
00000000
00000000
FC0003F0
FC0003F0
FC0003F0
FC0003F0
FC0003F0
FC0003F0
FC0003F0
FC0003F0
FC0003F0
FC0003F0
FC0003F0
FC0003F0
FC0003F0
FC0003F0
FC0003F0
FC0003F0
FC0003F0
FC0003F0
FC0003F0
FC0003F0
FC0003F0
FC0003F0
FC0003F0
FC0003F0
FC0003F0
FC0003F0
FC0007F0
7C0007F0
7C0007F0
7E000FF0
7F001FF0
3F803FF0
3FE1FFF0
1FFFFBF0
1FFFF3F0
0FFFE3F0
03FF83F0
00FE0000
ENDCHAR
STARTCHAR 00FA
ENCODING 250
SWIDTH 570 0
DWIDTH 38 0
BBX 28 55 5 -1
BITMAP
00003F00
00007E00
0000FC00
0000F800
0001F000
0003F000
0003E000
0007C000
000F8000
000F8000
001F0000
003E0000
003C0000
00000000
00000000
00000000
00000000
FC0003F0
FC0003F0
FC0003F0
FC0003F0
FC0003F0
FC0003F0
FC0003F0
FC0003F0
FC0003F0
FC0003F0
FC0003F0
FC0003F0
FC0003F0
FC0003F0
FC0003F0
FC0003F0
FC0003F0
FC0003F0
FC0003F0
FC0003F0
FC0003F0
FC0003F0
FC0003F0
FC0003F0
FC0003F0
FC0003F0
FC0007F0
7C0007F0
7C0007F0
7E000FF0
7F001FF0
3F803FF0
3FE1FFF0
1FFFFBF0
1FFFF3F0
0FFFE3F0
03FF83F0
00FE0000
ENDCHAR
STARTCHAR 00FB
ENCODING 251
SWIDTH 570 0
DWIDTH 38 0
BBX 28 55 5 -1
BITMAP
001F0000
001F8000
003F8000
003FC000
007FC000
007BE000
00F9E000
01F0F000
01E0F800
03E07800
03C03C00
07803C00
0F801E00
00000000
00000000
00000000
00000000
FC0003F0
FC0003F0
FC0003F0
FC0003F0
FC0003F0
FC0003F0
FC0003F0
FC0003F0
FC0003F0
FC0003F0
FC0003F0
FC0003F0
FC0003F0
FC0003F0
FC0003F0
FC0003F0
FC0003F0
FC0003F0
FC0003F0
FC0003F0
FC0003F0
FC0003F0
FC0003F0
FC0003F0
FC0003F0
FC0003F0
FC0007F0
7C0007F0
7C0007F0
7E000FF0
7F001FF0
3F803FF0
3FE1FFF0
1FFFFBF0
1FFFF3F0
0FFFE3F0
03FF83F0
00FE0000
ENDCHAR
STARTCHAR 00FC
ENCODING 252
SWIDTH 570 0
DWIDTH 38 0
BBX 28 52 5 -1
BITMAP
07E0FC00
07E0FC00
07E0FC00
07E0FC00
07E0FC00
07E0FC00
07E0FC00
00000000
00000000
00000000
00000000
00000000
00000000
00000000
FC0003F0
FC0003F0
FC0003F0
FC0003F0
FC0003F0
FC0003F0
FC0003F0
FC0003F0
FC0003F0
FC0003F0
FC0003F0
FC0003F0
FC0003F0
FC0003F0
FC0003F0
FC0003F0
FC0003F0
FC0003F0
FC0003F0
FC0003F0
FC0003F0
FC0003F0
FC0003F0
FC0003F0
FC0003F0
FC0003F0
FC0007F0
7C0007F0
7C0007F0
7E000FF0
7F001FF0
3F803FF0
3FE1FFF0
1FFFFBF0
1FFFF3F0
0FFFE3F0
03FF83F0
00FE0000
ENDCHAR
STARTCHAR 00FD
ENCODING 253
SWIDTH 540 0
DWIDTH 36 0
BBX 32 68 2 -14
BITMAP
00000FC0
00001F80
00001F00
00003E00
00007E00
00007C00
0000F800
0001F000
0001F000
0003E000
0007C000
000F8000
000F0000
00000000
00000000
00000000
00000000
FC00003F
FC00003E
7C00007E
7E00007E
7E00007C
3E0000FC
3F0000FC
3F0000F8
1F0001F8
1F8001F8
0F8003F0
0FC003F0
0FC003F0
07C007E0
07E007E0
07E007C0
03E00FC0
03F00FC0
01F00F80
01F01F80
01F81F80
00F81F00
00F83F00
00FC3F00
007C7E00
007E7E00
007E7C00
003EFC00
003FFC00
001FF800
001FF800
001FF800
000FF000
000FF000
000FF000
0007E000
0007E000
0007C000
000FC000
000FC000
000F8000
001F8000
001F8000
003F0000
003F0000
00FE0000
1FFE0000
1FFC0000
1FF80000
1FF00000
1FC00000
ENDCHAR
STARTCHAR 00FE
ENCODING 254
SWIDTH 570 0
DWIDTH 38 0
BBX 30 65 5 -14
BITMAP
FC000000
FC000000
FC000000
FC000000
FC000000
FC000000
FC000000
FC000000
FC000000
FC000000
FC000000
FC000000
FC000000
FC008000
FC1FF800
FC3FFE00
FCFFFF00
FDFFFF80
FDFFFFC0
FFE01FE0
FFC00FE0
FF8007F0
FF0003F0
FF0001F8
FE0001F8
FE0001F8
FE0000F8
FC0000FC
FC0000FC
FC0000FC
FC0000FC
FC0000FC
FC0000FC
FC0000FC
FC0000FC
FC0000FC
FC0000FC
FC0000FC
FC0000F8
FE0001F8
FE0001F8
FE0001F8
FF0003F0
FF8003F0
FF8007F0
FFE00FE0
FFF83FC0
FDFFFFC0
FCFFFF80
FC7FFF00
FC3FFC00
FC07F000
FC000000
FC000000
FC000000
FC000000
FC000000
FC000000
FC000000
FC000000
FC000000
FC000000
FC000000
FC000000
FC000000
ENDCHAR
STARTCHAR 00FF
ENCODING 255
SWIDTH 540 0
DWIDTH 36 0
BBX 32 65 2 -14
BITMAP
01F81F80
01F81F80
01F81F80
01F81F80
01F81F80
01F81F80
01F81F80
00000000
00000000
00000000
00000000
00000000
00000000
00000000
FC00003F
FC00003E
7C00007E
7E00007E
7E00007C
3E0000FC
3F0000FC
3F0000F8
1F0001F8
1F8001F8
0F8003F0
0FC003F0
0FC003F0
07C007E0
07E007E0
07E007C0
03E00FC0
03F00FC0
01F00F80
01F01F80
01F81F80
00F81F00
00F83F00
00FC3F00
007C7E00
007E7E00
007E7C00
003EFC00
003FFC00
001FF800
001FF800
001FF800
000FF000
000FF000
000FF000
0007E000
0007E000
0007C000
000FC000
000FC000
000F8000
001F8000
001F8000
003F0000
003F0000
00FE0000
1FFE0000
1FFC0000
1FF80000
1FF00000
1FC00000
ENDCHAR
STARTCHAR 0100
ENCODING 256
SWIDTH 615 0
DWIDTH 41 0
BBX 40 60 1 0
BITMAP
001FFFF000
001FFFF000
001FFFF000
001FFFF000
001FFFF000
0000000000
0000000000
0000000000
0000000000
0000000000
0000000000
0000FE0000
0000FE0000
0001FF0000
0001FF0000
0001FF8000
0003FF8000
0003FF8000
0003EFC000
0007EFC000
0007E7C000
0007C7E000
000FC7E000
000FC3E000
000F83F000
001F83F000
001F81F000
001F01F800
003F01F800
003F00F800
003E00FC00
007E00FC00
007E007C00
007C007E00
00FC007E00
00FC003E00
00F8003F00
01F8003F00
01F8001F00
03F0001F80
03F0001F80
03F0000F80
07FFFFFFC0
07FFFFFFC0
07FFFFFFC0
0FFFFFFFE0
0FFFFFFFE0
0FC00003E0
1F800003F0
1F800003F0
1F800001F8
3F000001F8
3F000001F8
3F000001FC
7E000000FC
7E000000FC
7E000000FE
FE0000007E
FC0000007E
FC0000007F
ENDCHAR
STARTCHAR 0101
ENCODING 257
SWIDTH 555 0
DWIDTH 37 0
BBX 27 51 4 -1
BITMAP
0FFFFC00
0FFFFC00
0FFFFC00
0FFFFC00
0FFFFC00
00000000
00000000
00000000
00000000
00000000
00000000
00000000
00040000
03FFE000
1FFFFC00
3FFFFE00
3FFFFF00
3FFFFF80
3E007F80
30001FC0
00000FC0
000007C0
000007E0
000003E0
000003E0
000003E0
000003E0
007FFFE0
03FFFFE0
0FFFFFE0
1FFFFFE0
3FFFFFE0
7F8003E0
7E0003E0
FC0003E0
FC0003E0
F80003E0
F80003E0
F80007E0
F80007E0
F8000FE0
F8000FE0
FC001FE0
FC003FE0
FE007FE0
7FC1FBE0
3FFFFBE0
3FFFF3E0
1FFFE3E0
07FF83E0
01FE0000
ENDCHAR
STARTCHAR 0102
ENCODING 258
SWIDTH 615 0
DWIDTH 41 0
BBX 40 64 1 0
BITMAP
001C003800
001E003800
001E007800
001F007800
000F81F800
000FFFF000
0007FFE000
0003FFE000
0001FF8000
00003E0000
0000000000
0000000000
0000000000
0000000000
0000000000
0000FE0000
0000FE0000
0001FF0000
0001FF0000
0001FF8000
0003FF8000
0003FF8000
0003EFC000
0007EFC000
0007E7C000
0007C7E000
000FC7E000
000FC3E000
000F83F000
001F83F000
001F81F000
001F01F800
003F01F800
003F00F800
003E00FC00
007E00FC00
007E007C00
007C007E00
00FC007E00
00FC003E00
00F8003F00
01F8003F00
01F8001F00
03F0001F80
03F0001F80
03F0000F80
07FFFFFFC0
07FFFFFFC0
07FFFFFFC0
0FFFFFFFE0
0FFFFFFFE0
0FC00003E0
1F800003F0
1F800003F0
1F800001F8
3F000001F8
3F000001F8
3F000001FC
7E000000FC
7E000000FC
7E000000FE
FE0000007E
FC0000007E
FC0000007F
ENDCHAR
STARTCHAR 0103
ENCODING 259
SWIDTH 555 0
DWIDTH 37 0
BBX 27 53 4 -1
BITMAP
0F001E00
0F001E00
0F001C00
07803C00
07C07C00
07FFF800
03FFF800
01FFF000
00FFE000
001F0000
00000000
00000000
00000000
00000000
00040000
03FFE000
1FFFFC00
3FFFFE00
3FFFFF00
3FFFFF80
3E007F80
30001FC0
00000FC0
000007C0
000007E0
000003E0
000003E0
000003E0
000003E0
007FFFE0
03FFFFE0
0FFFFFE0
1FFFFFE0
3FFFFFE0
7F8003E0
7E0003E0
FC0003E0
FC0003E0
F80003E0
F80003E0
F80007E0
F80007E0
F8000FE0
F8000FE0
FC001FE0
FC003FE0
FE007FE0
7FC1FBE0
3FFFFBE0
3FFFF3E0
1FFFE3E0
07FF83E0
01FE0000
ENDCHAR
STARTCHAR 0104
ENCODING 260
SWIDTH 615 0
DWIDTH 41 0
BBX 42 62 1 -13
BITMAP
0000FE000000
0000FE000000
0001FF000000
0001FF000000
0001FF800000
0003FF800000
0003FF800000
0003EFC00000
0007EFC00000
0007E7C00000
0007C7E00000
000FC7E00000
000FC3E00000
000F83F00000
001F83F00000
001F81F00000
001F01F80000
003F01F80000
003F00F80000
003E00FC0000
007E00FC0000
007E007C0000
007C007E0000
00FC007E0000
00FC003E0000
00F8003F0000
01F8003F0000
01F8001F0000
03F0001F8000
03F0001F8000
03F0000F8000
07FFFFFFC000
07FFFFFFC000
07FFFFFFC000
0FFFFFFFE000
0FFFFFFFE000
0FC00003E000
1F800003F000
1F800003F000
1F800001F800
3F000001F800
3F000001F800
3F000001FC00
7E000000FC00
7E000000FC00
7E000000FE00
FE0000007E00
FC0000007E00
FC0000007F00
000000007800
000000007000
00000000F000
00000001E000
00000001E000
00000001E000
00000001E000
00000001E000
00000001F0C0
00000001FFC0
00000001FFC0
00000000FFC0
000000003F80
ENDCHAR
STARTCHAR 0105
ENCODING 261
SWIDTH 555 0
DWIDTH 37 0
BBX 30 51 4 -13
BITMAP
00040000
03FFE000
1FFFFC00
3FFFFE00
3FFFFF00
3FFFFF80
3E007F80
30001FC0
00000FC0
000007C0
000007E0
000003E0
000003E0
000003E0
000003E0
007FFFE0
03FFFFE0
0FFFFFE0
1FFFFFE0
3FFFFFE0
7F8003E0
7E0003E0
FC0003E0
FC0003E0
F80003E0
F80003E0
F80007E0
F80007E0
F8000FE0
F8000FE0
FC001FE0
FC003FE0
FE007FE0
7FC1FBE0
3FFFFBE0
3FFFF3E0
1FFFE3E0
07FF83E0
01FE0380
00000780
00000F00
00000F00
00001E00
00001E00
00001E00
00001E00
00001F04
00001FFC
00000FFC
000007FC
000001F8
ENDCHAR
STARTCHAR 0106
ENCODING 262
SWIDTH 630 0
DWIDTH 42 0
BBX 36 63 3 -1
BITMAP
000003F000
000003E000
000007C000
00000F8000
00000F8000
00001F0000
00003E0000
00003C0000
0000780000
0000000000
0000000000
0000000000
00001F8000
0003FFF800
000FFFFF00
003FFFFFC0
007FFFFFE0
00FFFFFFF0
01FF801FF0
03FE0003F0
07F80000F0
0FF0000070
0FE0000030
1FC0000010
1FC0000000
3F80000000
3F80000000
3F00000000
7F00000000
7F00000000
7E00000000
7E00000000
7E00000000
7E00000000
FE00000000
FE00000000
FE00000000
FE00000000
FE00000000
FE00000000
FE00000000
7E00000000
7E00000000
7E00000000
7E00000000
7E00000000
7F00000000
3F00000000
3F00000000
3F80000000
1F80000000
1FC0000000
0FE0000010
0FF0000070
07F80000F0
03FC0003F0
03FF000FF0
01FFFFFFF0
00FFFFFFE0
003FFFFFC0
001FFFFF00
0007FFFC00
00007FC000
ENDCHAR
STARTCHAR 0107
ENCODING 263
SWIDTH 495 0
DWIDTH 33 0
BBX 26 55 3 -1
BITMAP
00000FC0
00001F80
00001F00
00003F00
00007E00
00007C00
0000F800
0001F800
0001F000
0003E000
0007C000
00078000
000F8000
00000000
00000000
00000000
00000000
001FFE00
007FFFC0
01FFFFC0
03FFFFC0
07FFFFC0
0FF003C0
1FE00040
1FC00000
3F800000
3F000000
7F000000
7E000000
7E000000
7E000000
7C000000
FC000000
FC000000
FC000000
FC000000
FC000000
FC000000
FC000000
7C000000
7C000000
7E000000
7E000000
7E000000
3F000000
3F000000
1F800000
1FC00000
0FF000C0
0FFC0FC0
07FFFFC0
03FFFFC0
00FFFFC0
003FFF00
000FF800
ENDCHAR
STARTCHAR 0108
ENCODING 264
SWIDTH 630 0
DWIDTH 42 0
BBX 36 63 3 -1
BITMAP
00001F8000
00003FC000
00007FC000
00007BE000
0000F1F000
0001F0F800
0003E07800
0003C03C00
0007801E00
0000000000
0000000000
0000000000
00001F8000
0003FFF800
000FFFFF00
003FFFFFC0
007FFFFFE0
00FFFFFFF0
01FF801FF0
03FE0003F0
07F80000F0
0FF0000070
0FE0000030
1FC0000010
1FC0000000
3F80000000
3F80000000
3F00000000
7F00000000
7F00000000
7E00000000
7E00000000
7E00000000
7E00000000
FE00000000
FE00000000
FE00000000
FE00000000
FE00000000
FE00000000
FE00000000
7E00000000
7E00000000
7E00000000
7E00000000
7E00000000
7F00000000
3F00000000
3F00000000
3F80000000
1F80000000
1FC0000000
0FE0000010
0FF0000070
07F80000F0
03FC0003F0
03FF000FF0
01FFFFFFF0
00FFFFFFE0
003FFFFFC0
001FFFFF00
0007FFFC00
00007FC000
ENDCHAR
STARTCHAR 0109
ENCODING 265
SWIDTH 495 0
DWIDTH 33 0
BBX 26 55 3 -1
BITMAP
0001E000
0003F000
0007F000
0007F800
000FF800
000F7C00
001F3E00
001E1E00
003C1F00
007C0F00
00780780
00F007C0
00F003C0
00000000
00000000
00000000
00000000
001FFE00
007FFFC0
01FFFFC0
03FFFFC0
07FFFFC0
0FF003C0
1FE00040
1FC00000
3F800000
3F000000
7F000000
7E000000
7E000000
7E000000
7C000000
FC000000
FC000000
FC000000
FC000000
FC000000
FC000000
FC000000
7C000000
7C000000
7E000000
7E000000
7E000000
3F000000
3F000000
1F800000
1FC00000
0FF000C0
0FFC0FC0
07FFFFC0
03FFFFC0
00FFFFC0
003FFF00
000FF800
ENDCHAR
STARTCHAR 010A
ENCODING 266
SWIDTH 630 0
DWIDTH 42 0
BBX 36 62 3 -1
BITMAP
00001F8000
00001F8000
00001F8000
00001F8000
00001F8000
00001F8000
00001F8000
0000000000
0000000000
0000000000
0000000000
00001F8000
0003FFF800
000FFFFF00
003FFFFFC0
007FFFFFE0
00FFFFFFF0
01FF801FF0
03FE0003F0
07F80000F0
0FF0000070
0FE0000030
1FC0000010
1FC0000000
3F80000000
3F80000000
3F00000000
7F00000000
7F00000000
7E00000000
7E00000000
7E00000000
7E00000000
FE00000000
FE00000000
FE00000000
FE00000000
FE00000000
FE00000000
FE00000000
7E00000000
7E00000000
7E00000000
7E00000000
7E00000000
7F00000000
3F00000000
3F00000000
3F80000000
1F80000000
1FC0000000
0FE0000010
0FF0000070
07F80000F0
03FC0003F0
03FF000FF0
01FFFFFFF0
00FFFFFFE0
003FFFFFC0
001FFFFF00
0007FFFC00
00007FC000
ENDCHAR
STARTCHAR 010B
ENCODING 267
SWIDTH 495 0
DWIDTH 33 0
BBX 26 52 3 -1
BITMAP
0003F000
0003F000
0003F000
0003F000
0003F000
0003F000
0003F000
0003F000
00000000
00000000
00000000
00000000
00000000
00000000
001FFE00
007FFFC0
01FFFFC0
03FFFFC0
07FFFFC0
0FF003C0
1FE00040
1FC00000
3F800000
3F000000
7F000000
7E000000
7E000000
7E000000
7C000000
FC000000
FC000000
FC000000
FC000000
FC000000
FC000000
FC000000
7C000000
7C000000
7E000000
7E000000
7E000000
3F000000
3F000000
1F800000
1FC00000
0FF000C0
0FFC0FC0
07FFFFC0
03FFFFC0
00FFFFC0
003FFF00
000FF800
ENDCHAR
STARTCHAR 010C
ENCODING 268
SWIDTH 630 0
DWIDTH 42 0
BBX 36 63 3 -1
BITMAP
000F007C00
0007807800
0003C0F000
0003E1E000
0001F3E000
0000FFC000
00007F8000
00007F8000
00003F0000
0000000000
0000000000
0000000000
00001F8000
0003FFF800
000FFFFF00
003FFFFFC0
007FFFFFE0
00FFFFFFF0
01FF801FF0
03FE0003F0
07F80000F0
0FF0000070
0FE0000030
1FC0000010
1FC0000000
3F80000000
3F80000000
3F00000000
7F00000000
7F00000000
7E00000000
7E00000000
7E00000000
7E00000000
FE00000000
FE00000000
FE00000000
FE00000000
FE00000000
FE00000000
FE00000000
7E00000000
7E00000000
7E00000000
7E00000000
7E00000000
7F00000000
3F00000000
3F00000000
3F80000000
1F80000000
1FC0000000
0FE0000010
0FF0000070
07F80000F0
03FC0003F0
03FF000FF0
01FFFFFFF0
00FFFFFFE0
003FFFFFC0
001FFFFF00
0007FFFC00
00007FC000
ENDCHAR
STARTCHAR 010D
ENCODING 269
SWIDTH 495 0
DWIDTH 33 0
BBX 26 55 3 -1
BITMAP
01E00780
01F00780
00F00F00
00781F00
007C1E00
003C3E00
003E7C00
001F7800
001FF800
000FF000
0007F000
0007E000
0003C000
00000000
00000000
00000000
00000000
001FFE00
007FFFC0
01FFFFC0
03FFFFC0
07FFFFC0
0FF003C0
1FE00040
1FC00000
3F800000
3F000000
7F000000
7E000000
7E000000
7E000000
7C000000
FC000000
FC000000
FC000000
FC000000
FC000000
FC000000
FC000000
7C000000
7C000000
7E000000
7E000000
7E000000
3F000000
3F000000
1F800000
1FC00000
0FF000C0
0FFC0FC0
07FFFFC0
03FFFFC0
00FFFFC0
003FFF00
000FF800
ENDCHAR
STARTCHAR 010E
ENCODING 270
SWIDTH 690 0
DWIDTH 46 0
BBX 37 62 6 0
BITMAP
01F0078000
00F00F0000
00781E0000
003C3E0000
003E7C0000
001FF80000
000FF00000
000FF00000
0007E00000
0000000000
0000000000
0000000000
0000000000
FFFFC00000
FFFFFE0000
FFFFFFC000
FFFFFFF000
FFFFFFF800
FFFFFFFC00
FC000FFE00
FC0001FF00
FC0000FF80
FC00003FC0
FC00001FC0
FC00001FE0
FC00000FE0
FC000007E0
FC000007F0
FC000007F0
FC000003F0
FC000003F0
FC000003F0
FC000003F8
FC000003F8
FC000003F8
FC000001F8
FC000001F8
FC000001F8
FC000001F8
FC000001F8
FC000003F8
FC000003F8
FC000003F8
FC000003F0
FC000003F0
FC000003F0
FC000007F0
FC000007F0
FC000007E0
FC00000FE0
FC00000FE0
FC00001FC0
FC00003FC0
FC00007F80
FC0001FF00
FC0007FE00
FC03FFFC00
FFFFFFF800
FFFFFFF000
FFFFFFC000
FFFFFE0000
FFFFE00000
ENDCHAR
STARTCHAR 010F
ENCODING 271
SWIDTH 570 0
DWIDTH 38 0
BBX 41 52 3 -1
BITMAP
000000FC1F80
000000FC1F80
000000FC1F80
000000FC1F00
000000FC1F00
000000FC3F00
000000FC3E00
000000FC3E00
000000FC3E00
000000FC3E00
000000FC3C00
000000FC7C00
000000FC0000
000000FC0000
007FE0FC0000
01FFF8FC0000
03FFFCFC0000
07FFFEFC0000
0FFFFFFC0000
0FE01FFC0000
1FC00FFC0000
3F8007FC0000
3F0003FC0000
3F0001FC0000
7E0001FC0000
7E0001FC0000
7E0000FC0000
7C0000FC0000
7C0000FC0000
FC0000FC0000
FC0000FC0000
FC0000FC0000
FC0000FC0000
FC0000FC0000
FC0000FC0000
FC0000FC0000
7C0000FC0000
7C0000FC0000
7E0000FC0000
7E0000FC0000
7E0001FC0000
3E0001FC0000
3F0003FC0000
3F8003FC0000
1F8007FC0000
1FE00FFC0000
0FF83FFC0000
07FFFEFC0000
03FFFCFC0000
01FFF8FC0000
00FFF0FC0000
001F80000000
ENDCHAR
STARTCHAR 0110
ENCODING 272
SWIDTH 705 0
DWIDTH 47 0
BBX 43 49 0 0
BITMAP
03FFFF000000
03FFFFF80000
03FFFFFF0000
03FFFFFFC000
03FFFFFFE000
03FFFFFFF800
03F0003FFC00
03F00007FC00
03F00001FE00
03F00000FF00
03F000007F00
03F000003F80
03F000003F80
03F000001FC0
03F000001FC0
03F000000FC0
03F000000FC0
03F000000FE0
03F000000FE0
03F0000007E0
03F0000007E0
FFFFFC0007E0
FFFFFC0007E0
FFFFFC0007E0
FFFFFC0007E0
FFFFFC0007E0
03F0000007E0
03F0000007E0
03F0000007E0
03F0000007E0
03F000000FE0
03F000000FE0
03F000000FC0
03F000000FC0
03F000001FC0
03F000001FC0
03F000003F80
03F000003F80
03F000007F00
03F00000FF00
03F00001FE00
03F00007FE00
03F0001FFC00
03F00FFFF800
03FFFFFFE000
03FFFFFFC000
03FFFFFF0000
03FFFFFC0000
03FFFF800000
ENDCHAR
STARTCHAR 0111
ENCODING 273
SWIDTH 570 0
DWIDTH 38 0
BBX 34 52 3 -1
BITMAP
000000FC00
000000FC00
000000FC00
000000FC00
000000FC00
0001FFFFC0
0001FFFFC0
0001FFFFC0
0001FFFFC0
000000FC00
000000FC00
000000FC00
000000FC00
000000FC00
007FE0FC00
01FFF8FC00
03FFFCFC00
07FFFEFC00
0FFFFFFC00
0FE01FFC00
1FC00FFC00
3F8007FC00
3F0003FC00
3F0001FC00
7E0001FC00
7E0001FC00
7E0000FC00
7C0000FC00
7C0000FC00
FC0000FC00
FC0000FC00
FC0000FC00
FC0000FC00
FC0000FC00
FC0000FC00
FC0000FC00
7C0000FC00
7C0000FC00
7E0000FC00
7E0000FC00
7E0001FC00
3E0001FC00
3F0003FC00
3F8003FC00
1F8007FC00
1FE00FFC00
0FF83FFC00
07FFFEFC00
03FFFCFC00
01FFF8FC00
00FFF0FC00
001F800000
ENDCHAR
STARTCHAR 0112
ENCODING 274
SWIDTH 570 0
DWIDTH 38 0
BBX 28 60 6 0
BITMAP
07FFFE00
07FFFE00
07FFFE00
07FFFE00
07FFFE00
00000000
00000000
00000000
00000000
00000000
00000000
FFFFFFF0
FFFFFFF0
FFFFFFF0
FFFFFFF0
FFFFFFF0
FFFFFFF0
FC000000
FC000000
FC000000
FC000000
FC000000
FC000000
FC000000
FC000000
FC000000
FC000000
FC000000
FC000000
FC000000
FC000000
FFFFFFE0
FFFFFFE0
FFFFFFE0
FFFFFFE0
FFFFFFE0
FFFFFFE0
FC000000
FC000000
FC000000
FC000000
FC000000
FC000000
FC000000
FC000000
FC000000
FC000000
FC000000
FC000000
FC000000
FC000000
FC000000
FC000000
FC000000
FFFFFFF0
FFFFFFF0
FFFFFFF0
FFFFFFF0
FFFFFFF0
FFFFFFF0
ENDCHAR
STARTCHAR 0113
ENCODING 275
SWIDTH 555 0
DWIDTH 37 0
BBX 31 51 3 -1
BITMAP
00FFFF80
00FFFF80
00FFFF80
00FFFF80
00FFFF80
00000000
00000000
00000000
00000000
00000000
00000000
00000000
00008000
001FFC00
00FFFF00
01FFFF80
03FFFFC0
07FFFFE0
0FF00FF0
1FC003F8
1F8001F8
3F0000F8
3F0000FC
3E00007C
7E00007C
7E00007E
7C00007E
7C00007E
FFFFFFFE
FFFFFFFE
FFFFFFFE
FFFFFFFE
FFFFFFFE
FC000000
FC000000
7C000000
7C000000
7E000000
7E000000
7E000000
3F000000
3F000000
1F800004
1FC0000C
0FF0007C
07FE03FC
03FFFFFC
01FFFFFC
00FFFFF8
003FFFC0
0007FC00
ENDCHAR
STARTCHAR 0114
ENCODING 276
SWIDTH 570 0
DWIDTH 38 0
BBX 28 62 6 0
BITMAP
07001E00
07801E00
07C03E00
07F1FC00
03FFFC00
01FFF800
00FFF000
001F8000
00000000
00000000
00000000
00000000
00000000
FFFFFFF0
FFFFFFF0
FFFFFFF0
FFFFFFF0
FFFFFFF0
FFFFFFF0
FC000000
FC000000
FC000000
FC000000
FC000000
FC000000
FC000000
FC000000
FC000000
FC000000
FC000000
FC000000
FC000000
FC000000
FFFFFFE0
FFFFFFE0
FFFFFFE0
FFFFFFE0
FFFFFFE0
FFFFFFE0
FC000000
FC000000
FC000000
FC000000
FC000000
FC000000
FC000000
FC000000
FC000000
FC000000
FC000000
FC000000
FC000000
FC000000
FC000000
FC000000
FC000000
FFFFFFF0
FFFFFFF0
FFFFFFF0
FFFFFFF0
FFFFFFF0
FFFFFFF0
ENDCHAR
STARTCHAR 0115
ENCODING 277
SWIDTH 555 0
DWIDTH 37 0
BBX 31 54 3 -1
BITMAP
01E003C0
01E003C0
00E00380
00F00780
00F80F80
007FFF00
007FFF00
003FFE00
001FFC00
0003E000
00000000
00000000
00000000
00000000
00000000
00008000
001FFC00
00FFFF00
01FFFF80
03FFFFC0
07FFFFE0
0FF00FF0
1FC003F8
1F8001F8
3F0000F8
3F0000FC
3E00007C
7E00007C
7E00007E
7C00007E
7C00007E
FFFFFFFE
FFFFFFFE
FFFFFFFE
FFFFFFFE
FFFFFFFE
FC000000
FC000000
7C000000
7C000000
7E000000
7E000000
7E000000
3F000000
3F000000
1F800004
1FC0000C
0FF0007C
07FE03FC
03FFFFFC
01FFFFFC
00FFFFF8
003FFFC0
0007FC00
ENDCHAR
STARTCHAR 0116
ENCODING 278
SWIDTH 570 0
DWIDTH 38 0
BBX 28 61 6 0
BITMAP
001F8000
001F8000
001F8000
001F8000
001F8000
001F8000
001F8000
00000000
00000000
00000000
00000000
00000000
FFFFFFF0
FFFFFFF0
FFFFFFF0
FFFFFFF0
FFFFFFF0
FFFFFFF0
FC000000
FC000000
FC000000
FC000000
FC000000
FC000000
FC000000
FC000000
FC000000
FC000000
FC000000
FC000000
FC000000
FC000000
FFFFFFE0
FFFFFFE0
FFFFFFE0
FFFFFFE0
FFFFFFE0
FFFFFFE0
FC000000
FC000000
FC000000
FC000000
FC000000
FC000000
FC000000
FC000000
FC000000
FC000000
FC000000
FC000000
FC000000
FC000000
FC000000
FC000000
FC000000
FFFFFFF0
FFFFFFF0
FFFFFFF0
FFFFFFF0
FFFFFFF0
FFFFFFF0
ENDCHAR
STARTCHAR 0117
ENCODING 279
SWIDTH 555 0
DWIDTH 37 0
BBX 31 52 3 -1
BITMAP
0003E000
0003E000
0003E000
0003E000
0003E000
0003E000
0003E000
0003E000
00000000
00000000
00000000
00000000
00000000
00008000
001FFC00
00FFFF00
01FFFF80
03FFFFC0
07FFFFE0
0FF00FF0
1FC003F8
1F8001F8
3F0000F8
3F0000FC
3E00007C
7E00007C
7E00007E
7C00007E
7C00007E
FFFFFFFE
FFFFFFFE
FFFFFFFE
FFFFFFFE
FFFFFFFE
FC000000
FC000000
7C000000
7C000000
7E000000
7E000000
7E000000
3F000000
3F000000
1F800004
1FC0000C
0FF0007C
07FE03FC
03FFFFFC
01FFFFFC
00FFFFF8
003FFFC0
0007FC00
ENDCHAR
STARTCHAR 0118
ENCODING 280
SWIDTH 570 0
DWIDTH 38 0
BBX 28 62 6 -13
BITMAP
FFFFFFF0
FFFFFFF0
FFFFFFF0
FFFFFFF0
FFFFFFF0
FFFFFFF0
FC000000
FC000000
FC000000
FC000000
FC000000
FC000000
FC000000
FC000000
FC000000
FC000000
FC000000
FC000000
FC000000
FC000000
FFFFFFE0
FFFFFFE0
FFFFFFE0
FFFFFFE0
FFFFFFE0
FFFFFFE0
FC000000
FC000000
FC000000
FC000000
FC000000
FC000000
FC000000
FC000000
FC000000
FC000000
FC000000
FC000000
FC000000
FC000000
FC000000
FC000000
FC000000
FFFFFFF0
FFFFFFF0
FFFFFFF0
FFFFFFF0
FFFFFFF0
FFFFFFF0
00000F00
00001E00
00001C00
00003C00
00003C00
00007800
00007800
00007C00
00007E10
00003FF0
00003FF0
00001FF0
000007E0
ENDCHAR
STARTCHAR 0119
ENCODING 281
SWIDTH 555 0
DWIDTH 37 0
BBX 31 51 3 -13
BITMAP
00008000
001FFC00
00FFFF00
01FFFF80
03FFFFC0
07FFFFE0
0FF00FF0
1FC003F8
1F8001F8
3F0000F8
3F0000FC
3E00007C
7E00007C
7E00007E
7C00007E
7C00007E
FFFFFFFE
FFFFFFFE
FFFFFFFE
FFFFFFFE
FFFFFFFE
FC000000
FC000000
7C000000
7C000000
7E000000
7E000000
7E000000
3F000000
3F000000
1F800004
1FC0000C
0FF0007C
07FE03FC
03FFFFFC
01FFFFFC
00FFFFF8
003FFFC0
0007FF00
00000F00
00001E00
00001E00
00003C00
00003C00
00003C00
00003C00
00003E18
00003FF8
00001FF8
00000FF8
000007F0
ENDCHAR
STARTCHAR 011A
ENCODING 282
SWIDTH 570 0
DWIDTH 38 0
BBX 28 62 6 0
BITMAP
07803E00
03C03C00
01E07800
01F0F000
00F9F000
007FE000
003FC000
003FC000
001F8000
00000000
00000000
00000000
00000000
FFFFFFF0
FFFFFFF0
FFFFFFF0
FFFFFFF0
FFFFFFF0
FFFFFFF0
FC000000
FC000000
FC000000
FC000000
FC000000
FC000000
FC000000
FC000000
FC000000
FC000000
FC000000
FC000000
FC000000
FC000000
FFFFFFE0
FFFFFFE0
FFFFFFE0
FFFFFFE0
FFFFFFE0
FFFFFFE0
FC000000
FC000000
FC000000
FC000000
FC000000
FC000000
FC000000
FC000000
FC000000
FC000000
FC000000
FC000000
FC000000
FC000000
FC000000
FC000000
FC000000
FFFFFFF0
FFFFFFF0
FFFFFFF0
FFFFFFF0
FFFFFFF0
FFFFFFF0
ENDCHAR
STARTCHAR 011B
ENCODING 283
SWIDTH 555 0
DWIDTH 37 0
BBX 31 55 3 -1
BITMAP
01E003C0
00F00780
00F80F80
00780F00
007C1E00
003C3E00
001E3C00
001F7C00
000FF800
000FF000
0007F000
0003E000
0003E000
00000000
00000000
00000000
00008000
001FFC00
00FFFF00
01FFFF80
03FFFFC0
07FFFFE0
0FF00FF0
1FC003F8
1F8001F8
3F0000F8
3F0000FC
3E00007C
7E00007C
7E00007E
7C00007E
7C00007E
FFFFFFFE
FFFFFFFE
FFFFFFFE
FFFFFFFE
FFFFFFFE
FC000000
FC000000
7C000000
7C000000
7E000000
7E000000
7E000000
3F000000
3F000000
1F800004
1FC0000C
0FF0007C
07FE03FC
03FFFFFC
01FFFFFC
00FFFFF8
003FFFC0
0007FC00
ENDCHAR
STARTCHAR 011C
ENCODING 284
SWIDTH 705 0
DWIDTH 47 0
BBX 39 63 3 -1
BITMAP
00001F8000
00001FC000
00003FE000
00007DF000
0000F8F000
0000F07800
0001E07C00
0003C03C00
0003C01E00
0000000000
0000000000
0000000000
00000FC000
0003FFFE00
000FFFFF80
003FFFFFE0
007FFFFFF8
00FFFFFFFC
01FF800FFC
03FE0001FC
07F800007C
0FF000001C
0FE000000C
1FC0000004
1F80000000
3F80000000
3F00000000
3F00000000
7F00000000
7F00000000
7E00000000
7E00000000
7E00000000
7E00000000
FE00000000
FE00000000
FE0001FFFE
FE0001FFFE
FE0001FFFE
FE0001FFFE
FE0001FFFE
7E0001FFFE
7E0000007E
7E0000007E
7E0000007E
7E0000007E
7F0000007E
3F0000007E
3F0000007E
3F8000007E
1F8000007E
1FC000007E
0FE000007E
0FF000007E
07F800007E
03FC0000FE
03FF0003FE
01FFFFFFFE
00FFFFFFF8
003FFFFFF0
001FFFFFC0
0003FFFE00
00007FE000
ENDCHAR
STARTCHAR 011D
ENCODING 285
SWIDTH 570 0
DWIDTH 38 0
BBX 30 68 3 -14
BITMAP
00078000
000FC000
000FE000
001FE000
001FF000
003EF000
007CF800
00787800
00F83C00
00F03E00
01E01E00
03E00F00
03C00F00
00000000
00000000
00000000
00000000
007FE0FC
01FFF8FC
03FFFCFC
07FFFEFC
0FFFFFFC
1FE01FFC
1FC007FC
3F8007FC
3F0003FC
3F0001FC
7E0001FC
7E0001FC
7E0000FC
7C0000FC
7C0000FC
FC0000FC
FC0000FC
FC0000FC
FC0000FC
FC0000FC
FC0000FC
FC0000FC
7C0000FC
7C0000FC
7E0000FC
7E0001FC
7E0001FC
3F0003FC
3F0003FC
1F8007FC
1FC00FFC
0FF03FFC
0FFFFEFC
07FFFCFC
03FFF8FC
00FFF0FC
003FC0FC
000000F8
000000F8
000000F8
000001F8
000001F8
000003F0
080007F0
0E000FE0
0FC07FE0
0FFFFFC0
0FFFFF80
0FFFFF00
03FFFC00
003FE000
ENDCHAR
STARTCHAR 011E
ENCODING 286
SWIDTH 705 0
DWIDTH 47 0
BBX 39 63 3 -1
BITMAP
001E003C00
001E007800
000F007800
000FE3F800
0007FFF000
0007FFE000
0001FFC000
00007F0000
0000000000
0000000000
0000000000
0000000000
00000FC000
0003FFFE00
000FFFFF80
003FFFFFE0
007FFFFFF8
00FFFFFFFC
01FF800FFC
03FE0001FC
07F800007C
0FF000001C
0FE000000C
1FC0000004
1F80000000
3F80000000
3F00000000
3F00000000
7F00000000
7F00000000
7E00000000
7E00000000
7E00000000
7E00000000
FE00000000
FE00000000
FE0001FFFE
FE0001FFFE
FE0001FFFE
FE0001FFFE
FE0001FFFE
7E0001FFFE
7E0000007E
7E0000007E
7E0000007E
7E0000007E
7F0000007E
3F0000007E
3F0000007E
3F8000007E
1F8000007E
1FC000007E
0FE000007E
0FF000007E
07F800007E
03FC0000FE
03FF0003FE
01FFFFFFFE
00FFFFFFF8
003FFFFFF0
001FFFFFC0
0003FFFE00
00007FE000
ENDCHAR
STARTCHAR 011F
ENCODING 287
SWIDTH 570 0
DWIDTH 38 0
BBX 30 67 3 -14
BITMAP
01C00380
01E00380
01E00780
01F00780
00F80F80
00FFFF00
007FFF00
003FFE00
001FF800
0003E000
00000000
00000000
00000000
00000000
00000000
00000000
007FE0FC
01FFF8FC
03FFFCFC
07FFFEFC
0FFFFFFC
1FE01FFC
1FC007FC
3F8007FC
3F0003FC
3F0001FC
7E0001FC
7E0001FC
7E0000FC
7C0000FC
7C0000FC
FC0000FC
FC0000FC
FC0000FC
FC0000FC
FC0000FC
FC0000FC
FC0000FC
7C0000FC
7C0000FC
7E0000FC
7E0001FC
7E0001FC
3F0003FC
3F0003FC
1F8007FC
1FC00FFC
0FF03FFC
0FFFFEFC
07FFFCFC
03FFF8FC
00FFF0FC
003FC0FC
000000F8
000000F8
000000F8
000001F8
000001F8
000003F0
080007F0
0E000FE0
0FC07FE0
0FFFFFC0
0FFFFF80
0FFFFF00
03FFFC00
003FE000
ENDCHAR
STARTCHAR 0120
ENCODING 288
SWIDTH 705 0
DWIDTH 47 0
BBX 39 62 3 -1
BITMAP
00001F8000
00001F8000
00001F8000
00001F8000
00001F8000
00001F8000
00001F8000
0000000000
0000000000
0000000000
0000000000
00000FC000
0003FFFE00
000FFFFF80
003FFFFFE0
007FFFFFF8
00FFFFFFFC
01FF800FFC
03FE0001FC
07F800007C
0FF000001C
0FE000000C
1FC0000004
1F80000000
3F80000000
3F00000000
3F00000000
7F00000000
7F00000000
7E00000000
7E00000000
7E00000000
7E00000000
FE00000000
FE00000000
FE0001FFFE
FE0001FFFE
FE0001FFFE
FE0001FFFE
FE0001FFFE
7E0001FFFE
7E0000007E
7E0000007E
7E0000007E
7E0000007E
7F0000007E
3F0000007E
3F0000007E
3F8000007E
1F8000007E
1FC000007E
0FE000007E
0FF000007E
07F800007E
03FC0000FE
03FF0003FE
01FFFFFFFE
00FFFFFFF8
003FFFFFF0
001FFFFFC0
0003FFFE00
00007FE000
ENDCHAR
STARTCHAR 0121
ENCODING 289
SWIDTH 570 0
DWIDTH 38 0
BBX 30 65 3 -14
BITMAP
000FC000
000FC000
000FC000
000FC000
000FC000
000FC000
000FC000
000FC000
00000000
00000000
00000000
00000000
00000000
00000000
007FE0FC
01FFF8FC
03FFFCFC
07FFFEFC
0FFFFFFC
1FE01FFC
1FC007FC
3F8007FC
3F0003FC
3F0001FC
7E0001FC
7E0001FC
7E0000FC
7C0000FC
7C0000FC
FC0000FC
FC0000FC
FC0000FC
FC0000FC
FC0000FC
FC0000FC
FC0000FC
7C0000FC
7C0000FC
7E0000FC
7E0001FC
7E0001FC
3F0003FC
3F0003FC
1F8007FC
1FC00FFC
0FF03FFC
0FFFFEFC
07FFFCFC
03FFF8FC
00FFF0FC
003FC0FC
000000F8
000000F8
000000F8
000001F8
000001F8
000003F0
080007F0
0E000FE0
0FC07FE0
0FFFFFC0
0FFFFF80
0FFFFF00
03FFFC00
003FE000
ENDCHAR
STARTCHAR 0122
ENCODING 290
SWIDTH 705 0
DWIDTH 47 0
BBX 39 67 3 -17
BITMAP
00000FC000
0003FFFE00
000FFFFF80
003FFFFFE0
007FFFFFF8
00FFFFFFFC
01FF800FFC
03FE0001FC
07F800007C
0FF000001C
0FE000000C
1FC0000004
1F80000000
3F80000000
3F00000000
3F00000000
7F00000000
7F00000000
7E00000000
7E00000000
7E00000000
7E00000000
FE00000000
FE00000000
FE0001FFFE
FE0001FFFE
FE0001FFFE
FE0001FFFE
FE0001FFFE
7E0001FFFE
7E0000007E
7E0000007E
7E0000007E
7E0000007E
7F0000007E
3F0000007E
3F0000007E
3F8000007E
1F8000007E
1FC000007E
0FE000007E
0FF000007E
07F800007E
03FC0000FE
03FF0003FE
01FFFFFFFE
00FFFFFFF8
003FFFFFF0
001FFFFFC0
0003FFFE00
00007FE000
0000000000
0000000000
0000000000
0000000000
0000000000
0000000000
00000FC000
00000FC000
00000F8000
00001F8000
00001F0000
00001F0000
00001E0000
00001E0000
00003C0000
00003C0000
ENDCHAR
STARTCHAR 0123
ENCODING 291
SWIDTH 570 0
DWIDTH 38 0
BBX 30 66 3 -14
BITMAP
00007800
0000F000
0000F000
0001F000
0001F000
0003E000
0003E000
0007E000
0007E000
000FC000
00000000
00000000
00000000
00000000
00000000
007FE0FC
01FFF8FC
03FFFCFC
07FFFEFC
0FFFFFFC
1FE01FFC
1FC007FC
3F8007FC
3F0003FC
3F0001FC
7E0001FC
7E0001FC
7E0000FC
7C0000FC
7C0000FC
FC0000FC
FC0000FC
FC0000FC
FC0000FC
FC0000FC
FC0000FC
FC0000FC
7C0000FC
7C0000FC
7E0000FC
7E0001FC
7E0001FC
3F0003FC
3F0003FC
1F8007FC
1FC00FFC
0FF03FFC
0FFFFEFC
07FFFCFC
03FFF8FC
00FFF0FC
003FC0FC
000000F8
000000F8
000000F8
000001F8
000001F8
000003F0
080007F0
0E000FE0
0FC07FE0
0FFFFFC0
0FFFFF80
0FFFFF00
03FFFC00
003FE000
ENDCHAR
STARTCHAR 0124
ENCODING 292
SWIDTH 675 0
DWIDTH 45 0
BBX 33 62 6 0
BITMAP
0003F00000
0007F80000
000FF80000
001F7C0000
001E3E0000
003C1E0000
007C0F0000
0078078000
00F007C000
0000000000
0000000000
0000000000
0000000000
FC00001F80
FC00001F80
FC00001F80
FC00001F80
FC00001F80
FC00001F80
FC00001F80
FC00001F80
FC00001F80
FC00001F80
FC00001F80
FC00001F80
FC00001F80
FC00001F80
FC00001F80
FC00001F80
FC00001F80
FC00001F80
FC00001F80
FC00001F80
FFFFFFFF80
FFFFFFFF80
FFFFFFFF80
FFFFFFFF80
FFFFFFFF80
FFFFFFFF80
FC00001F80
FC00001F80
FC00001F80
FC00001F80
FC00001F80
FC00001F80
FC00001F80
FC00001F80
FC00001F80
FC00001F80
FC00001F80
FC00001F80
FC00001F80
FC00001F80
FC00001F80
FC00001F80
FC00001F80
FC00001F80
FC00001F80
FC00001F80
FC00001F80
FC00001F80
FC00001F80
ENDCHAR
STARTCHAR 0125
ENCODING 293
SWIDTH 570 0
DWIDTH 38 0
BBX 34 62 -1 0
BITMAP
03F0000000
07F8000000
07FC000000
0FBC000000
1F1E000000
1E1F000000
3C0F800000
7807800000
F803C00000
0000000000
0000000000
03F0000000
03F0000000
03F0000000
03F0000000
03F0000000
03F0000000
03F0000000
03F0000000
03F0000000
03F0000000
03F0000000
03F0000000
03F0000000
03F0020000
03F03FF000
03F0FFF800
03F1FFFC00
03F3FFFE00
03F7FFFF00
03FF807F00
03FF003F80
03FE001F80
03FC001F80
03F8000FC0
03F8000FC0
03F8000FC0
03F00007C0
03F00007C0
03F00007C0
03F00007C0
03F00007C0
03F00007C0
03F00007C0
03F00007C0
03F00007C0
03F00007C0
03F00007C0
03F00007C0
03F00007C0
03F00007C0
03F00007C0
03F00007C0
03F00007C0
03F00007C0
03F00007C0
03F00007C0
03F00007C0
03F00007C0
03F00007C0
03F00007C0
03F00007C0
ENDCHAR
STARTCHAR 0126
ENCODING 294
SWIDTH 825 0
DWIDTH 55 0
BBX 43 49 6 0
BITMAP
07E00000FC00
07E00000FC00
07E00000FC00
07E00000FC00
07E00000FC00
07E00000FC00
07E00000FC00
FFFFFFFFFFE0
FFFFFFFFFFE0
FFFFFFFFFFE0
FFFFFFFFFFE0
FFFFFFFFFFE0
FFFFFFFFFFE0
07E00000FC00
07E00000FC00
07E00000FC00
07E00000FC00
07E00000FC00
07E00000FC00
07E00000FC00
07FFFFFFFC00
07FFFFFFFC00
07FFFFFFFC00
07FFFFFFFC00
07FFFFFFFC00
07FFFFFFFC00
07E00000FC00
07E00000FC00
07E00000FC00
07E00000FC00
07E00000FC00
07E00000FC00
07E00000FC00
07E00000FC00
07E00000FC00
07E00000FC00
07E00000FC00
07E00000FC00
07E00000FC00
07E00000FC00
07E00000FC00
07E00000FC00
07E00000FC00
07E00000FC00
07E00000FC00
07E00000FC00
07E00000FC00
07E00000FC00
07E00000FC00
ENDCHAR
STARTCHAR 0127
ENCODING 295
SWIDTH 630 0
DWIDTH 42 0
BBX 31 51 4 0
BITMAP
1F800000
1F800000
1F800000
1F800000
FFFFE000
FFFFE000
FFFFE000
FFFFE000
FFFFE000
1F800000
1F800000
1F800000
1F800000
1F801000
1F83FF00
1F87FFC0
1F9FFFE0
1FBFFFF0
1FBFFFF8
1FFC03F8
1FF001FC
1FE000FC
1FE000FC
1FC0007C
1FC0007E
1F80007E
1F80007E
1F80007E
1F80007E
1F80007E
1F80007E
1F80007E
1F80007E
1F80007E
1F80007E
1F80007E
1F80007E
1F80007E
1F80007E
1F80007E
1F80007E
1F80007E
1F80007E
1F80007E
1F80007E
1F80007E
1F80007E
1F80007E
1F80007E
1F80007E
1F80007E
ENDCHAR
STARTCHAR 0128
ENCODING 296
SWIDTH 270 0
DWIDTH 18 0
BBX 20 62 -1 0
BITMAP
0000F0
1F80F0
3FE0E0
7FF9E0
79FFE0
F07FC0
F03F80
F00600
000000
000000
000000
000000
000000
01F800
01F800
01F800
01F800
01F800
01F800
01F800
01F800
01F800
01F800
01F800
01F800
01F800
01F800
01F800
01F800
01F800
01F800
01F800
01F800
01F800
01F800
01F800
01F800
01F800
01F800
01F800
01F800
01F800
01F800
01F800
01F800
01F800
01F800
01F800
01F800
01F800
01F800
01F800
01F800
01F800
01F800
01F800
01F800
01F800
01F800
01F800
01F800
01F800
ENDCHAR
STARTCHAR 0129
ENCODING 297
SWIDTH 255 0
DWIDTH 17 0
BBX 19 52 -1 0
BITMAP
1F01E0
3F81E0
7FC1E0
7FE1E0
F9F3E0
F0FFC0
F07FC0
E03F80
E01F00
000000
000000
000000
000000
000000
000000
01F000
01F000
01F000
01F000
01F000
01F000
01F000
01F000
01F000
01F000
01F000
01F000
01F000
01F000
01F000
01F000
01F000
01F000
01F000
01F000
01F000
01F000
01F000
01F000
01F000
01F000
01F000
01F000
01F000
01F000
01F000
01F000
01F000
01F000
01F000
01F000
01F000
ENDCHAR
STARTCHAR 012A
ENCODING 298
SWIDTH 270 0
DWIDTH 18 0
BBX 18 60 0 0
BITMAP
FFFFC0
FFFFC0
FFFFC0
FFFFC0
FFFFC0
000000
000000
000000
000000
000000
000000
03F000
03F000
03F000
03F000
03F000
03F000
03F000
03F000
03F000
03F000
03F000
03F000
03F000
03F000
03F000
03F000
03F000
03F000
03F000
03F000
03F000
03F000
03F000
03F000
03F000
03F000
03F000
03F000
03F000
03F000
03F000
03F000
03F000
03F000
03F000
03F000
03F000
03F000
03F000
03F000
03F000
03F000
03F000
03F000
03F000
03F000
03F000
03F000
03F000
ENDCHAR
STARTCHAR 012B
ENCODING 299
SWIDTH 255 0
DWIDTH 17 0
BBX 17 50 0 0
BITMAP
FFFF80
FFFF80
FFFF80
FFFF80
FFFF80
000000
000000
000000
000000
000000
000000
000000
000000
03E000
03E000
03E000
03E000
03E000
03E000
03E000
03E000
03E000
03E000
03E000
03E000
03E000
03E000
03E000
03E000
03E000
03E000
03E000
03E000
03E000
03E000
03E000
03E000
03E000
03E000
03E000
03E000
03E000
03E000
03E000
03E000
03E000
03E000
03E000
03E000
03E000
ENDCHAR
STARTCHAR 012C
ENCODING 300
SWIDTH 270 0
DWIDTH 18 0
BBX 18 62 0 0
BITMAP
E003C0
F003C0
F807C0
FF3F80
7FFF80
3FFF00
1FFE00
03F000
000000
000000
000000
000000
000000
03F000
03F000
03F000
03F000
03F000
03F000
03F000
03F000
03F000
03F000
03F000
03F000
03F000
03F000
03F000
03F000
03F000
03F000
03F000
03F000
03F000
03F000
03F000
03F000
03F000
03F000
03F000
03F000
03F000
03F000
03F000
03F000
03F000
03F000
03F000
03F000
03F000
03F000
03F000
03F000
03F000
03F000
03F000
03F000
03F000
03F000
03F000
03F000
03F000
ENDCHAR
STARTCHAR 012D
ENCODING 301
SWIDTH 255 0
DWIDTH 17 0
BBX 19 53 -1 0
BITMAP
F001E0
F001E0
F001C0
7803C0
7C07C0
7FFF80
3FFF80
1FFF00
0FFE00
01F000
000000
000000
000000
000000
000000
000000
01F000
01F000
01F000
01F000
01F000
01F000
01F000
01F000
01F000
01F000
01F000
01F000
01F000
01F000
01F000
01F000
01F000
01F000
01F000
01F000
01F000
01F000
01F000
01F000
01F000
01F000
01F000
01F000
01F000
01F000
01F000
01F000
01F000
01F000
01F000
01F000
01F000
ENDCHAR
STARTCHAR 012E
ENCODING 302
SWIDTH 270 0
DWIDTH 18 0
BBX 11 62 5 -13
BITMAP
7E00
7E00
7E00
7E00
7E00
7E00
7E00
7E00
7E00
7E00
7E00
7E00
7E00
7E00
7E00
7E00
7E00
7E00
7E00
7E00
7E00
7E00
7E00
7E00
7E00
7E00
7E00
7E00
7E00
7E00
7E00
7E00
7E00
7E00
7E00
7E00
7E00
7E00
7E00
7E00
7E00
7E00
7E00
7E00
7E00
7E00
7E00
7E00
7E00
1E00
3C00
3800
7800
7800
F000
F000
F800
FC20
7FE0
7FE0
3FE0
0FC0
ENDCHAR
STARTCHAR 012F
ENCODING 303
SWIDTH 255 0
DWIDTH 17 0
BBX 11 64 4 -13
BITMAP
3E00
3E00
3E00
3E00
3E00
3E00
3E00
3E00
0000
0000
0000
0000
0000
0000
3E00
3E00
3E00
3E00
3E00
3E00
3E00
3E00
3E00
3E00
3E00
3E00
3E00
3E00
3E00
3E00
3E00
3E00
3E00
3E00
3E00
3E00
3E00
3E00
3E00
3E00
3E00
3E00
3E00
3E00
3E00
3E00
3E00
3E00
3E00
3E00
3E00
1E00
3C00
3C00
7800
7800
7800
F800
F800
7C20
7FE0
7FE0
3FE0
0FC0
ENDCHAR
STARTCHAR 0130
ENCODING 304
SWIDTH 270 0
DWIDTH 18 0
BBX 6 61 6 0
BITMAP
FC
FC
FC
FC
FC
FC
FC
00
00
00
00
00
FC
FC
FC
FC
FC
FC
FC
FC
FC
FC
FC
FC
FC
FC
FC
FC
FC
FC
FC
FC
FC
FC
FC
FC
FC
FC
FC
FC
FC
FC
FC
FC
FC
FC
FC
FC
FC
FC
FC
FC
FC
FC
FC
FC
FC
FC
FC
FC
FC
ENDCHAR
STARTCHAR 0131
ENCODING 305
SWIDTH 255 0
DWIDTH 17 0
BBX 5 37 6 1
BITMAP
F8
F8
F8
F8
F8
F8
F8
F8
F8
F8
F8
F8
F8
F8
F8
F8
F8
F8
F8
F8
F8
F8
F8
F8
F8
F8
F8
F8
F8
F8
F8
F8
F8
F8
F8
F8
F8
ENDCHAR
STARTCHAR 0132
ENCODING 306
SWIDTH 540 0
DWIDTH 36 0
BBX 24 62 6 -13
BITMAP
FC003F
FC003F
FC003F
FC003F
FC003F
FC003F
FC003F
FC003F
FC003F
FC003F
FC003F
FC003F
FC003F
FC003F
FC003F
FC003F
FC003F
FC003F
FC003F
FC003F
FC003F
FC003F
FC003F
FC003F
FC003F
FC003F
FC003F
FC003F
FC003F
FC003F
FC003F
FC003F
FC003F
FC003F
FC003F
FC003F
FC003F
FC003F
FC003F
FC003F
FC003F
FC003F
FC003F
FC003F
FC003F
FC003F
FC003F
FC003F
FC003F
00003E
00007E
00007E
00007E
00007E
0000FE
0001FC
0007FC
007FF8
007FF8
007FF0
007FC0
007F00
ENDCHAR
STARTCHAR 0133
ENCODING 307
SWIDTH 510 0
DWIDTH 34 0
BBX 22 65 6 -14
BITMAP
F800FC
F800FC
F800FC
F800FC
F800FC
F800FC
F800FC
F800FC
000000
000000
000000
000000
000000
000000
F800FC
F800FC
F800FC
F800FC
F800FC
F800FC
F800FC
F800FC
F800FC
F800FC
F800FC
F800FC
F800FC
F800FC
F800FC
F800FC
F800FC
F800FC
F800FC
F800FC
F800FC
F800FC
F800FC
F800FC
F800FC
F800FC
F800FC
F800FC
F800FC
F800FC
F800FC
F800FC
F800FC
F800FC
F800FC
F800FC
F800FC
0000FC
0000FC
0000FC
0000FC
0000FC
0000F8
0000F8
0001F8
0007F8
003FF0
003FF0
003FE0
003FC0
003E00
ENDCHAR
STARTCHAR 0134
ENCODING 308
SWIDTH 270 0
DWIDTH 18 0
BBX 21 75 -3 -13
BITMAP
007E00
00FF00
01FF00
01EF80
03E7C0
07C3E0
0781E0
0F00F0
1E0078
000000
000000
000000
000000
007E00
007E00
007E00
007E00
007E00
007E00
007E00
007E00
007E00
007E00
007E00
007E00
007E00
007E00
007E00
007E00
007E00
007E00
007E00
007E00
007E00
007E00
007E00
007E00
007E00
007E00
007E00
007E00
007E00
007E00
007E00
007E00
007E00
007E00
007E00
007E00
007E00
007E00
007E00
007E00
007E00
007E00
007E00
007E00
007E00
007E00
007E00
007E00
007E00
007E00
007E00
00FC00
00FC00
00FC00
01FC00
03F800
0FF800
FFF000
FFF000
FFE000
FFC000
FF0000
ENDCHAR
STARTCHAR 0135
ENCODING 309
SWIDTH 255 0
DWIDTH 17 0
BBX 19 68 -1 -14
BITMAP
01F000
01F000
03F800
07F800
07FC00
0FBE00
0F1E00
1F1F00
3E0F00
3C0780
7C07C0
7803C0
F001E0
000000
000000
000000
000000
01F000
01F000
01F000
01F000
01F000
01F000
01F000
01F000
01F000
01F000
01F000
01F000
01F000
01F000
01F000
01F000
01F000
01F000
01F000
01F000
01F000
01F000
01F000
01F000
01F000
01F000
01F000
01F000
01F000
01F000
01F000
01F000
01F000
01F000
01F000
01F000
01F000
01F000
01F000
01F000
01F000
03F000
03F000
03F000
07E000
0FE000
FFE000
FFC000
FF8000
FF0000
FC0000
ENDCHAR
STARTCHAR 0136
ENCODING 310
SWIDTH 600 0
DWIDTH 40 0
BBX 34 65 6 -16
BITMAP
FC00007F80
FC0000FF00
FC0001FE00
FC0003FC00
FC0007F800
FC000FF000
FC000FE000
FC001FC000
FC003F8000
FC007F0000
FC00FE0000
FC01FC0000
FC03F80000
FC07F00000
FC0FF00000
FC1FE00000
FC3FC00000
FC7F800000
FCFF000000
FDFE000000
FFFC000000
FFF8000000
FFF0000000
FFF0000000
FFF8000000
FFFC000000
FDFE000000
FCFF000000
FC7F000000
FC7F800000
FC3FC00000
FC1FE00000
FC0FF00000
FC07F80000
FC03FC0000
FC01FE0000
FC00FF0000
FC007F0000
FC003F8000
FC003FC000
FC001FE000
FC000FF000
FC0007F800
FC0003FC00
FC0001FE00
FC0000FF00
FC00007F80
FC00003F80
FC00001FC0
0000000000
0000000000
0000000000
0000000000
0000000000
0000000000
0001F80000
0001F80000
0001F00000
0003F00000
0003E00000
0003E00000
0003C00000
0003C00000
0007C00000
0007800000
ENDCHAR
STARTCHAR 0137
ENCODING 311
SWIDTH 525 0
DWIDTH 35 0
BBX 29 67 5 -16
BITMAP
FC000000
FC000000
FC000000
FC000000
FC000000
FC000000
FC000000
FC000000
FC000000
FC000000
FC000000
FC000000
FC000000
FC000000
FC0003F8
FC0007F0
FC000FE0
FC001FC0
FC003F80
FC007F00
FC00FE00
FC01FC00
FC03F800
FC07F000
FC0FE000
FC1FC000
FC3F8000
FC7F0000
FCFE0000
FDFC0000
FFF80000
FFF00000
FFF00000
FFF80000
FDFC0000
FCFE0000
FC7F0000
FC3F8000
FC1FC000
FC0FE000
FC07F000
FC03F800
FC01FC00
FC00FE00
FC007F00
FC003F80
FC003FC0
FC001FC0
FC000FE0
FC0007F0
FC0003F8
00000000
00000000
00000000
00000000
00000000
00000000
0007E000
0007E000
000FC000
000FC000
000F8000
000F8000
000F0000
001F0000
001E0000
001E0000
ENDCHAR
STARTCHAR 0138
ENCODING 312
SWIDTH 525 0
DWIDTH 35 0
BBX 29 37 5 0
BITMAP
FC0003F8
FC0007F0
FC000FE0
FC001FC0
FC003F80
FC007F00
FC00FE00
FC01FC00
FC03F800
FC07F000
FC0FE000
FC1FC000
FC3F8000
FC7F0000
FCFE0000
FDFC0000
FFF80000
FFF00000
FFF00000
FFF80000
FDFC0000
FCFE0000
FC7F0000
FC3F8000
FC1FC000
FC0FE000
FC07F000
FC03F800
FC01FC00
FC00FE00
FC007F00
FC003F80
FC003FC0
FC001FC0
FC000FE0
FC0007F0
FC0003F8
ENDCHAR
STARTCHAR 0139
ENCODING 313
SWIDTH 510 0
DWIDTH 34 0
BBX 27 62 6 0
BITMAP
03F00000
07E00000
07C00000
0F800000
1F000000
1F000000
3E000000
7C000000
78000000
00000000
00000000
00000000
00000000
FC000000
FC000000
FC000000
FC000000
FC000000
FC000000
FC000000
FC000000
FC000000
FC000000
FC000000
FC000000
FC000000
FC000000
FC000000
FC000000
FC000000
FC000000
FC000000
FC000000
FC000000
FC000000
FC000000
FC000000
FC000000
FC000000
FC000000
FC000000
FC000000
FC000000
FC000000
FC000000
FC000000
FC000000
FC000000
FC000000
FC000000
FC000000
FC000000
FC000000
FC000000
FC000000
FC000000
FFFFFFE0
FFFFFFE0
FFFFFFE0
FFFFFFE0
FFFFFFE0
FFFFFFE0
ENDCHAR
STARTCHAR 013A
ENCODING 314
SWIDTH 255 0
DWIDTH 17 0
BBX 11 62 6 0
BITMAP
07E0
07C0
0F80
1F80
1F00
3E00
7C00
7800
F800
0000
0000
F800
F800
F800
F800
F800
F800
F800
F800
F800
F800
F800
F800
F800
F800
F800
F800
F800
F800
F800
F800
F800
F800
F800
F800
F800
F800
F800
F800
F800
F800
F800
F800
F800
F800
F800
F800
F800
F800
F800
F800
F800
F800
F800
F800
F800
F800
F800
F800
F800
F800
F800
ENDCHAR
STARTCHAR 013B
ENCODING 315
SWIDTH 510 0
DWIDTH 34 0
BBX 27 65 6 -16
BITMAP
FC000000
FC000000
FC000000
FC000000
FC000000
FC000000
FC000000
FC000000
FC000000
FC000000
FC000000
FC000000
FC000000
FC000000
FC000000
FC000000
FC000000
FC000000
FC000000
FC000000
FC000000
FC000000
FC000000
FC000000
FC000000
FC000000
FC000000
FC000000
FC000000
FC000000
FC000000
FC000000
FC000000
FC000000
FC000000
FC000000
FC000000
FC000000
FC000000
FC000000
FC000000
FC000000
FC000000
FFFFFFE0
FFFFFFE0
FFFFFFE0
FFFFFFE0
FFFFFFE0
FFFFFFE0
00000000
00000000
00000000
00000000
00000000
00000000
001F8000
001F8000
001F8000
001F0000
003F0000
003E0000
003E0000
003C0000
003C0000
00780000
ENDCHAR
STARTCHAR 013C
ENCODING 316
SWIDTH 255 0
DWIDTH 17 0
BBX 8 67 4 -16
BITMAP
3E
3E
3E
3E
3E
3E
3E
3E
3E
3E
3E
3E
3E
3E
3E
3E
3E
3E
3E
3E
3E
3E
3E
3E
3E
3E
3E
3E
3E
3E
3E
3E
3E
3E
3E
3E
3E
3E
3E
3E
3E
3E
3E
3E
3E
3E
3E
3E
3E
3E
3E
00
00
00
00
00
00
3F
3F
3E
7E
7C
7C
78
78
F8
F0
ENDCHAR
STARTCHAR 013D
ENCODING 317
SWIDTH 510 0
DWIDTH 34 0
BBX 27 49 6 0
BITMAP
FC03F000
FC03E000
FC07E000
FC07E000
FC07C000
FC07C000
FC07C000
FC07C000
FC0F8000
FC0F8000
FC0F8000
FC0F0000
FC000000
FC000000
FC000000
FC000000
FC000000
FC000000
FC000000
FC000000
FC000000
FC000000
FC000000
FC000000
FC000000
FC000000
FC000000
FC000000
FC000000
FC000000
FC000000
FC000000
FC000000
FC000000
FC000000
FC000000
FC000000
FC000000
FC000000
FC000000
FC000000
FC000000
FC000000
FFFFFFE0
FFFFFFE0
FFFFFFE0
FFFFFFE0
FFFFFFE0
FFFFFFE0
ENDCHAR
STARTCHAR 013E
ENCODING 318
SWIDTH 345 0
DWIDTH 23 0
BBX 17 51 6 0
BITMAP
F81F80
F81F00
F83F00
F83F00
F83E00
F83E00
F83E00
F87E00
F87C00
F87C00
F87C00
F87800
F80000
F80000
F80000
F80000
F80000
F80000
F80000
F80000
F80000
F80000
F80000
F80000
F80000
F80000
F80000
F80000
F80000
F80000
F80000
F80000
F80000
F80000
F80000
F80000
F80000
F80000
F80000
F80000
F80000
F80000
F80000
F80000
F80000
F80000
F80000
F80000
F80000
F80000
F80000
ENDCHAR
STARTCHAR 013F
ENCODING 319
SWIDTH 510 0
DWIDTH 34 0
BBX 27 49 6 0
BITMAP
FC000000
FC000000
FC000000
FC000000
FC000000
FC000000
FC000000
FC000000
FC000000
FC000000
FC000000
FC000000
FC000000
FC000000
FC000000
FC000000
FC000000
FC000000
FC007E00
FC007E00
FC007E00
FC007E00
FC007E00
FC007E00
FC007E00
FC007E00
FC000000
FC000000
FC000000
FC000000
FC000000
FC000000
FC000000
FC000000
FC000000
FC000000
FC000000
FC000000
FC000000
FC000000
FC000000
FC000000
FC000000
FFFFFFE0
FFFFFFE0
FFFFFFE0
FFFFFFE0
FFFFFFE0
FFFFFFE0
ENDCHAR
STARTCHAR 0140
ENCODING 320
SWIDTH 315 0
DWIDTH 21 0
BBX 13 51 6 0
BITMAP
F800
F800
F800
F800
F800
F800
F800
F800
F800
F800
F800
F800
F800
F800
F800
F800
F800
F800
F800
F800
F9F8
F9F8
F9F8
F9F8
F9F8
F9F8
F9F8
F9F8
F800
F800
F800
F800
F800
F800
F800
F800
F800
F800
F800
F800
F800
F800
F800
F800
F800
F800
F800
F800
F800
F800
F800
ENDCHAR
STARTCHAR 0141
ENCODING 321
SWIDTH 510 0
DWIDTH 34 0
BBX 34 49 0 0
BITMAP
03F0000000
03F0000000
03F0000000
03F0000000
03F0000000
03F0000000
03F0000000
03F0000000
03F0000000
03F0000000
03F0000000
03F0000000
03F0000000
03F0040000
03F00C0000
03F03E0000
03F07F0000
03F0FE0000
03F1FC0000
03F7F00000
03FFE00000
03FFC00000
03FF000000
03FE000000
03FC000000
03F8000000
0FF0000000
1FF0000000
3FF0000000
FFF0000000
FFF0000000
FBF0000000
73F0000000
03F0000000
03F0000000
03F0000000
03F0000000
03F0000000
03F0000000
03F0000000
03F0000000
03F0000000
03F0000000
03FFFFFFC0
03FFFFFFC0
03FFFFFFC0
03FFFFFFC0
03FFFFFFC0
03FFFFFFC0
ENDCHAR
STARTCHAR 0142
ENCODING 322
SWIDTH 255 0
DWIDTH 17 0
BBX 17 51 0 0
BITMAP
03E000
03E000
03E000
03E000
03E000
03E000
03E000
03E000
03E000
03E000
03E000
03E000
03E000
03E000
03E000
03E000
03E000
03E200
03E700
03EF80
03FF80
03FF00
03FC00
03F800
07F000
0FE000
1FE000
7FE000
FFE000
7FE000
73E000
23E000
03E000
03E000
03E000
03E000
03E000
03E000
03E000
03E000
03E000
03E000
03E000
03E000
03E000
03E000
03E000
03E000
03E000
03E000
03E000
ENDCHAR
STARTCHAR 0143
ENCODING 323
SWIDTH 675 0
DWIDTH 45 0
BBX 33 62 6 0
BITMAP
0000FC0000
0000F80000
0001F00000
0003E00000
0003E00000
0007C00000
000F800000
000F000000
001E000000
0000000000
0000000000
0000000000
0000000000
FF00001F80
FF80001F80
FF80001F80
FFC0001F80
FFC0001F80
FFC0001F80
FFE0001F80
FFE0001F80
FFF0001F80
FFF0001F80
FDF8001F80
FDF8001F80
FCFC001F80
FCFC001F80
FC7E001F80
FC7E001F80
FC3F001F80
FC3F001F80
FC1F801F80
FC1F801F80
FC0FC01F80
FC0FC01F80
FC07E01F80
FC07E01F80
FC07F01F80
FC03F01F80
FC03F81F80
FC01F81F80
FC01F81F80
FC00FC1F80
FC00FC1F80
FC007E1F80
FC007E1F80
FC003F1F80
FC003F1F80
FC001F9F80
FC001F9F80
FC000FDF80
FC000FDF80
FC0007FF80
FC0007FF80
FC0003FF80
FC0003FF80
FC0001FF80
FC0001FF80
FC0000FF80
FC0000FF80
FC0000FF80
FC00007F80
ENDCHAR
STARTCHAR 0144
ENCODING 324
SWIDTH 570 0
DWIDTH 38 0
BBX 28 54 5 0
BITMAP
0000FC00
0001F800
0001F000
0003F000
0007E000
0007C000
000F8000
001F0000
001F0000
003E0000
007C0000
00780000
00F80000
00000000
00000000
00000000
00008000
FC0FFC00
FC3FFE00
FC7FFF00
FCFFFF80
FDFFFFC0
FFE01FC0
FFC00FE0
FF8007E0
FF0007E0
FE0003F0
FE0003F0
FE0003F0
FC0001F0
FC0001F0
FC0001F0
FC0001F0
FC0001F0
FC0001F0
FC0001F0
FC0001F0
FC0001F0
FC0001F0
FC0001F0
FC0001F0
FC0001F0
FC0001F0
FC0001F0
FC0001F0
FC0001F0
FC0001F0
FC0001F0
FC0001F0
FC0001F0
FC0001F0
FC0001F0
FC0001F0
FC0001F0
ENDCHAR
STARTCHAR 0145
ENCODING 325
SWIDTH 675 0
DWIDTH 45 0
BBX 33 65 6 -16
BITMAP
FF00001F80
FF80001F80
FF80001F80
FFC0001F80
FFC0001F80
FFC0001F80
FFE0001F80
FFE0001F80
FFF0001F80
FFF0001F80
FDF8001F80
FDF8001F80
FCFC001F80
FCFC001F80
FC7E001F80
FC7E001F80
FC3F001F80
FC3F001F80
FC1F801F80
FC1F801F80
FC0FC01F80
FC0FC01F80
FC07E01F80
FC07E01F80
FC07F01F80
FC03F01F80
FC03F81F80
FC01F81F80
FC01F81F80
FC00FC1F80
FC00FC1F80
FC007E1F80
FC007E1F80
FC003F1F80
FC003F1F80
FC001F9F80
FC001F9F80
FC000FDF80
FC000FDF80
FC0007FF80
FC0007FF80
FC0003FF80
FC0003FF80
FC0001FF80
FC0001FF80
FC0000FF80
FC0000FF80
FC0000FF80
FC00007F80
0000000000
0000000000
0000000000
0000000000
0000000000
0000000000
0003F00000
0003F00000
0003F00000
0003E00000
0007E00000
0007C00000
0007C00000
0007800000
0007800000
000F000000
ENDCHAR
STARTCHAR 0146
ENCODING 326
SWIDTH 570 0
DWIDTH 38 0
BBX 28 54 5 -16
BITMAP
00008000
FC0FFC00
FC3FFE00
FC7FFF00
FCFFFF80
FDFFFFC0
FFE01FC0
FFC00FE0
FF8007E0
FF0007E0
FE0003F0
FE0003F0
FE0003F0
FC0001F0
FC0001F0
FC0001F0
FC0001F0
FC0001F0
FC0001F0
FC0001F0
FC0001F0
FC0001F0
FC0001F0
FC0001F0
FC0001F0
FC0001F0
FC0001F0
FC0001F0
FC0001F0
FC0001F0
FC0001F0
FC0001F0
FC0001F0
FC0001F0
FC0001F0
FC0001F0
FC0001F0
FC0001F0
00000000
00000000
00000000
00000000
00000000
00000000
000FC000
000FC000
000F8000
001F8000
001F0000
001F0000
001E0000
001E0000
003C0000
003C0000
ENDCHAR
STARTCHAR 0147
ENCODING 327
SWIDTH 675 0
DWIDTH 45 0
BBX 33 62 6 0
BITMAP
00F0078000
00F80F0000
00781F0000
003C3E0000
001E7C0000
001F780000
000FF80000
0007F00000
0007E00000
0000000000
0000000000
0000000000
0000000000
FF00001F80
FF80001F80
FF80001F80
FFC0001F80
FFC0001F80
FFC0001F80
FFE0001F80
FFE0001F80
FFF0001F80
FFF0001F80
FDF8001F80
FDF8001F80
FCFC001F80
FCFC001F80
FC7E001F80
FC7E001F80
FC3F001F80
FC3F001F80
FC1F801F80
FC1F801F80
FC0FC01F80
FC0FC01F80
FC07E01F80
FC07E01F80
FC07F01F80
FC03F01F80
FC03F81F80
FC01F81F80
FC01F81F80
FC00FC1F80
FC00FC1F80
FC007E1F80
FC007E1F80
FC003F1F80
FC003F1F80
FC001F9F80
FC001F9F80
FC000FDF80
FC000FDF80
FC0007FF80
FC0007FF80
FC0003FF80
FC0003FF80
FC0001FF80
FC0001FF80
FC0000FF80
FC0000FF80
FC0000FF80
FC00007F80
ENDCHAR
STARTCHAR 0148
ENCODING 328
SWIDTH 570 0
DWIDTH 38 0
BBX 28 54 5 0
BITMAP
07801F00
07C01E00
03C03C00
01E07C00
01F07800
00F0F800
00F9F000
007DE000
003FE000
003FC000
001FC000
001F8000
000F8000
00000000
00000000
00000000
00008000
FC0FFC00
FC3FFE00
FC7FFF00
FCFFFF80
FDFFFFC0
FFE01FC0
FFC00FE0
FF8007E0
FF0007E0
FE0003F0
FE0003F0
FE0003F0
FC0001F0
FC0001F0
FC0001F0
FC0001F0
FC0001F0
FC0001F0
FC0001F0
FC0001F0
FC0001F0
FC0001F0
FC0001F0
FC0001F0
FC0001F0
FC0001F0
FC0001F0
FC0001F0
FC0001F0
FC0001F0
FC0001F0
FC0001F0
FC0001F0
FC0001F0
FC0001F0
FC0001F0
FC0001F0
ENDCHAR
STARTCHAR 0149
ENCODING 329
SWIDTH 735 0
DWIDTH 49 0
BBX 37 49 6 0
BITMAP
3F80000000
3F80000000
3F80000000
3F80000000
3F80000000
3F00000000
3F00000000
3F00000000
3E00000000
7E00000000
7C00000000
7C00004000
783E07FE00
F83E1FFF00
F03E3FFF80
F03E7FFFC0
003EFFFFE0
003FF00FE0
003FE007F0
003FC003F0
003F8001F0
003F0001F8
003F0001F8
003F0001F8
003E0000F8
003E0000F8
003E0000F8
003E0000F8
003E0000F8
003E0000F8
003E0000F8
003E0000F8
003E0000F8
003E0000F8
003E0000F8
003E0000F8
003E0000F8
003E0000F8
003E0000F8
003E0000F8
003E0000F8
003E0000F8
003E0000F8
003E0000F8
003E0000F8
003E0000F8
003E0000F8
003E0000F8
003E0000F8
ENDCHAR
STARTCHAR 014A
ENCODING 330
SWIDTH 675 0
DWIDTH 45 0
BBX 32 64 6 -14
BITMAP
0000F800
FC07FF80
FC1FFFC0
FC3FFFE0
FC7FFFF0
FCFFFFF8
FDFFFFFC
FDF807FC
FFE001FE
FFC000FE
FF8000FE
FF80007E
FF00007F
FE00003F
FE00003F
FE00003F
FC00003F
FC00003F
FC00003F
FC00003F
FC00001F
FC00001F
FC00001F
FC00001F
FC00001F
FC00001F
FC00001F
FC00001F
FC00001F
FC00001F
FC00001F
FC00001F
FC00001F
FC00001F
FC00001F
FC00001F
FC00001F
FC00001F
FC00001F
FC00001F
FC00001F
FC00001F
FC00001F
FC00001F
FC00001F
FC00001F
FC00001F
FC00001F
FC00001F
FC00001F
0000001F
0000003F
0000003F
0000003F
0000003F
0000003F
0000003F
0000007F
000001FE
00000FFE
00000FFC
00000FF8
00000FF0
00000FC0
ENDCHAR
STARTCHAR 014B
ENCODING 331
SWIDTH 570 0
DWIDTH 38 0
BBX 28 52 5 -14
BITMAP
00008000
FC0FFC00
FC3FFE00
FC7FFF00
FCFFFF80
FDFFFFC0
FFE01FC0
FFC00FE0
FF8007E0
FF0007E0
FE0003F0
FE0003F0
FE0003F0
FC0001F0
FC0001F0
FC0001F0
FC0001F0
FC0001F0
FC0001F0
FC0001F0
FC0001F0
FC0001F0
FC0001F0
FC0001F0
FC0001F0
FC0001F0
FC0001F0
FC0001F0
FC0001F0
FC0001F0
FC0001F0
FC0001F0
FC0001F0
FC0001F0
FC0001F0
FC0001F0
FC0001F0
FC0001F0
000001F0
000001F0
000001F0
000001F0
000003F0
000003F0
000003F0
000007E0
00000FE0
003FFFC0
003FFFC0
003FFF80
003FFF00
003FF800
ENDCHAR
STARTCHAR 014C
ENCODING 332
SWIDTH 705 0
DWIDTH 47 0
BBX 41 61 3 -1
BITMAP
000FFFFC0000
000FFFFC0000
000FFFFC0000
000FFFFC0000
000FFFFC0000
000000000000
000000000000
000000000000
000000000000
000000000000
00003E000000
0003FFF00000
001FFFFC0000
003FFFFF0000
007FFFFF8000
01FFFFFFC000
03FF007FE000
03FC001FF000
07F80007F800
0FF00003F800
0FE00001FC00
1FC00001FC00
1FC00000FE00
3F800000FE00
3F8000007E00
3F0000007F00
7F0000003F00
7F0000003F00
7E0000003F00
7E0000003F80
7E0000003F80
7E0000001F80
FE0000001F80
FE0000001F80
FE0000001F80
FE0000001F80
FE0000001F80
FE0000001F80
FE0000001F80
7E0000001F80
7E0000003F80
7E0000003F80
7E0000003F00
7F0000003F00
7F0000003F00
3F0000007F00
3F0000007F00
3F8000007E00
1F800000FE00
1FC00001FC00
0FE00001FC00
0FE00003F800
07F00007F800
07FC000FF000
03FF003FE000
01FFF7FFC000
00FFFFFF8000
007FFFFF0000
001FFFFC0000
0007FFF00000
0000FF800000
ENDCHAR
STARTCHAR 014D
ENCODING 333
SWIDTH 555 0
DWIDTH 37 0
BBX 31 51 3 -1
BITMAP
01FFFF00
01FFFF00
01FFFF00
01FFFF00
01FFFF00
00000000
00000000
00000000
00000000
00000000
00000000
00000000
00010000
003FF800
00FFFE00
03FFFF80
07FFFFC0
0FFFFFC0
0FF01FE0
1FC007F0
1F8003F0
3F0003F8
3F0001F8
7E0001FC
7E0000FC
7E0000FC
7E0000FC
7C00007C
FC00007C
FC00007E
FC00007E
FC00007E
FC00007E
FC00007E
FC00007C
7C00007C
7C0000FC
7E0000FC
7E0000FC
7E0000FC
3F0001F8
3F0001F8
3F8003F8
1FC007F0
1FE00FE0
0FF83FE0
07FFFFC0
03FFFF80
01FFFF00
007FFC00
000FE000
ENDCHAR
STARTCHAR 014E
ENCODING 334
SWIDTH 705 0
DWIDTH 47 0
BBX 41 63 3 -1
BITMAP
000E003C0000
000F003C0000
000F807C0000
000FE3F80000
0007FFF80000
0003FFF00000
0001FFE00000
00007F000000
000000000000
000000000000
000000000000
000000000000
00003E000000
0003FFF00000
001FFFFC0000
003FFFFF0000
007FFFFF8000
01FFFFFFC000
03FF007FE000
03FC001FF000
07F80007F800
0FF00003F800
0FE00001FC00
1FC00001FC00
1FC00000FE00
3F800000FE00
3F8000007E00
3F0000007F00
7F0000003F00
7F0000003F00
7E0000003F00
7E0000003F80
7E0000003F80
7E0000001F80
FE0000001F80
FE0000001F80
FE0000001F80
FE0000001F80
FE0000001F80
FE0000001F80
FE0000001F80
7E0000001F80
7E0000003F80
7E0000003F80
7E0000003F00
7F0000003F00
7F0000003F00
3F0000007F00
3F0000007F00
3F8000007E00
1F800000FE00
1FC00001FC00
0FE00001FC00
0FE00003F800
07F00007F800
07FC000FF000
03FF003FE000
01FFF7FFC000
00FFFFFF8000
007FFFFF0000
001FFFFC0000
0007FFF00000
0000FF800000
ENDCHAR
STARTCHAR 014F
ENCODING 335
SWIDTH 555 0
DWIDTH 37 0
BBX 31 54 3 -1
BITMAP
03C00780
03C00780
01C00700
01E00F00
01F01F00
01FFFE00
00FFFE00
007FFC00
003FF800
0007C000
00000000
00000000
00000000
00000000
00000000
00010000
003FF800
00FFFE00
03FFFF80
07FFFFC0
0FFFFFC0
0FF01FE0
1FC007F0
1F8003F0
3F0003F8
3F0001F8
7E0001FC
7E0000FC
7E0000FC
7E0000FC
7C00007C
FC00007C
FC00007E
FC00007E
FC00007E
FC00007E
FC00007E
FC00007C
7C00007C
7C0000FC
7E0000FC
7E0000FC
7E0000FC
3F0001F8
3F0001F8
3F8003F8
1FC007F0
1FE00FE0
0FF83FE0
07FFFFC0
03FFFF80
01FFFF00
007FFC00
000FE000
ENDCHAR
STARTCHAR 0150
ENCODING 336
SWIDTH 705 0
DWIDTH 47 0
BBX 41 63 3 -1
BITMAP
00003E0F8000
00007E1F0000
00007C3F0000
0000F83E0000
0001F07C0000
0001E0F80000
0003E0F80000
0007C1F00000
000783E00000
000000000000
000000000000
000000000000
00003E000000
0003FFF00000
001FFFFC0000
003FFFFF0000
007FFFFF8000
01FFFFFFC000
03FF007FE000
03FC001FF000
07F80007F800
0FF00003F800
0FE00001FC00
1FC00001FC00
1FC00000FE00
3F800000FE00
3F8000007E00
3F0000007F00
7F0000003F00
7F0000003F00
7E0000003F00
7E0000003F80
7E0000003F80
7E0000001F80
FE0000001F80
FE0000001F80
FE0000001F80
FE0000001F80
FE0000001F80
FE0000001F80
FE0000001F80
7E0000001F80
7E0000003F80
7E0000003F80
7E0000003F00
7F0000003F00
7F0000003F00
3F0000007F00
3F0000007F00
3F8000007E00
1F800000FE00
1FC00001FC00
0FE00001FC00
0FE00003F800
07F00007F800
07FC000FF000
03FF003FE000
01FFF7FFC000
00FFFFFF8000
007FFFFF0000
001FFFFC0000
0007FFF00000
0000FF800000
ENDCHAR
STARTCHAR 0151
ENCODING 337
SWIDTH 555 0
DWIDTH 37 0
BBX 31 55 3 -1
BITMAP
0003E0F8
0003E0F8
0007C1F0
0007C1F0
000F83E0
000F83C0
000F07C0
001F0780
001E0F80
003E0F00
003C1E00
00781E00
00783C00
00000000
00000000
00000000
00010000
003FF800
00FFFE00
03FFFF80
07FFFFC0
0FFFFFC0
0FF01FE0
1FC007F0
1F8003F0
3F0003F8
3F0001F8
7E0001FC
7E0000FC
7E0000FC
7E0000FC
7C00007C
FC00007C
FC00007E
FC00007E
FC00007E
FC00007E
FC00007E
FC00007C
7C00007C
7C0000FC
7E0000FC
7E0000FC
7E0000FC
3F0001F8
3F0001F8
3F8003F8
1FC007F0
1FE00FE0
0FF83FE0
07FFFFC0
03FFFF80
01FFFF00
007FFC00
000FE000
ENDCHAR
STARTCHAR 0152
ENCODING 338
SWIDTH 960 0
DWIDTH 64 0
BBX 58 49 3 0
BITMAP
000007FFFFFFFF80
0000FFFFFFFFFF80
0007FFFFFFFFFF80
001FFFFFFFFFFF80
007FFFFFFFFFFF80
00FFFFFFFFFFFF80
01FFE007E0000000
03FF0007E0000000
07FC0007E0000000
0FF00007E0000000
0FE00007E0000000
1FC00007E0000000
1FC00007E0000000
3F800007E0000000
3F800007E0000000
3F000007E0000000
7F000007E0000000
7E000007E0000000
7E000007E0000000
7E000007E0000000
7E000007FFFFFF00
FE000007FFFFFF00
FE000007FFFFFF00
FE000007FFFFFF00
FE000007FFFFFF00
FE000007FFFFFF00
FE000007E0000000
7E000007E0000000
7E000007E0000000
7E000007E0000000
7E000007E0000000
7E000007E0000000
7F000007E0000000
3F000007E0000000
3F000007E0000000
3F800007E0000000
1FC00007E0000000
1FC00007E0000000
0FE00007E0000000
0FF00007E0000000
07FC0007E0000000
03FE0007E0000000
01FFC007E0000000
00FFFFFFFFFFFFC0
007FFFFFFFFFFFC0
001FFFFFFFFFFFC0
0007FFFFFFFFFFC0
0001FFFFFFFFFFC0
00000FFFFFFFFFC0
ENDCHAR
STARTCHAR 0153
ENCODING 339
SWIDTH 930 0
DWIDTH 62 0
BBX 56 39 3 -1
BITMAP
00010000000000
003FF8001FFE00
00FFFE007FFF80
03FFFF00FFFFC0
07FFFF83FFFFE0
0FFFFFC7FFFFF0
0FF01FE7F807F8
1FC007FFE001F8
1F8003FFC000FC
3F0003FF8000FC
3F0001FF00007C
7E0001FF00007E
7E0000FF00003E
7E0000FE00003E
7E0000FE00003E
7C00007E00003E
FC00007FFFFFFE
FC00007FFFFFFE
FC00007FFFFFFF
FC00007FFFFFFF
FC00007FFFFFFF
FC00007E000000
FC00007E000000
7C00007E000000
7C0000FE000000
7E0000FE000000
7E0000FF000000
7E0000FF000000
3F0001FF000000
3F0001FF800000
3F8003FFC00000
1FC007FFE0000C
1FE00FEFF0003C
0FF83FE7FE03FC
07FFFFC3FFFFFC
03FFFF81FFFFFC
01FFFF007FFFF8
007FFC003FFFE0
000FE00003FE00
ENDCHAR
STARTCHAR 0154
ENCODING 340
SWIDTH 630 0
DWIDTH 42 0
BBX 34 62 6 0
BITMAP
0001F00000
0003E00000
0007E00000
0007C00000
000F800000
001F000000
001F000000
003E000000
007C000000
0000000000
0000000000
0000000000
0000000000
FFFFC00000
FFFFF80000
FFFFFE0000
FFFFFF0000
FFFFFF8000
FFFFFFC000
FC003FE000
FC000FE000
FC000FE000
FC0007F000
FC0007F000
FC0003F000
FC0003F000
FC0003F000
FC0003F000
FC0003F000
FC0003F000
FC0003F000
FC0007F000
FC0007E000
FC000FE000
FC001FE000
FC007FC000
FFFFFF8000
FFFFFF0000
FFFFFC0000
FFFFFC0000
FFFFFE0000
FC07FF0000
FC007F8000
FC003F8000
FC001FC000
FC000FE000
FC0007E000
FC0007F000
FC0003F000
FC0003F800
FC0001F800
FC0001F800
FC0000FC00
FC0000FC00
FC0000FE00
FC00007E00
FC00007F00
FC00003F00
FC00003F80
FC00001F80
FC00001F80
FC00000FC0
ENDCHAR
STARTCHAR 0155
ENCODING 341
SWIDTH 375 0
DWIDTH 25 0
BBX 22 54 5 0
BITMAP
0000FC
0001F8
0001F0
0003F0
0007E0
0007C0
000F80
001F00
001F00
003E00
007C00
007800
00F800
000000
000000
000000
000000
FC0FF0
FC3FF0
FC7FF0
FCFFF0
FDFFF0
FFF010
FFC000
FF8000
FF0000
FF0000
FE0000
FE0000
FC0000
FC0000
FC0000
FC0000
FC0000
FC0000
FC0000
FC0000
FC0000
FC0000
FC0000
FC0000
FC0000
FC0000
FC0000
FC0000
FC0000
FC0000
FC0000
FC0000
FC0000
FC0000
FC0000
FC0000
FC0000
ENDCHAR
STARTCHAR 0156
ENCODING 342
SWIDTH 630 0
DWIDTH 42 0
BBX 34 65 6 -16
BITMAP
FFFFC00000
FFFFF80000
FFFFFE0000
FFFFFF0000
FFFFFF8000
FFFFFFC000
FC003FE000
FC000FE000
FC000FE000
FC0007F000
FC0007F000
FC0003F000
FC0003F000
FC0003F000
FC0003F000
FC0003F000
FC0003F000
FC0003F000
FC0007F000
FC0007E000
FC000FE000
FC001FE000
FC007FC000
FFFFFF8000
FFFFFF0000
FFFFFC0000
FFFFFC0000
FFFFFE0000
FC07FF0000
FC007F8000
FC003F8000
FC001FC000
FC000FE000
FC0007E000
FC0007F000
FC0003F000
FC0003F800
FC0001F800
FC0001F800
FC0000FC00
FC0000FC00
FC0000FE00
FC00007E00
FC00007F00
FC00003F00
FC00003F80
FC00001F80
FC00001F80
FC00000FC0
0000000000
0000000000
0000000000
0000000000
0000000000
0000000000
0001F80000
0001F00000
0003F00000
0003F00000
0003E00000
0003E00000
0007C00000
0007C00000
0007800000
0007800000
ENDCHAR
STARTCHAR 0157
ENCODING 343
SWIDTH 375 0
DWIDTH 25 0
BBX 21 53 4 -15
BITMAP
7E07F8
7E1FF8
7E3FF8
7E7FF8
7EFFF8
7FF808
7FE000
7FC000
7F8000
7F8000
7F0000
7F0000
7E0000
7E0000
7E0000
7E0000
7E0000
7E0000
7E0000
7E0000
7E0000
7E0000
7E0000
7E0000
7E0000
7E0000
7E0000
7E0000
7E0000
7E0000
7E0000
7E0000
7E0000
7E0000
7E0000
7E0000
7E0000
000000
000000
000000
000000
000000
000000
3F0000
3F0000
3E0000
7E0000
7C0000
7C0000
780000
F80000
F00000
F00000
ENDCHAR
STARTCHAR 0158
ENCODING 344
SWIDTH 630 0
DWIDTH 42 0
BBX 34 62 6 0
BITMAP
0F00780000
0780F80000
03C0F00000
03E1E00000
01F3E00000
00F7C00000
00FF800000
007F000000
003F000000
0000000000
0000000000
0000000000
0000000000
FFFFC00000
FFFFF80000
FFFFFE0000
FFFFFF0000
FFFFFF8000
FFFFFFC000
FC003FE000
FC000FE000
FC000FE000
FC0007F000
FC0007F000
FC0003F000
FC0003F000
FC0003F000
FC0003F000
FC0003F000
FC0003F000
FC0003F000
FC0007F000
FC0007E000
FC000FE000
FC001FE000
FC007FC000
FFFFFF8000
FFFFFF0000
FFFFFC0000
FFFFFC0000
FFFFFE0000
FC07FF0000
FC007F8000
FC003F8000
FC001FC000
FC000FE000
FC0007E000
FC0007F000
FC0003F000
FC0003F800
FC0001F800
FC0001F800
FC0000FC00
FC0000FC00
FC0000FE00
FC00007E00
FC00007F00
FC00003F00
FC00003F80
FC00001F80
FC00001F80
FC00000FC0
ENDCHAR
STARTCHAR 0159
ENCODING 345
SWIDTH 375 0
DWIDTH 25 0
BBX 20 54 5 0
BITMAP
3C00F0
3C01F0
1E01E0
1F03C0
0F07C0
0F8780
07CF80
03DF00
03FF00
01FE00
01FC00
00FC00
007800
000000
000000
000000
000000
FC0FF0
FC3FF0
FC7FF0
FCFFF0
FDFFF0
FFF010
FFC000
FF8000
FF0000
FF0000
FE0000
FE0000
FC0000
FC0000
FC0000
FC0000
FC0000
FC0000
FC0000
FC0000
FC0000
FC0000
FC0000
FC0000
FC0000
FC0000
FC0000
FC0000
FC0000
FC0000
FC0000
FC0000
FC0000
FC0000
FC0000
FC0000
FC0000
ENDCHAR
STARTCHAR 015A
ENCODING 346
SWIDTH 570 0
DWIDTH 38 0
BBX 31 63 4 -1
BITMAP
00007C00
0000F800
0001F800
0001F000
0003E000
0007C000
0007C000
000F8000
001F0000
00000000
00000000
00000000
000FE000
00FFFF00
03FFFFF0
07FFFFF0
0FFFFFF0
1FFFFFF0
3FE003F0
7F800070
7F000010
7E000000
FE000000
FC000000
FC000000
FC000000
FC000000
FC000000
FC000000
FE000000
FF000000
7F800000
7FF00000
3FFE0000
1FFFF000
1FFFFE00
07FFFF80
03FFFFC0
007FFFE0
000FFFF0
00007FF8
00000FF8
000003FC
000001FC
000000FC
000000FE
000000FE
0000007E
0000007E
0000007E
0000007E
000000FE
000000FE
800000FC
E00001FC
F80003FC
FE000FF8
FFF8FFF0
FFFFFFE0
FFFFFFC0
3FFFFF80
07FFFE00
007FE000
ENDCHAR
STARTCHAR 015B
ENCODING 347
SWIDTH 465 0
DWIDTH 31 0
BBX 25 55 3 -1
BITMAP
00003F00
00007E00
00007C00
0000FC00
0001F800
0001F000
0003E000
0007C000
0007C000
000F8000
001F0000
001E0000
003E0000
00000000
00000000
00000000
00040000
01FFF800
07FFFF00
0FFFFF00
1FFFFF00
3FFFFF00
7F000F00
7E000300
7C000000
7C000000
FC000000
FC000000
7C000000
7C000000
7E000000
7F800000
3FF80000
3FFF8000
1FFFE000
07FFF800
01FFFE00
003FFF00
0003FF00
0000FF80
00003F80
00001F80
00000F80
00000F80
00000F80
00000F80
00001F80
C0001F80
F8003F80
FF01FF00
FFFFFE00
FFFFFC00
FFFFF800
1FFFE000
01FF0000
ENDCHAR
STARTCHAR 015C
ENCODING 348
SWIDTH 570 0
DWIDTH 38 0
BBX 31 63 4 -1
BITMAP
000FE000
000FE000
001FF000
003EF800
007C7800
00783C00
00F03E00
01F01F00
01E00F00
00000000
00000000
00000000
000FE000
00FFFF00
03FFFFF0
07FFFFF0
0FFFFFF0
1FFFFFF0
3FE003F0
7F800070
7F000010
7E000000
FE000000
FC000000
FC000000
FC000000
FC000000
FC000000
FC000000
FE000000
FF000000
7F800000
7FF00000
3FFE0000
1FFFF000
1FFFFE00
07FFFF80
03FFFFC0
007FFFE0
000FFFF0
00007FF8
00000FF8
000003FC
000001FC
000000FC
000000FE
000000FE
0000007E
0000007E
0000007E
0000007E
000000FE
000000FE
800000FC
E00001FC
F80003FC
FE000FF8
FFF8FFF0
FFFFFFE0
FFFFFFC0
3FFFFF80
07FFFE00
007FE000
ENDCHAR
STARTCHAR 015D
ENCODING 349
SWIDTH 465 0
DWIDTH 31 0
BBX 25 55 3 -1
BITMAP
001E0000
003F0000
003F8000
007F8000
007FC000
00FBC000
01F3E000
01E1E000
03E0F000
03C0F800
07807800
0F803C00
0F003C00
00000000
00000000
00000000
00040000
01FFF800
07FFFF00
0FFFFF00
1FFFFF00
3FFFFF00
7F000F00
7E000300
7C000000
7C000000
FC000000
FC000000
7C000000
7C000000
7E000000
7F800000
3FF80000
3FFF8000
1FFFE000
07FFF800
01FFFE00
003FFF00
0003FF00
0000FF80
00003F80
00001F80
00000F80
00000F80
00000F80
00000F80
00001F80
C0001F80
F8003F80
FF01FF00
FFFFFE00
FFFFFC00
FFFFF800
1FFFE000
01FF0000
ENDCHAR
STARTCHAR 015E
ENCODING 350
SWIDTH 570 0
DWIDTH 38 0
BBX 31 63 4 -13
BITMAP
000FE000
00FFFF00
03FFFFF0
07FFFFF0
0FFFFFF0
1FFFFFF0
3FE003F0
7F800070
7F000010
7E000000
FE000000
FC000000
FC000000
FC000000
FC000000
FC000000
FC000000
FE000000
FF000000
7F800000
7FF00000
3FFE0000
1FFFF000
1FFFFE00
07FFFF80
03FFFFC0
007FFFE0
000FFFF0
00007FF8
00000FF8
000003FC
000001FC
000000FC
000000FE
000000FE
0000007E
0000007E
0000007E
0000007E
000000FE
000000FE
800000FC
E00001FC
F80003FC
FE000FF8
FFF8FFF0
FFFFFFE0
FFFFFFC0
3FFFFF80
07FFFE00
007FE000
0001E000
0000E000
0000F000
0000F000
00007800
00007800
0000F800
0041F800
007FF000
007FF000
007FE000
003F8000
ENDCHAR
STARTCHAR 015F
ENCODING 351
SWIDTH 465 0
DWIDTH 31 0
BBX 25 51 3 -13
BITMAP
00040000
01FFF800
07FFFF00
0FFFFF00
1FFFFF00
3FFFFF00
7F000F00
7E000300
7C000000
7C000000
FC000000
FC000000
7C000000
7C000000
7E000000
7F800000
3FF80000
3FFF8000
1FFFE000
07FFF800
01FFFE00
003FFF00
0003FF00
0000FF80
00003F80
00001F80
00000F80
00000F80
00000F80
00000F80
00001F80
C0001F80
F8003F80
FF01FF00
FFFFFE00
FFFFFC00
FFFFF800
1FFFE000
01FF0000
00070000
00078000
0003C000
0003C000
0003C000
0003C000
0003C000
0307C000
03FFC000
03FF8000
03FF8000
00FE0000
ENDCHAR
STARTCHAR 0160
ENCODING 352
SWIDTH 570 0
DWIDTH 38 0
BBX 31 63 4 -1
BITMAP
01E00F00
01F01E00
00F03C00
00787C00
007CF800
003FF000
001FF000
000FE000
000FC000
00000000
00000000
00000000
000FE000
00FFFF00
03FFFFF0
07FFFFF0
0FFFFFF0
1FFFFFF0
3FE003F0
7F800070
7F000010
7E000000
FE000000
FC000000
FC000000
FC000000
FC000000
FC000000
FC000000
FE000000
FF000000
7F800000
7FF00000
3FFE0000
1FFFF000
1FFFFE00
07FFFF80
03FFFFC0
007FFFE0
000FFFF0
00007FF8
00000FF8
000003FC
000001FC
000000FC
000000FE
000000FE
0000007E
0000007E
0000007E
0000007E
000000FE
000000FE
800000FC
E00001FC
F80003FC
FE000FF8
FFF8FFF0
FFFFFFE0
FFFFFFC0
3FFFFF80
07FFFE00
007FE000
ENDCHAR
STARTCHAR 0161
ENCODING 353
SWIDTH 465 0
DWIDTH 31 0
BBX 25 55 3 -1
BITMAP
0F001E00
07803C00
07807C00
03C07800
03E0F000
01E1F000
00F1E000
00FBE000
007FC000
007F8000
003F8000
003F0000
001F0000
00000000
00000000
00000000
00040000
01FFF800
07FFFF00
0FFFFF00
1FFFFF00
3FFFFF00
7F000F00
7E000300
7C000000
7C000000
FC000000
FC000000
7C000000
7C000000
7E000000
7F800000
3FF80000
3FFF8000
1FFFE000
07FFF800
01FFFE00
003FFF00
0003FF00
0000FF80
00003F80
00001F80
00000F80
00000F80
00000F80
00000F80
00001F80
C0001F80
F8003F80
FF01FF00
FFFFFE00
FFFFFC00
FFFFF800
1FFFE000
01FF0000
ENDCHAR
STARTCHAR 0162
ENCODING 354
SWIDTH 555 0
DWIDTH 37 0
BBX 37 62 0 -13
BITMAP
FFFFFFFFF8
FFFFFFFFF8
FFFFFFFFF8
FFFFFFFFF8
FFFFFFFFF8
FFFFFFFFF8
0001F80000
0001F80000
0001F80000
0001F80000
0001F80000
0001F80000
0001F80000
0001F80000
0001F80000
0001F80000
0001F80000
0001F80000
0001F80000
0001F80000
0001F80000
0001F80000
0001F80000
0001F80000
0001F80000
0001F80000
0001F80000
0001F80000
0001F80000
0001F80000
0001F80000
0001F80000
0001F80000
0001F80000
0001F80000
0001F80000
0001F80000
0001F80000
0001F80000
0001F80000
0001F80000
0001F80000
0001F80000
0001F80000
0001F80000
0001F80000
0001F80000
0001F80000
0001F80000
0000700000
0000780000
00003C0000
00003C0000
00001E0000
00001E0000
00001E0000
00001E0000
00183E0000
001FFE0000
001FFC0000
001FF80000
000FE00000
ENDCHAR
STARTCHAR 0163
ENCODING 355
SWIDTH 360 0
DWIDTH 24 0
BBX 20 60 2 -13
BITMAP
0F8000
0F8000
0F8000
0F8000
0F8000
0F8000
0F8000
0F8000
0F8000
0F8000
FFFFF0
FFFFF0
FFFFF0
FFFFF0
FFFFF0
0F8000
0F8000
0F8000
0F8000
0F8000
0F8000
0F8000
0F8000
0F8000
0F8000
0F8000
0F8000
0F8000
0F8000
0F8000
0F8000
0F8000
0F8000
0F8000
0F8000
0F8000
0F8000
0F8000
0F8000
0FC000
0FC000
0FE000
07FFF0
07FFF0
03FFF0
01FFF0
003FF0
001E00
000F00
000700
000780
000780
0003C0
0003C0
0007C0
020FC0
03FF80
03FF80
03FF00
01FC00
ENDCHAR
STARTCHAR 0164
ENCODING 356
SWIDTH 555 0
DWIDTH 37 0
BBX 37 62 0 0
BITMAP
003C01E000
001E03C000
001F07C000
000F8F8000
00078F0000
0007DF0000
0003FE0000
0001FC0000
0000F80000
0000000000
0000000000
0000000000
0000000000
FFFFFFFFF8
FFFFFFFFF8
FFFFFFFFF8
FFFFFFFFF8
FFFFFFFFF8
FFFFFFFFF8
0001F80000
0001F80000
0001F80000
0001F80000
0001F80000
0001F80000
0001F80000
0001F80000
0001F80000
0001F80000
0001F80000
0001F80000
0001F80000
0001F80000
0001F80000
0001F80000
0001F80000
0001F80000
0001F80000
0001F80000
0001F80000
0001F80000
0001F80000
0001F80000
0001F80000
0001F80000
0001F80000
0001F80000
0001F80000
0001F80000
0001F80000
0001F80000
0001F80000
0001F80000
0001F80000
0001F80000
0001F80000
0001F80000
0001F80000
0001F80000
0001F80000
0001F80000
0001F80000
ENDCHAR
STARTCHAR 0165
ENCODING 357
SWIDTH 360 0
DWIDTH 24 0
BBX 20 55 2 0
BITMAP
0001F0
0003F0
0003F0
0003F0
0003E0
0003E0
0003E0
0007E0
0F87C0
0F87C0
0F87C0
0F8780
0F8000
0F8000
0F8000
0F8000
0F8000
0F8000
FFFFF0
FFFFF0
FFFFF0
FFFFF0
FFFFF0
0F8000
0F8000
0F8000
0F8000
0F8000
0F8000
0F8000
0F8000
0F8000
0F8000
0F8000
0F8000
0F8000
0F8000
0F8000
0F8000
0F8000
0F8000
0F8000
0F8000
0F8000
0F8000
0F8000
0F8000
0FC000
0FC000
0FE000
07FFF0
07FFF0
03FFF0
01FFF0
003FF0
ENDCHAR
STARTCHAR 0166
ENCODING 358
SWIDTH 555 0
DWIDTH 37 0
BBX 37 49 0 0
BITMAP
FFFFFFFFF8
FFFFFFFFF8
FFFFFFFFF8
FFFFFFFFF8
FFFFFFFFF8
FFFFFFFFF8
0001F80000
0001F80000
0001F80000
0001F80000
0001F80000
0001F80000
0001F80000
0001F80000
0001F80000
0001F80000
0001F80000
0001F80000
0001F80000
0001F80000
0001F80000
0001F80000
0001F80000
0001F80000
0001F80000
00FFFFF800
00FFFFF800
00FFFFF800
00FFFFF800
00FFFFF800
0001F80000
0001F80000
0001F80000
0001F80000
0001F80000
0001F80000
0001F80000
0001F80000
0001F80000
0001F80000
0001F80000
0001F80000
0001F80000
0001F80000
0001F80000
0001F80000
0001F80000
0001F80000
0001F80000
ENDCHAR
STARTCHAR 0167
ENCODING 359
SWIDTH 360 0
DWIDTH 24 0
BBX 20 47 2 0
BITMAP
0F8000
0F8000
0F8000
0F8000
0F8000
0F8000
0F8000
0F8000
0F8000
0F8000
FFFFF0
FFFFF0
FFFFF0
FFFFF0
FFFFF0
0F8000
0F8000
0F8000
0F8000
0F8000
0F8000
0F8000
0F8000
FFFFF0
FFFFF0
FFFFF0
FFFFF0
0F8000
0F8000
0F8000
0F8000
0F8000
0F8000
0F8000
0F8000
0F8000
0F8000
0F8000
0F8000
0FC000
0FC000
0FE000
07FFF0
07FFF0
03FFF0
01FFF0
003FF0
ENDCHAR
STARTCHAR 0168
ENCODING 360
SWIDTH 660 0
DWIDTH 44 0
BBX 34 63 5 -1
BITMAP
000001E000
003F81E000
007FC1E000
00FFF3C000
00FBFFC000
00E0FF8000
01E07F8000
01E00C0000
0000000000
0000000000
0000000000
0000000000
0000000000
FC00000FC0
FC00000FC0
FC00000FC0
FC00000FC0
FC00000FC0
FC00000FC0
FC00000FC0
FC00000FC0
FC00000FC0
FC00000FC0
FC00000FC0
FC00000FC0
FC00000FC0
FC00000FC0
FC00000FC0
FC00000FC0
FC00000FC0
FC00000FC0
FC00000FC0
FC00000FC0
FC00000FC0
FC00000FC0
FC00000FC0
FC00000FC0
FC00000FC0
FC00000FC0
FC00000FC0
FC00000FC0
FC00000FC0
FC00000FC0
FC00000FC0
FC00000FC0
FC00000FC0
FC00000FC0
FC00000FC0
7E00001FC0
7E00001F80
7E00001F80
7E00001F80
7F00003F80
3F00003F00
3F80007F00
1FC000FE00
1FF003FE00
0FFF3FFC00
07FFFFF800
03FFFFF000
01FFFFE000
007FFF8000
000FFC0000
ENDCHAR
STARTCHAR 0169
ENCODING 361
SWIDTH 570 0
DWIDTH 38 0
BBX 28 53 5 -1
BITMAP
00F00F00
03FC0F00
03FE0E00
07FF1E00
079F9E00
070FFE00
0F07FC00
0F03FC00
0F01F000
00000000
00000000
00000000
00000000
00000000
00000000
FC0003F0
FC0003F0
FC0003F0
FC0003F0
FC0003F0
FC0003F0
FC0003F0
FC0003F0
FC0003F0
FC0003F0
FC0003F0
FC0003F0
FC0003F0
FC0003F0
FC0003F0
FC0003F0
FC0003F0
FC0003F0
FC0003F0
FC0003F0
FC0003F0
FC0003F0
FC0003F0
FC0003F0
FC0003F0
FC0003F0
FC0007F0
7C0007F0
7C0007F0
7E000FF0
7F001FF0
3F803FF0
3FE1FFF0
1FFFFBF0
1FFFF3F0
0FFFE3F0
03FF83F0
00FE0000
ENDCHAR
STARTCHAR 016A
ENCODING 362
SWIDTH 660 0
DWIDTH 44 0
BBX 34 61 5 -1
BITMAP
00FFFFC000
00FFFFC000
00FFFFC000
00FFFFC000
00FFFFC000
0000000000
0000000000
0000000000
0000000000
0000000000
0000000000
FC00000FC0
FC00000FC0
FC00000FC0
FC00000FC0
FC00000FC0
FC00000FC0
FC00000FC0
FC00000FC0
FC00000FC0
FC00000FC0
FC00000FC0
FC00000FC0
FC00000FC0
FC00000FC0
FC00000FC0
FC00000FC0
FC00000FC0
FC00000FC0
FC00000FC0
FC00000FC0
FC00000FC0
FC00000FC0
FC00000FC0
FC00000FC0
FC00000FC0
FC00000FC0
FC00000FC0
FC00000FC0
FC00000FC0
FC00000FC0
FC00000FC0
FC00000FC0
FC00000FC0
FC00000FC0
FC00000FC0
7E00001FC0
7E00001F80
7E00001F80
7E00001F80
7F00003F80
3F00003F00
3F80007F00
1FC000FE00
1FF003FE00
0FFF3FFC00
07FFFFF800
03FFFFF000
01FFFFE000
007FFF8000
000FFC0000
ENDCHAR
STARTCHAR 016B
ENCODING 363
SWIDTH 570 0
DWIDTH 38 0
BBX 28 51 5 -1
BITMAP
07FFFE00
07FFFE00
07FFFE00
07FFFE00
07FFFE00
00000000
00000000
00000000
00000000
00000000
00000000
00000000
00000000
FC0003F0
FC0003F0
FC0003F0
FC0003F0
FC0003F0
FC0003F0
FC0003F0
FC0003F0
FC0003F0
FC0003F0
FC0003F0
FC0003F0
FC0003F0
FC0003F0
FC0003F0
FC0003F0
FC0003F0
FC0003F0
FC0003F0
FC0003F0
FC0003F0
FC0003F0
FC0003F0
FC0003F0
FC0003F0
FC0003F0
FC0007F0
7C0007F0
7C0007F0
7E000FF0
7F001FF0
3F803FF0
3FE1FFF0
1FFFFBF0
1FFFF3F0
0FFFE3F0
03FF83F0
00FE0000
ENDCHAR
STARTCHAR 016C
ENCODING 364
SWIDTH 660 0
DWIDTH 44 0
BBX 34 63 5 -1
BITMAP
00E001C000
00F003C000
00F807C000
007F3F8000
007FFF8000
003FFF0000
001FFE0000
0003F00000
0000000000
0000000000
0000000000
0000000000
0000000000
FC00000FC0
FC00000FC0
FC00000FC0
FC00000FC0
FC00000FC0
FC00000FC0
FC00000FC0
FC00000FC0
FC00000FC0
FC00000FC0
FC00000FC0
FC00000FC0
FC00000FC0
FC00000FC0
FC00000FC0
FC00000FC0
FC00000FC0
FC00000FC0
FC00000FC0
FC00000FC0
FC00000FC0
FC00000FC0
FC00000FC0
FC00000FC0
FC00000FC0
FC00000FC0
FC00000FC0
FC00000FC0
FC00000FC0
FC00000FC0
FC00000FC0
FC00000FC0
FC00000FC0
FC00000FC0
FC00000FC0
7E00001FC0
7E00001F80
7E00001F80
7E00001F80
7F00003F80
3F00003F00
3F80007F00
1FC000FE00
1FF003FE00
0FFF3FFC00
07FFFFF800
03FFFFF000
01FFFFE000
007FFF8000
000FFC0000
ENDCHAR
STARTCHAR 016D
ENCODING 365
SWIDTH 570 0
DWIDTH 38 0
BBX 28 54 5 -1
BITMAP
07000E00
07001E00
07801E00
07803E00
03E07C00
03FFFC00
01FFF800
01FFF000
007FE000
001F0000
00000000
00000000
00000000
00000000
00000000
00000000
FC0003F0
FC0003F0
FC0003F0
FC0003F0
FC0003F0
FC0003F0
FC0003F0
FC0003F0
FC0003F0
FC0003F0
FC0003F0
FC0003F0
FC0003F0
FC0003F0
FC0003F0
FC0003F0
FC0003F0
FC0003F0
FC0003F0
FC0003F0
FC0003F0
FC0003F0
FC0003F0
FC0003F0
FC0003F0
FC0003F0
FC0007F0
7C0007F0
7C0007F0
7E000FF0
7F001FF0
3F803FF0
3FE1FFF0
1FFFFBF0
1FFFF3F0
0FFFE3F0
03FF83F0
00FE0000
ENDCHAR
STARTCHAR 016E
ENCODING 366
SWIDTH 660 0
DWIDTH 44 0
BBX 34 63 5 -1
BITMAP
0001E00000
0007F80000
000FFE0000
001FFE0000
003F1F0000
003C0F8000
0078078000
0078078000
0078038000
0078038000
0078078000
0078078000
003C0F8000
FC3E1F0FC0
FC1FFF0FC0
FC1FFE0FC0
FC0FFC0FC0
FC03F00FC0
FC00000FC0
FC00000FC0
FC00000FC0
FC00000FC0
FC00000FC0
FC00000FC0
FC00000FC0
FC00000FC0
FC00000FC0
FC00000FC0
FC00000FC0
FC00000FC0
FC00000FC0
FC00000FC0
FC00000FC0
FC00000FC0
FC00000FC0
FC00000FC0
FC00000FC0
FC00000FC0
FC00000FC0
FC00000FC0
FC00000FC0
FC00000FC0
FC00000FC0
FC00000FC0
FC00000FC0
FC00000FC0
FC00000FC0
FC00000FC0
7E00001FC0
7E00001F80
7E00001F80
7E00001F80
7F00003F80
3F00003F00
3F80007F00
1FC000FE00
1FF003FE00
0FFF3FFC00
07FFFFF800
03FFFFF000
01FFFFE000
007FFF8000
000FFC0000
ENDCHAR
STARTCHAR 016F
ENCODING 367
SWIDTH 570 0
DWIDTH 38 0
BBX 28 58 5 -1
BITMAP
000F0000
007FC000
00FFE000
01FFF000
01F1F800
03E07800
03C03800
03803C00
03803C00
03803C00
03803C00
03C03C00
03C07800
01F0F800
01FFF000
00FFE000
007FC000
001F8000
00000000
00000000
FC0003F0
FC0003F0
FC0003F0
FC0003F0
FC0003F0
FC0003F0
FC0003F0
FC0003F0
FC0003F0
FC0003F0
FC0003F0
FC0003F0
FC0003F0
FC0003F0
FC0003F0
FC0003F0
FC0003F0
FC0003F0
FC0003F0
FC0003F0
FC0003F0
FC0003F0
FC0003F0
FC0003F0
FC0003F0
FC0003F0
FC0007F0
7C0007F0
7C0007F0
7E000FF0
7F001FF0
3F803FF0
3FE1FFF0
1FFFFBF0
1FFFF3F0
0FFFE3F0
03FF83F0
00FE0000
ENDCHAR
STARTCHAR 0170
ENCODING 368
SWIDTH 660 0
DWIDTH 44 0
BBX 34 63 5 -1
BITMAP
0003F0FC00
0003E1F800
0007C1F000
000F83E000
000F87C000
001F07C000
003E0F8000
003C1F0000
00781E0000
0000000000
0000000000
0000000000
0000000000
FC00000FC0
FC00000FC0
FC00000FC0
FC00000FC0
FC00000FC0
FC00000FC0
FC00000FC0
FC00000FC0
FC00000FC0
FC00000FC0
FC00000FC0
FC00000FC0
FC00000FC0
FC00000FC0
FC00000FC0
FC00000FC0
FC00000FC0
FC00000FC0
FC00000FC0
FC00000FC0
FC00000FC0
FC00000FC0
FC00000FC0
FC00000FC0
FC00000FC0
FC00000FC0
FC00000FC0
FC00000FC0
FC00000FC0
FC00000FC0
FC00000FC0
FC00000FC0
FC00000FC0
FC00000FC0
FC00000FC0
7E00001FC0
7E00001F80
7E00001F80
7E00001F80
7F00003F80
3F00003F00
3F80007F00
1FC000FE00
1FF003FE00
0FFF3FFC00
07FFFFF800
03FFFFF000
01FFFFE000
007FFF8000
000FFC0000
ENDCHAR
STARTCHAR 0171
ENCODING 369
SWIDTH 570 0
DWIDTH 38 0
BBX 28 55 5 -1
BITMAP
0007C1F0
000F83E0
000F83E0
001F07C0
001F07C0
003E0F80
003E0F00
003C1F00
007C1E00
00783E00
00F03C00
00F07800
01E07800
00000000
00000000
00000000
00000000
FC0003F0
FC0003F0
FC0003F0
FC0003F0
FC0003F0
FC0003F0
FC0003F0
FC0003F0
FC0003F0
FC0003F0
FC0003F0
FC0003F0
FC0003F0
FC0003F0
FC0003F0
FC0003F0
FC0003F0
FC0003F0
FC0003F0
FC0003F0
FC0003F0
FC0003F0
FC0003F0
FC0003F0
FC0003F0
FC0003F0
FC0007F0
7C0007F0
7C0007F0
7E000FF0
7F001FF0
3F803FF0
3FE1FFF0
1FFFFBF0
1FFFF3F0
0FFFE3F0
03FF83F0
00FE0000
ENDCHAR
STARTCHAR 0172
ENCODING 370
SWIDTH 660 0
DWIDTH 44 0
BBX 34 62 5 -13
BITMAP
FC00000FC0
FC00000FC0
FC00000FC0
FC00000FC0
FC00000FC0
FC00000FC0
FC00000FC0
FC00000FC0
FC00000FC0
FC00000FC0
FC00000FC0
FC00000FC0
FC00000FC0
FC00000FC0
FC00000FC0
FC00000FC0
FC00000FC0
FC00000FC0
FC00000FC0
FC00000FC0
FC00000FC0
FC00000FC0
FC00000FC0
FC00000FC0
FC00000FC0
FC00000FC0
FC00000FC0
FC00000FC0
FC00000FC0
FC00000FC0
FC00000FC0
FC00000FC0
FC00000FC0
FC00000FC0
FC00000FC0
7E00001FC0
7E00001F80
7E00001F80
7E00001F80
7F00003F80
3F00003F00
3F80007F00
1FC000FE00
1FF003FE00
0FFF3FFC00
07FFFFF800
03FFFFF000
01FFFFE000
007FFF8000
000FFC0000
0003C00000
0003800000
0007800000
0007000000
000F000000
000F000000
000F800000
000FC20000
000FFE0000
0007FE0000
0003FE0000
0000FC0000
ENDCHAR
STARTCHAR 0173
ENCODING 371
SWIDTH 570 0
DWIDTH 38 0
BBX 32 50 5 -12
BITMAP
FC0003F0
FC0003F0
FC0003F0
FC0003F0
FC0003F0
FC0003F0
FC0003F0
FC0003F0
FC0003F0
FC0003F0
FC0003F0
FC0003F0
FC0003F0
FC0003F0
FC0003F0
FC0003F0
FC0003F0
FC0003F0
FC0003F0
FC0003F0
FC0003F0
FC0003F0
FC0003F0
FC0003F0
FC0003F0
FC0003F0
FC0007F0
7C0007F0
7C0007F0
7E000FF0
7F001FF0
3F803FF0
3FE1FFF0
1FFFFBF0
1FFFF3F0
0FFFE3F0
03FF83F0
00FE00E0
000001E0
000003C0
000003C0
00000780
00000780
00000780
00000780
000007C1
000007FF
000003FF
000001FF
0000007E
ENDCHAR
STARTCHAR 0174
ENCODING 372
SWIDTH 900 0
DWIDTH 60 0
BBX 56 62 2 0
BITMAP
0000007E000000
000000FF000000
000001FF000000
000001EF800000
000003C7C00000
000007C3E00000
00000F81E00000
00000F00F00000
00001E00780000
00000000000000
00000000000000
00000000000000
00000000000000
FC0000FE00003F
FC0000FE00007E
7E0000FF00007E
7E0000FF00007E
7E0001FF00007E
7E0001FF0000FC
7E0001FF8000FC
3F0001FF8000FC
3F0001EF8000FC
3F0003E78000FC
3F0003E78001F8
1F8003E7C001F8
1F8003E7C001F8
1F8007C7C001F8
1F8007C3C003F0
1F8007C3E003F0
0FC007C3E003F0
0FC00783E003F0
0FC00F83E003F0
0FC00F81E007E0
07E00F81F007E0
07E00F81F007E0
07E01F01F007E0
07E01F00F00FC0
07E01F00F80FC0
03F01F00F80FC0
03F01E00F80FC0
03F03E00F81F80
03F03E007C1F80
01F83E007C1F80
01F83E007C1F80
01F87C007C1F80
01F87C003C3F00
00F87C003E3F00
00FC7C003E3F00
00FC78003E3F00
00FCF8003E7E00
00FCF8001F7E00
007EF8001F7E00
007EF8001F7E00
007FF0001F7E00
007FF0001FFC00
003FF0000FFC00
003FF0000FFC00
003FE0000FFC00
003FE0000FF800
003FE00007F800
001FE00007F800
001FE00007F800
ENDCHAR
STARTCHAR 0175
ENCODING 373
SWIDTH 735 0
DWIDTH 49 0
BBX 44 54 3 0
BITMAP
00001F000000
00001F000000
00003F800000
00003FC00000
00007FC00000
0000FBE00000
0000F1E00000
0001F1F00000
0001E0F80000
0003C0780000
0003C07C0000
0007803C0000
000F001E0000
000000000000
000000000000
000000000000
000000000000
F8003F8003F0
F8003F8003F0
F8003F8003E0
FC003FC003E0
FC007FC007E0
7C007FC007E0
7C007FC007C0
7E007FE007C0
7E007BE00FC0
3E00FBE00FC0
3E00FBE00F80
3F00F9E00F80
3F00F1F01F80
1F01F1F01F80
1F01F1F01F00
1F81F0F01F00
1F81E0F81F00
0F83E0F83F00
0F83E0F83F00
0F83E0783E00
0FC3C07C3E00
0FC7C07C7E00
07C7C07C7E00
07C7C03C7C00
07E7C03E7C00
07E7803EFC00
03EF803EFC00
03EF801EF800
03FF801FF800
03FF001FF800
01FF001FF800
01FF001FF000
01FF000FF000
01FE000FF000
00FE000FF000
00FE000FF000
00FE0007E000
ENDCHAR
STARTCHAR 0176
ENCODING 374
SWIDTH 555 0
DWIDTH 37 0
BBX 37 62 0 0
BITMAP
0001FC0000
0001FC0000
0003FE0000
0007DF0000
000F8F0000
000F078000
001E07C000
003E03E000
003C01E000
0000000000
0000000000
0000000000
0000000000
FE000003F8
7E000003F0
7F000007F0
3F000007E0
1F80000FC0
1FC0001FC0
0FC0001F80
0FE0003F80
07E0003F00
03F0007E00
03F800FE00
01F800FC00
01FC01FC00
00FC01F800
007E03F000
007F07F000
003F07E000
003F8FC000
001F8FC000
000FDF8000
000FFF8000
0007FF0000
0003FE0000
0003FE0000
0001FC0000
0001FC0000
0001F80000
0001F80000
0001F80000
0001F80000
0001F80000
0001F80000
0001F80000
0001F80000
0001F80000
0001F80000
0001F80000
0001F80000
0001F80000
0001F80000
0001F80000
0001F80000
0001F80000
0001F80000
0001F80000
0001F80000
0001F80000
0001F80000
0001F80000
ENDCHAR
STARTCHAR 0177
ENCODING 375
SWIDTH 540 0
DWIDTH 36 0
BBX 32 68 2 -14
BITMAP
0003C000
0007E000
000FE000
000FF000
001FF000
001EF800
003E7C00
003C3C00
00783E00
00F81E00
00F00F00
01E00F80
01E00780
00000000
00000000
00000000
00000000
FC00003F
FC00003E
7C00007E
7E00007E
7E00007C
3E0000FC
3F0000FC
3F0000F8
1F0001F8
1F8001F8
0F8003F0
0FC003F0
0FC003F0
07C007E0
07E007E0
07E007C0
03E00FC0
03F00FC0
01F00F80
01F01F80
01F81F80
00F81F00
00F83F00
00FC3F00
007C7E00
007E7E00
007E7C00
003EFC00
003FFC00
001FF800
001FF800
001FF800
000FF000
000FF000
000FF000
0007E000
0007E000
0007C000
000FC000
000FC000
000F8000
001F8000
001F8000
003F0000
003F0000
00FE0000
1FFE0000
1FFC0000
1FF80000
1FF00000
1FC00000
ENDCHAR
STARTCHAR 0178
ENCODING 376
SWIDTH 555 0
DWIDTH 37 0
BBX 37 61 0 0
BITMAP
003F07E000
003F07E000
003F07E000
003F07E000
003F07E000
003F07E000
003F07E000
0000000000
0000000000
0000000000
0000000000
0000000000
FE000003F8
7E000003F0
7F000007F0
3F000007E0
1F80000FC0
1FC0001FC0
0FC0001F80
0FE0003F80
07E0003F00
03F0007E00
03F800FE00
01F800FC00
01FC01FC00
00FC01F800
007E03F000
007F07F000
003F07E000
003F8FC000
001F8FC000
000FDF8000
000FFF8000
0007FF0000
0003FE0000
0003FE0000
0001FC0000
0001FC0000
0001F80000
0001F80000
0001F80000
0001F80000
0001F80000
0001F80000
0001F80000
0001F80000
0001F80000
0001F80000
0001F80000
0001F80000
0001F80000
0001F80000
0001F80000
0001F80000
0001F80000
0001F80000
0001F80000
0001F80000
0001F80000
0001F80000
0001F80000
ENDCHAR
STARTCHAR 0179
ENCODING 377
SWIDTH 615 0
DWIDTH 41 0
BBX 36 62 3 0
BITMAP
00003E0000
00007C0000
0000FC0000
0000F80000
0001F00000
0003E00000
0003E00000
0007C00000
000F800000
0000000000
0000000000
0000000000
0000000000
FFFFFFFFE0
FFFFFFFFE0
FFFFFFFFE0
FFFFFFFFE0
FFFFFFFFE0
FFFFFFFFE0
0000001FC0
0000003F80
0000007F80
0000007F00
000000FE00
000001FC00
000001FC00
000003F800
000007F000
00000FE000
00000FE000
00001FC000
00003F8000
00007F8000
00007F0000
0000FE0000
0001FC0000
0001FC0000
0003F80000
0007F00000
000FE00000
000FE00000
001FC00000
003F800000
007F800000
007F000000
00FE000000
01FC000000
01FC000000
03F8000000
07F0000000
0FE0000000
0FE0000000
1FC0000000
3F80000000
7F80000000
7F00000000
FFFFFFFFF0
FFFFFFFFF0
FFFFFFFFF0
FFFFFFFFF0
FFFFFFFFF0
FFFFFFFFF0
ENDCHAR
STARTCHAR 017A
ENCODING 378
SWIDTH 480 0
DWIDTH 32 0
BBX 26 54 3 0
BITMAP
00003F00
00007E00
00007C00
0000FC00
0001F800
0001F000
0003E000
0007C000
0007C000
000F8000
001F0000
001E0000
003E0000
00000000
00000000
00000000
00000000
FFFFFFC0
FFFFFFC0
FFFFFFC0
FFFFFFC0
FFFFFFC0
00000FC0
00001FC0
00003F80
00007F00
00007E00
0000FC00
0001FC00
0003F800
0003F000
0007E000
000FE000
001FC000
003F8000
003F0000
007F0000
00FE0000
01FC0000
01F80000
03F00000
07F00000
0FE00000
1FC00000
1F800000
3F800000
7F000000
FE000000
FC000000
FFFFFFC0
FFFFFFC0
FFFFFFC0
FFFFFFC0
FFFFFFC0
ENDCHAR
STARTCHAR 017B
ENCODING 379
SWIDTH 615 0
DWIDTH 41 0
BBX 36 61 3 0
BITMAP
0001F80000
0001F80000
0001F80000
0001F80000
0001F80000
0001F80000
0001F80000
0000000000
0000000000
0000000000
0000000000
0000000000
FFFFFFFFE0
FFFFFFFFE0
FFFFFFFFE0
FFFFFFFFE0
FFFFFFFFE0
FFFFFFFFE0
0000001FC0
0000003F80
0000007F80
0000007F00
000000FE00
000001FC00
000001FC00
000003F800
000007F000
00000FE000
00000FE000
00001FC000
00003F8000
00007F8000
00007F0000
0000FE0000
0001FC0000
0001FC0000
0003F80000
0007F00000
000FE00000
000FE00000
001FC00000
003F800000
007F800000
007F000000
00FE000000
01FC000000
01FC000000
03F8000000
07F0000000
0FE0000000
0FE0000000
1FC0000000
3F80000000
7F80000000
7F00000000
FFFFFFFFF0
FFFFFFFFF0
FFFFFFFFF0
FFFFFFFFF0
FFFFFFFFF0
FFFFFFFFF0
ENDCHAR
STARTCHAR 017C
ENCODING 380
SWIDTH 480 0
DWIDTH 32 0
BBX 26 51 3 0
BITMAP
003E0000
003E0000
003E0000
003E0000
003E0000
003E0000
003E0000
003E0000
00000000
00000000
00000000
00000000
00000000
00000000
FFFFFFC0
FFFFFFC0
FFFFFFC0
FFFFFFC0
FFFFFFC0
00000FC0
00001FC0
00003F80
00007F00
00007E00
0000FC00
0001FC00
0003F800
0003F000
0007E000
000FE000
001FC000
003F8000
003F0000
007F0000
00FE0000
01FC0000
01F80000
03F00000
07F00000
0FE00000
1FC00000
1F800000
3F800000
7F000000
FE000000
FC000000
FFFFFFC0
FFFFFFC0
FFFFFFC0
FFFFFFC0
FFFFFFC0
ENDCHAR
STARTCHAR 017D
ENCODING 381
SWIDTH 615 0
DWIDTH 41 0
BBX 36 62 3 0
BITMAP
007803C000
003C07C000
003E0F8000
001F0F0000
000F9E0000
0007BE0000
0007FC0000
0003F80000
0001F80000
0000000000
0000000000
0000000000
0000000000
FFFFFFFFE0
FFFFFFFFE0
FFFFFFFFE0
FFFFFFFFE0
FFFFFFFFE0
FFFFFFFFE0
0000001FC0
0000003F80
0000007F80
0000007F00
000000FE00
000001FC00
000001FC00
000003F800
000007F000
00000FE000
00000FE000
00001FC000
00003F8000
00007F8000
00007F0000
0000FE0000
0001FC0000
0001FC0000
0003F80000
0007F00000
000FE00000
000FE00000
001FC00000
003F800000
007F800000
007F000000
00FE000000
01FC000000
01FC000000
03F8000000
07F0000000
0FE0000000
0FE0000000
1FC0000000
3F80000000
7F80000000
7F00000000
FFFFFFFFF0
FFFFFFFFF0
FFFFFFFFF0
FFFFFFFFF0
FFFFFFFFF0
FFFFFFFFF0
ENDCHAR
STARTCHAR 017E
ENCODING 382
SWIDTH 480 0
DWIDTH 32 0
BBX 26 54 3 0
BITMAP
0F003C00
0F007C00
07807800
07C0F000
03C1F000
03E1E000
01F3E000
00F7C000
00FFC000
007F8000
007F0000
003F0000
001E0000
00000000
00000000
00000000
00000000
FFFFFFC0
FFFFFFC0
FFFFFFC0
FFFFFFC0
FFFFFFC0
00000FC0
00001FC0
00003F80
00007F00
00007E00
0000FC00
0001FC00
0003F800
0003F000
0007E000
000FE000
001FC000
003F8000
003F0000
007F0000
00FE0000
01FC0000
01F80000
03F00000
07F00000
0FE00000
1FC00000
1F800000
3F800000
7F000000
FE000000
FC000000
FFFFFFC0
FFFFFFC0
FFFFFFC0
FFFFFFC0
FFFFFFC0
ENDCHAR
STARTCHAR 017F
ENCODING 383
SWIDTH 315 0
DWIDTH 21 0
BBX 21 51 1 0
BITMAP
000FF8
003FF8
00FFF8
00FFF8
01FFF8
01FC00
03F000
03F000
03E000
03E000
03E000
03E000
03E000
03E000
FFE000
FFE000
FFE000
FFE000
FFE000
03E000
03E000
03E000
03E000
03E000
03E000
03E000
03E000
03E000
03E000
03E000
03E000
03E000
03E000
03E000
03E000
03E000
03E000
03E000
03E000
03E000
03E000
03E000
03E000
03E000
03E000
03E000
03E000
03E000
03E000
03E000
03E000
ENDCHAR
STARTCHAR 0180
ENCODING 384
SWIDTH 570 0
DWIDTH 38 0
BBX 34 52 1 -1
BITMAP
0FC0000000
0FC0000000
0FC0000000
0FC0000000
0FC0000000
FFFFE00000
FFFFE00000
FFFFE00000
FFFFE00000
0FC0000000
0FC0000000
0FC0000000
0FC0000000
0FC0080000
0FC1FF8000
0FC3FFE000
0FCFFFF000
0FDFFFF800
0FDFFFFC00
0FFE01FE00
0FFC00FE00
0FF8007F00
0FF0003F00
0FF0001F80
0FE0001F80
0FE0001F80
0FE0000F80
0FC0000FC0
0FC0000FC0
0FC0000FC0
0FC0000FC0
0FC0000FC0
0FC0000FC0
0FC0000FC0
0FC0000FC0
0FC0000FC0
0FC0000FC0
0FC0000FC0
0FC0000F80
0FE0001F80
0FE0001F80
0FE0001F80
0FF0003F00
0FF8003F00
0FF8007E00
0FFE00FE00
0FFF83FC00
0FDFFFFC00
0FCFFFF800
0FC7FFF000
0FC1FFC000
00007F0000
ENDCHAR
STARTCHAR 0181
ENCODING 385
SWIDTH 660 0
DWIDTH 44 0
BBX 43 49 -3 0
BITMAP
00FFFFFE0000
07FFFFFFE000
1FFFFFFFF800
3FFFFFFFFC00
7FFFFFFFFE00
7FFFFFFFFF00
7E0FC000FF00
FC0FC0007F00
F80FC0003F80
F80FC0001F80
F80FC0001F80
F80FC0001F80
F80FC0001F80
F80FC0001F80
000FC0001F80
000FC0001F80
000FC0001F80
000FC0003F00
000FC0007F00
000FC001FE00
000FFFFFFC00
000FFFFFF800
000FFFFFC000
000FFFFFF000
000FFFFFFC00
000FFFFFFE00
000FC000FF00
000FC0003F80
000FC0001FC0
000FC0000FC0
000FC0000FC0
000FC0000FE0
000FC00007E0
000FC00007E0
000FC00007E0
000FC00007E0
000FC00007E0
000FC0000FE0
000FC0000FE0
000FC0000FE0
000FC0001FC0
000FC0003FC0
000FC0007F80
000FC00FFF80
000FFFFFFF00
000FFFFFFE00
000FFFFFFC00
000FFFFFF000
000FFFFF8000
ENDCHAR
STARTCHAR 0182
ENCODING 386
SWIDTH 615 0
DWIDTH 41 0
BBX 31 49 6 0
BITMAP
FFFFFFF0
FFFFFFF0
FFFFFFF0
FFFFFFF0
FFFFFFF0
FFFFFFF0
FC000000
FC000000
FC000000
FC000000
FC000000
FC000000
FC000000
FC000000
FC000000
FC000000
FC000000
FC000000
FC000000
FC000000
FFFFE000
FFFFFE00
FFFFFF80
FFFFFFE0
FFFFFFF0
FFFFFFF8
FC000FF8
FC0003FC
FC0001FC
FC0000FC
FC0000FE
FC0000FE
FC00007E
FC00007E
FC00007E
FC00007E
FC00007E
FC0000FE
FC0000FE
FC0000FE
FC0001FC
FC0003FC
FC0007F8
FC00FFF8
FFFFFFF0
FFFFFFE0
FFFFFFC0
FFFFFF00
FFFFF800
ENDCHAR
STARTCHAR 0183
ENCODING 387
SWIDTH 570 0
DWIDTH 38 0
BBX 30 52 5 -1
BITMAP
FFFFFF80
FFFFFF80
FFFFFF80
FFFFFF80
FFFFFF80
FFFFFF80
FC000000
FC000000
FC000000
FC000000
FC000000
FC000000
FC000000
FC008000
FC1FF800
FC3FFE00
FCFFFF00
FDFFFF80
FDFFFFC0
FFE01FE0
FFC00FE0
FF8007F0
FF0003F0
FF0001F8
FE0001F8
FE0001F8
FE0000F8
FC0000FC
FC0000FC
FC0000FC
FC0000FC
FC0000FC
FC0000FC
FC0000FC
FC0000FC
FC0000FC
FC0000FC
FC0000FC
FC0000F8
FE0001F8
FE0001F8
FE0001F8
FF0003F0
FF8003F0
FF8007E0
FFE00FE0
FFF83FC0
FDFFFFC0
FCFFFF80
FC7FFF00
FC1FFC00
0007F000
ENDCHAR
STARTCHAR 0184
ENCODING 388
SWIDTH 615 0
DWIDTH 41 0
BBX 37 49 0 0
BITMAP
0070000000
00F0000000
00F0000000
01F0000000
03F0000000
07F0000000
07F0000000
0FF0000000
1FF0000000
1FF0000000
3FF0000000
7FF0000000
7FF0000000
83F0000000
03F0000000
03F0000000
03F0000000
03F0000000
03F0000000
03F0000000
03FFFF8000
03FFFFF800
03FFFFFE00
03FFFFFF80
03FFFFFFC0
03FFFFFFE0
03F0003FE0
03F0000FF0
03F00007F0
03F00003F0
03F00003F8
03F00003F8
03F00001F8
03F00001F8
03F00001F8
03F00001F8
03F00001F8
03F00003F8
03F00003F8
03F00003F8
03F00007F0
03F0000FF0
03F0001FE0
03F003FFE0
03FFFFFFC0
03FFFFFF80
03FFFFFF00
03FFFFFC00
03FFFFE000
ENDCHAR
STARTCHAR 0185
ENCODING 389
SWIDTH 570 0
DWIDTH 38 0
BBX 35 52 0 -1
BITMAP
00E0000000
00E0000000
01E0000000
01E0000000
03E0000000
07E0000000
07E0000000
0FE0000000
0FE0000000
1FE0000000
1FE0000000
3FE0000000
3FE0000000
7FE0040000
FFE0FFC000
07E1FFF000
07E7FFF800
07EFFFFC00
07EFFFFE00
07FF00FF00
07FE007F00
07FC003F80
07F8001F80
07F8000FC0
07F0000FC0
07F0000FC0
07F00007C0
07E00007E0
07E00007E0
07E00007E0
07E00007E0
07E00007E0
07E00007E0
07E00007E0
07E00007E0
07E00007E0
07E00007E0
07E00007E0
07E00007C0
07F0000FC0
07F0000FC0
07F0000FC0
07F8001F80
07FC001F80
07FC003F80
07FF007F00
07FFC1FE00
07EFFFFE00
07E7FFFC00
07E3FFF800
07E1FFE000
00003F8000
ENDCHAR
STARTCHAR 0186
ENCODING 390
SWIDTH 630 0
DWIDTH 42 0
BBX 36 51 3 -1
BITMAP
001F800000
01FFFC0000
0FFFFF0000
3FFFFFC000
7FFFFFE000
FFFFFFF800
FF801FFC00
FC0003FC00
F00001FE00
E00000FF00
C000007F00
8000003F80
0000001F80
0000001FC0
0000000FC0
0000000FE0
0000000FE0
00000007E0
00000007E0
00000007E0
00000007F0
00000007F0
00000007F0
00000007F0
00000003F0
00000003F0
00000003F0
00000007F0
00000007F0
00000007F0
00000007F0
00000007E0
00000007E0
00000007E0
0000000FE0
0000000FE0
0000000FC0
0000001FC0
0000001FC0
8000003F80
C000007F80
E000007F00
F00000FE00
FC0003FE00
FF000FFC00
FFFFFFF800
7FFFFFF000
3FFFFFC000
0FFFFF8000
03FFFE0000
003FE00000
ENDCHAR
STARTCHAR 0187
ENCODING 391
SWIDTH 630 0
DWIDTH 42 0
BBX 45 63 3 -1
BITMAP
0000000001F8
000000000FF8
000000003FF8
000000007FF8
000000007FF8
00000000FFF8
00000000FE00
00000001FC00
00000001F800
00000001F800
00000003F000
00000003F000
00001F03F000
0003FFFBF000
000FFFFFF000
003FFFFFF000
007FFFFFF000
00FFFFFFF000
01FF801FF000
03FE0003F000
07F80000F000
0FF000007000
0FE000003000
1FC000001000
1FC000000000
3F8000000000
3F8000000000
3F0000000000
7F0000000000
7F0000000000
7E0000000000
7E0000000000
7E0000000000
7E0000000000
FE0000000000
FE0000000000
FE0000000000
FE0000000000
FE0000000000
FE0000000000
FE0000000000
7E0000000000
7E0000000000
7E0000000000
7E0000000000
7E0000000000
7F0000000000
3F0000000000
3F0000000000
3F8000000000
1F8000000000
1FC000000000
0FE000001000
0FF000007000
07F80000F000
03FC0003F000
03FF000FF000
01FFFFFFF000
00FFFFFFE000
003FFFFFC000
001FFFFF0000
0007FFFC0000
00007FC00000
ENDCHAR
STARTCHAR 0188
ENCODING 392
SWIDTH 495 0
DWIDTH 33 0
BBX 33 52 3 -1
BITMAP
0000000F80
0000007F80
000000FF80
000001FF80
000001FF80
000003FC00
000003F000
000003E000
000007E000
000007E000
000007E000
000007C000
000007C000
000007C000
001FFFC000
007FFFC000
01FFFFC000
03FFFFC000
07FFFFC000
0FF003C000
1FE0004000
1FC0000000
3F80000000
3F00000000
7F00000000
7E00000000
7E00000000
7E00000000
7C00000000
FC00000000
FC00000000
FC00000000
FC00000000
FC00000000
FC00000000
FC00000000
7C00000000
7C00000000
7E00000000
7E00000000
7E00000000
3F00000000
3F00000000
1F80000000
1FC0000000
0FF000C000
0FFC0FC000
07FFFFC000
03FFFFC000
00FFFFC000
003FFF0000
000FF80000
ENDCHAR
STARTCHAR 0189
ENCODING 393
SWIDTH 705 0
DWIDTH 47 0
BBX 43 49 0 0
BITMAP
03FFFF000000
03FFFFF80000
03FFFFFF0000
03FFFFFFC000
03FFFFFFE000
03FFFFFFF800
03F0003FFC00
03F00007FC00
03F00001FE00
03F00000FF00
03F000007F00
03F000003F80
03F000003F80
03F000001FC0
03F000001FC0
03F000000FC0
03F000000FC0
03F000000FE0
03F000000FE0
03F0000007E0
03F0000007E0
FFFFFC0007E0
FFFFFC0007E0
FFFFFC0007E0
FFFFFC0007E0
FFFFFC0007E0
03F0000007E0
03F0000007E0
03F0000007E0
03F0000007E0
03F000000FE0
03F000000FE0
03F000000FC0
03F000000FC0
03F000001FC0
03F000001FC0
03F000003F80
03F000003F80
03F000007F00
03F00000FF00
03F00001FE00
03F00007FE00
03F0001FFC00
03F00FFFF800
03FFFFFFE000
03FFFFFFC000
03FFFFFF0000
03FFFFFC0000
03FFFF800000
ENDCHAR
STARTCHAR 018A
ENCODING 394
SWIDTH 735 0
DWIDTH 49 0
BBX 49 49 -3 0
BITMAP
00FFFFFC000000
07FFFFFFE00000
1FFFFFFFFC0000
3FFFFFFFFE0000
7FFFFFFFFF8000
7FFFFFFFFFC000
7E0FC000FFE000
FC0FC0001FF000
F80FC0000FF800
F80FC00003FC00
F80FC00001FC00
F80FC00001FE00
F80FC00000FE00
F80FC000007E00
000FC000007F00
000FC000007F00
000FC000003F00
000FC000003F00
000FC000003F00
000FC000003F80
000FC000003F80
000FC000003F80
000FC000001F80
000FC000001F80
000FC000001F80
000FC000001F80
000FC000003F80
000FC000003F80
000FC000003F80
000FC000003F80
000FC000003F00
000FC000003F00
000FC000003F00
000FC000007F00
000FC000007F00
000FC000007E00
000FC00000FE00
000FC00001FE00
000FC00001FC00
000FC00003FC00
000FC00007F800
000FC0001FF000
000FC0007FE000
000FC03FFFC000
000FFFFFFF8000
000FFFFFFF0000
000FFFFFFC0000
000FFFFFE00000
000FFFFE000000
ENDCHAR
STARTCHAR 018B
ENCODING 395
SWIDTH 615 0
DWIDTH 41 0
BBX 31 49 6 0
BITMAP
03FFFFFE
03FFFFFE
03FFFFFE
03FFFFFE
03FFFFFE
03FFFFFE
0000007E
0000007E
0000007E
0000007E
0000007E
0000007E
0000007E
0000007E
0000007E
0000007E
0000007E
0000007E
0000007E
0000007E
000FFFFE
00FFFFFE
03FFFFFE
0FFFFFFE
1FFFFFFE
3FFFFFFE
3FE0007E
7F80007E
7F00007E
7E00007E
FE00007E
FE00007E
FC00007E
FC00007E
FC00007E
FC00007E
FC00007E
FC00007E
FE00007E
FE00007E
7F00007E
7F80007E
3FC0007E
3FFE007E
1FFFFFFE
0FFFFFFE
07FFFFFE
01FFFFFE
003FFFFE
ENDCHAR
STARTCHAR 018C
ENCODING 396
SWIDTH 570 0
DWIDTH 38 0
BBX 30 52 3 -1
BITMAP
07FFFFFC
07FFFFFC
07FFFFFC
07FFFFFC
07FFFFFC
07FFFFFC
000000FC
000000FC
000000FC
000000FC
000000FC
000000FC
000000FC
000000FC
007FE0FC
01FFF8FC
03FFFCFC
07FFFEFC
0FFFFFFC
0FE01FFC
1FC00FFC
3F8007FC
3F0003FC
3F0001FC
7E0001FC
7E0001FC
7E0000FC
7C0000FC
7C0000FC
FC0000FC
FC0000FC
FC0000FC
FC0000FC
FC0000FC
FC0000FC
FC0000FC
7C0000FC
7C0000FC
7E0000FC
7E0000FC
7E0001FC
3E0001FC
3F0003FC
3F8003FC
1F8007FC
1FE00FFC
0FF83FFC
07FFFEFC
03FFFCFC
01FFF8FC
00FFF0FC
001F8000
ENDCHAR
STARTCHAR 018D
ENCODING 397
SWIDTH 555 0
DWIDTH 37 0
BBX 31 51 3 -14
BITMAP
0007C000
007FFC00
01FFFE00
03FFFF80
07FFFFC0
0FFC7FE0
0FE00FE0
1FC007F0
3F8003F0
3F0001F8
3F0001F8
7E0000FC
7E0000FC
7E0000FC
7C0000FC
7C00007C
FC00007C
FC00007E
FC00007E
FC00007E
FC00007E
FC00007C
FC00007C
7C00007C
7E0000FC
7E0000FC
7E0000F8
3F0000F8
3F0001F0
3F8001F0
1FC003E0
0FF007E0
0FFE0FC0
07FFFF80
01FFFE00
00FFFF00
003FFF80
0003FFC0
00003FE0
00000FE0
000007E0
000003E0
000003E0
000003E0
0C0007E0
0F801FE0
0FFFFFC0
0FFFFFC0
0FFFFF00
03FFFE00
007FE000
ENDCHAR
STARTCHAR 018E
ENCODING 398
SWIDTH 570 0
DWIDTH 38 0
BBX 28 49 4 0
BITMAP
FFFFFFF0
FFFFFFF0
FFFFFFF0
FFFFFFF0
FFFFFFF0
FFFFFFF0
000003F0
000003F0
000003F0
000003F0
000003F0
000003F0
000003F0
000003F0
000003F0
000003F0
000003F0
000003F0
000003F0
000003F0
7FFFFFF0
7FFFFFF0
7FFFFFF0
7FFFFFF0
7FFFFFF0
7FFFFFF0
000003F0
000003F0
000003F0
000003F0
000003F0
000003F0
000003F0
000003F0
000003F0
000003F0
000003F0
000003F0
000003F0
000003F0
000003F0
000003F0
000003F0
FFFFFFF0
FFFFFFF0
FFFFFFF0
FFFFFFF0
FFFFFFF0
FFFFFFF0
ENDCHAR
STARTCHAR 018F
ENCODING 399
SWIDTH 705 0
DWIDTH 47 0
BBX 41 51 3 -1
BITMAP
0000FC000000
001FFFE00000
00FFFFFC0000
03FFFFFE0000
0FFFFFFF8000
0FFFFFFFC000
0FF800FFE000
0FC0001FF000
0F00000FF000
0E000003F800
08000001FC00
00000001FC00
00000000FE00
000000007E00
000000007E00
000000007F00
000000003F00
000000003F00
000000003F00
000000003F80
000000001F80
000000001F80
000000001F80
000000001F80
FFFFFFFFFF80
FFFFFFFFFF80
FFFFFFFFFF80
7FFFFFFFFF80
7FFFFFFFFF80
7FFFFFFFFF80
7E0000001F80
7E0000003F80
7E0000003F00
7E0000003F00
3F0000003F00
3F0000007F00
3F0000007F00
3F8000007E00
1F800000FE00
1FC00000FC00
0FE00001FC00
0FF00003F800
07F80007F800
03FC000FF000
03FF003FE000
01FFF3FFC000
00FFFFFF8000
007FFFFF0000
001FFFFC0000
0007FFF00000
0000FF800000
ENDCHAR
STARTCHAR 0190
ENCODING 400
SWIDTH 555 0
DWIDTH 37 0
BBX 29 51 5 -1
BITMAP
000FE000
00FFFF00
03FFFFE0
07FFFFE0
0FFFFFE0
1FFFFFE0
3FF003E0
3FC00060
3F000000
7F000000
7E000000
7E000000
7E000000
7E000000
7E000000
7E000000
7E000000
3F000000
3F000000
1F800000
0FE00000
07FFF800
03FFF800
00FFF800
03FFF800
07FFF800
1FFFF800
1FE00000
3F800000
7F000000
7E000000
FE000000
FC000000
FC000000
FC000000
FC000000
FC000000
FC000000
FC000000
FC000000
FE000000
7E000000
7F000008
3F800038
3FF000F8
1FFFFFF8
0FFFFFF8
07FFFFF8
03FFFFF8
00FFFFC0
000FFC00
ENDCHAR
STARTCHAR 0191
ENCODING 401
SWIDTH 525 0
DWIDTH 35 0
BBX 34 62 -3 -13
BITMAP
007FFFFFC0
007FFFFFC0
007FFFFFC0
007FFFFFC0
007FFFFFC0
007FFFFFC0
007E000000
007E000000
007E000000
007E000000
007E000000
007E000000
007E000000
007E000000
007E000000
007E000000
007E000000
007E000000
007E000000
007E000000
007FFFFF00
007FFFFF00
007FFFFF00
007FFFFF00
007FFFFF00
007FFFFF00
007E000000
007E000000
007E000000
007E000000
007E000000
007E000000
007E000000
007E000000
007E000000
007E000000
007E000000
007E000000
007E000000
007E000000
007E000000
007E000000
007E000000
007E000000
007E000000
007E000000
007E000000
007E000000
007E000000
007E000000
007E000000
00FC000000
00FC000000
00FC000000
01FC000000
03F8000000
0FF8000000
FFF0000000
FFF0000000
FFE0000000
FFC0000000
FF00000000
ENDCHAR
STARTCHAR 0192
ENCODING 402
SWIDTH 315 0
DWIDTH 21 0
BBX 26 65 -4 -14
BITMAP
00003FC0
0001FFC0
0003FFC0
0007FFC0
000FFFC0
000FE000
001F8000
001F8000
001F0000
001F0000
001F0000
001F0000
001F0000
001F0000
07FFFF80
07FFFF80
07FFFF80
07FFFF80
07FFFF80
001F0000
001F0000
001F0000
001F0000
001F0000
001F0000
001F0000
001F0000
001F0000
001F0000
001F0000
001F0000
001F0000
001F0000
001F0000
001F0000
001F0000
001F0000
001F0000
001F0000
001F0000
001F0000
001F0000
001F0000
001F0000
001F0000
001F0000
001F0000
001F0000
001F0000
001F0000
001F0000
001F0000
001F0000
001F0000
001F0000
001F0000
003F0000
003F0000
003E0000
00FE0000
FFFE0000
FFFC0000
FFF80000
FFF00000
FF800000
ENDCHAR
STARTCHAR 0193
ENCODING 403
SWIDTH 705 0
DWIDTH 47 0
BBX 47 63 3 -1
BITMAP
00000000007E
0000000003FE
000000000FFE
000000001FFE
000000003FFE
000000003FFE
000000007F80
000000007F00
00000000FE00
00000000FE00
00000000FC00
00000000FC00
00000F80FC00
0003FFFEFC00
000FFFFFFC00
003FFFFFFC00
007FFFFFFC00
00FFFFFFFC00
01FF800FFC00
03FE0001FC00
07F800007C00
0FF000001C00
0FE000000C00
1FC000000400
1F8000000000
3F8000000000
3F0000000000
3F0000000000
7F0000000000
7F0000000000
7E0000000000
7E0000000000
7E0000000000
7E0000000000
FE0000000000
FE0000000000
FE0001FFFE00
FE0001FFFE00
FE0001FFFE00
FE0001FFFE00
FE0001FFFE00
7E0001FFFE00
7E0000007E00
7E0000007E00
7E0000007E00
7E0000007E00
7F0000007E00
3F0000007E00
3F0000007E00
3F8000007E00
1F8000007E00
1FC000007E00
0FE000007E00
0FF000007E00
07F800007E00
03FC0000FE00
03FF0003FE00
01FFFFFFFE00
00FFFFFFF800
003FFFFFF000
001FFFFFC000
0003FFFE0000
00007FE00000
ENDCHAR
STARTCHAR 0194
ENCODING 404
SWIDTH 615 0
DWIDTH 41 0
BBX 41 63 0 -14
BITMAP
FE0000003F80
7E0000003F80
7F0000007F00
3F0000007F00
3F800000FE00
1F800000FE00
1FC00001FC00
0FC00001FC00
0FE00003F800
07E00003F800
07F00007F000
03F00007F000
03F80007E000
01F8000FE000
01FC000FC000
00FC001FC000
00FE001F8000
007E003F8000
007F003F0000
003F007F0000
003F807E0000
001F80FE0000
001FC0FC0000
000FC1FC0000
000FE1F80000
0007E3F80000
0007F3F00000
0003F7F00000
0003FFE00000
0001FFE00000
0001FFC00000
0000FFC00000
0000FF800000
00007F800000
00007F000000
00007F000000
00007F800000
0000FF800000
0000FF800000
0001FFC00000
0001FFC00000
0001FFE00000
0003FFE00000
0003F7F00000
0007F3F00000
0007E3F00000
0007E3F80000
000FE1F80000
000FC1F80000
000FC0FC0000
001FC0FC0000
001F80FC0000
001F80FC0000
001F80FC0000
001F80FC0000
001F80FC0000
001FC1FC0000
000FFFFC0000
000FFFF80000
0007FFF80000
0007FFF00000
0001FFE00000
00007F000000
ENDCHAR
STARTCHAR 0195
ENCODING 405
SWIDTH 885 0
DWIDTH 59 0
BBX 50 51 5 0
BITMAP
FC000000000000
FC000000000000
FC000000000000
FC000000000000
FC000000000000
FC000000000000
FC000000000000
FC000000000000
FC000000000000
FC000000000000
FC000000000000
FC000000000000
FC000000000000
FC008000000000
FC0FFC00040000
FC3FFE00078000
FC7FFF0007E000
FCFFFF8007F000
FDFFFFC007F800
FFE01FC003FC00
FFC00FE001FE00
FF8007E0007E00
FF0007E0003F00
FE0003F0003F00
FE0003F0001F80
FE0003F0001F80
FC0001F0001F80
FC0001F0000F80
FC0001F0000FC0
FC0001F0000FC0
FC0001F0000FC0
FC0001F0000FC0
FC0001F0000FC0
FC0001F0000FC0
FC0001F0000FC0
FC0001F0000FC0
FC0001F0000FC0
FC0001F0000FC0
FC0001F0000F80
FC0001F0001F80
FC0001F0001F80
FC0001F0001F80
FC0001F8003F00
FC0001F8007F00
FC0001F800FE00
FC0000FE03FC00
FC0000FFFFFC00
FC00007FFFF000
FC00003FFFE000
FC00001FFFC000
FC000007FE0000
ENDCHAR
STARTCHAR 0196
ENCODING 406
SWIDTH 315 0
DWIDTH 21 0
BBX 15 49 6 0
BITMAP
FC00
FC00
FC00
FC00
FC00
FC00
FC00
FC00
FC00
FC00
FC00
FC00
FC00
FC00
FC00
FC00
FC00
FC00
FC00
FC00
FC00
FC00
FC00
FC00
FC00
FC00
FC00
FC00
FC00
FC00
FC00
FC00
FC00
FC00
FC00
FC00
FC00
FC00
FC00
7E00
7E00
7F00
3F80
3FFE
1FFE
1FFE
0FFE
03FE
00FE
ENDCHAR
STARTCHAR 0197
ENCODING 407
SWIDTH 270 0
DWIDTH 18 0
BBX 18 49 0 0
BITMAP
03F000
03F000
03F000
03F000
03F000
03F000
03F000
03F000
03F000
03F000
03F000
03F000
03F000
03F000
03F000
03F000
03F000
03F000
03F000
03F000
03F000
03F000
03F000
03F000
03F000
FFFFC0
FFFFC0
FFFFC0
FFFFC0
FFFFC0
03F000
03F000
03F000
03F000
03F000
03F000
03F000
03F000
03F000
03F000
03F000
03F000
03F000
03F000
03F000
03F000
03F000
03F000
03F000
ENDCHAR
STARTCHAR 0198
ENCODING 408
SWIDTH 675 0
DWIDTH 45 0
BBX 39 50 6 0
BITMAP
0000000F00
FC00003FC0
FC0000FFF0
FC0001FFF8
FC0001FFF8
FC0003FFFC
FC0007F0FC
FC000FE07E
FC001FC03E
FC003F803E
FC007F003E
FC00FE003E
FC01FC003E
FC03F8003E
FC07F00000
FC0FE00000
FC1FC00000
FC3FC00000
FC7F800000
FCFF000000
FDFE000000
FFFC000000
FFF8000000
FFF0000000
FFF0000000
FFF8000000
FFFC000000
FDFE000000
FCFF000000
FC7F000000
FC7F800000
FC3FC00000
FC1FE00000
FC0FF00000
FC07F80000
FC03FC0000
FC01FE0000
FC00FF0000
FC007F0000
FC003F8000
FC003FC000
FC001FE000
FC000FF000
FC0007F800
FC0003FC00
FC0001FE00
FC0000FF00
FC00007F80
FC00003F80
FC00001FC0
ENDCHAR
STARTCHAR 0199
ENCODING 409
SWIDTH 525 0
DWIDTH 35 0
BBX 29 51 5 0
BITMAP
01FF0000
07FF0000
1FFF0000
1FFF0000
3FFF0000
3F800000
7E000000
7E000000
7C000000
7C000000
7C000000
FC000000
FC000000
FC000000
FC0003F8
FC0007F0
FC000FE0
FC001FC0
FC003F80
FC007F00
FC00FE00
FC01FC00
FC03F800
FC07F000
FC0FE000
FC1FC000
FC3F8000
FC7F0000
FCFE0000
FDFC0000
FFF80000
FFF00000
FFF00000
FFF80000
FDFC0000
FCFE0000
FC7F0000
FC3F8000
FC1FC000
FC0FE000
FC07F000
FC03F800
FC01FC00
FC00FE00
FC007F00
FC003F80
FC003FC0
FC001FC0
FC000FE0
FC0007F0
FC0003F8
ENDCHAR
STARTCHAR 019A
ENCODING 410
SWIDTH 255 0
DWIDTH 17 0
BBX 16 51 0 0
BITMAP
03E0
03E0
03E0
03E0
03E0
03E0
03E0
03E0
03E0
03E0
03E0
03E0
03E0
03E0
03E0
03E0
03E0
03E0
03E0
03E0
03E0
03E0
03E0
FFFF
FFFF
FFFF
FFFF
FFFF
03E0
03E0
03E0
03E0
03E0
03E0
03E0
03E0
03E0
03E0
03E0
03E0
03E0
03E0
03E0
03E0
03E0
03E0
03E0
03E0
03E0
03E0
03E0
ENDCHAR
STARTCHAR 019B
ENCODING 411
SWIDTH 540 0
DWIDTH 36 0
BBX 32 51 2 0
BITMAP
007E0000
007E0040
003F03C0
003F1FC0
003F7FC0
001FFF00
001FF800
007FC000
03FFC000
1FFFC000
1FCFC000
1E07E000
1807E000
0007E000
0003F000
0003F000
0003F000
0003F800
0007F800
0007F800
000FFC00
000FFC00
000FFC00
001FFE00
001FFE00
003F7E00
003F3F00
007E3F00
007E3F00
007E1F80
00FC1F80
00FC1F80
01F80FC0
01F80FC0
01F007C0
03F007E0
03F007E0
07E003E0
07E003F0
07C003F0
0FC001F0
0FC001F8
1F8001F8
1F8000F8
3F0000FC
3F0000FC
3E00007C
7E00007E
7E00007E
FC00003E
FC00003F
ENDCHAR
STARTCHAR 019C
ENCODING 412
SWIDTH 885 0
DWIDTH 59 0
BBX 49 50 5 -1
BITMAP
FC0003F0001F80
FC0003F0001F80
FC0003F0001F80
FC0003F0001F80
FC0003F0001F80
FC0003F0001F80
FC0003F0001F80
FC0003F0001F80
FC0003F0001F80
FC0003F0001F80
FC0003F0001F80
FC0003F0001F80
FC0003F0001F80
FC0003F0001F80
FC0003F0001F80
FC0003F0001F80
FC0003F0001F80
FC0003F0001F80
FC0003F0001F80
FC0003F0001F80
FC0003F0001F80
FC0003F0001F80
FC0003F0001F80
FC0003F0001F80
FC0003F0001F80
FC0003F0001F80
FC0003F0001F80
FC0003F0001F80
FC0003F0001F80
FC0003F0001F80
FC0003F0001F80
FC0003F0001F80
FC0003F0001F80
FC0003F0001F80
FC0003F0001F80
FC0007F0001F80
FC0007F0001F80
FC0007F0003F80
FC0007F0003F80
7E000FF0003F80
7E000FF0007F80
7E001FF800FF80
7F003DFC00FF80
3F807DFE03FF80
3FF7F9FFDFDF80
1FFFF0FFFFDF80
1FFFE07FFF9F80
0FFFC03FFF1F80
03FF801FFC1F80
00FC0007F00000
ENDCHAR
STARTCHAR 019D
ENCODING 413
SWIDTH 675 0
DWIDTH 45 0
BBX 42 62 -3 -13
BITMAP
007F80000FC0
007FC0000FC0
007FC0000FC0
007FE0000FC0
007FE0000FC0
007FF0000FC0
007FF0000FC0
007FF0000FC0
007FF8000FC0
007FF8000FC0
007EFC000FC0
007EFC000FC0
007E7E000FC0
007E7E000FC0
007E3F000FC0
007E3F000FC0
007E1F800FC0
007E1F800FC0
007E0FC00FC0
007E0FC00FC0
007E07E00FC0
007E07E00FC0
007E03F00FC0
007E03F00FC0
007E01F80FC0
007E01F80FC0
007E01FC0FC0
007E00FC0FC0
007E00FC0FC0
007E007E0FC0
007E007E0FC0
007E003F0FC0
007E003F0FC0
007E001F8FC0
007E001F8FC0
007E000FCFC0
007E000FCFC0
007E0007EFC0
007E0007EFC0
007E0003FFC0
007E0003FFC0
007E0001FFC0
007E0001FFC0
007E0000FFC0
007E0000FFC0
007E00007FC0
007E00007FC0
007E00007FC0
007E00003FC0
007E00000000
007C00000000
00FC00000000
00FC00000000
00FC00000000
01FC00000000
03F800000000
0FF800000000
FFF000000000
FFF000000000
FFE000000000
FF8000000000
FF0000000000
ENDCHAR
STARTCHAR 019E
ENCODING 414
SWIDTH 570 0
DWIDTH 38 0
BBX 28 52 5 -14
BITMAP
00008000
FC0FFC00
FC3FFE00
FC7FFF00
FCFFFF80
FDFFFFC0
FFE01FC0
FFC00FE0
FF8007E0
FF0007E0
FE0003F0
FE0003F0
FE0003F0
FC0001F0
FC0001F0
FC0001F0
FC0001F0
FC0001F0
FC0001F0
FC0001F0
FC0001F0
FC0001F0
FC0001F0
FC0001F0
FC0001F0
FC0001F0
FC0001F0
FC0001F0
FC0001F0
FC0001F0
FC0001F0
FC0001F0
FC0001F0
FC0001F0
FC0001F0
FC0001F0
FC0001F0
FC0001F0
000001F0
000001F0
000001F0
000001F0
000001F0
000001F0
000001F0
000001F0
000001F0
000001F0
000001F0
000001F0
000001F0
000001F0
ENDCHAR
ENDFONT
